<svg id="Artwork" xmlns="http://www.w3.org/2000/svg" viewBox="0 0 432 148"><defs><style>.cls-1{fill:#3887f6;}.cls-2{fill:#5051db;}</style></defs><title>Flatiron_Horizontal_RGB</title><polygon class="cls-1" points="64.21 74 64.21 137 118.77 105.5 118.77 42.5 64.21 74"/><polygon class="cls-2" points="9.65 42.5 9.65 105.5 64.21 74 64.21 11 9.65 42.5"/><path d="M377.29,84.17c0,13.09-9.62,22.63-22.37,22.63s-22.37-9.54-22.37-22.63,9.62-22.63,22.37-22.63S377.29,71,377.29,84.17Zm-11.53,0c0-8.06-5.2-12.14-10.84-12.14s-10.84,4.07-10.84,12.14,5.2,12.14,10.84,12.14S365.76,92.24,365.76,84.17Z"/><path d="M243.24,98.74v-21c0-8.58-5-16.21-18.55-16.21-11.05,0-17.17,6.88-18.2,13.36l10.23,2.17c.61-3.43,3.34-6.25,8.06-6.25s7.2,2.51,7.2,5.55c0,1.47-.78,2.69-3.21,3L218.27,81c-7.11,1-12.74,5.29-12.74,12.92,0,6.68,5.55,12.83,14.65,12.83,6.33,0,10.4-2.95,12.57-6.33a28.81,28.81,0,0,0,.43,5.12h10.58A47.66,47.66,0,0,1,243.24,98.74ZM232,88.25c0,7.54-4.51,9.88-9.36,9.88-3.73,0-5.55-2.43-5.55-4.94,0-3.29,2.34-4.94,5.29-5.37L232,86.34Z"/><path d="M187.36,105.5v-63h11.53v63Z"/><path d="M266.11,62.85h8.58V73.08h-8.58V90.94c0,3.73,1.73,4.94,5,4.94a16.7,16.7,0,0,0,3.55-.35v9.54a19.08,19.08,0,0,1-7.18,1,12.85,12.85,0,0,1-12.85-13.18V73.08h-7V62.85h7V50.1h11.44Z"/><path d="M169.43,105.5H158V73.1h-7.72V62.87H158V54.67c0-8.24,6.29-13.18,13.23-13.18a30.43,30.43,0,0,1,9.51,1.33v9.54a30.43,30.43,0,0,0-6.27-.64c-3.29,0-5,1.21-5,4.94v6.21H180.3V73.1H169.43Z"/><path d="M282,105.5V62.85h11.53V105.5Z"/><path d="M282,56.52v-11h11.53v11Z"/><path d="M329.22,74.29a17.36,17.36,0,0,0-3.47-.35c-5.9,0-11,2.86-11,12V105.5H303.21V62.85h11.18V69a12.77,12.77,0,0,1,11.15-6.46c1,0,2.81.09,3.68.17Z"/><path d="M395,105.5H383.43V62.85h11.18v5.29c2.6-4.42,7.72-6.41,12.31-6.41,10.58,0,15.43,7.54,15.43,16.9V105.5H410.82V80.62c0-4.77-2.34-8.5-7.89-8.5-5,0-8,3.9-8,8.84Z"/></svg>