<?xml version="1.0" standalone="no"?>
<!DOCTYPE svg PUBLIC "-//W3C//DTD SVG 20010904//EN"
 "http://www.w3.org/TR/2001/REC-SVG-20010904/DTD/svg10.dtd">
<svg version="1.0" xmlns="http://www.w3.org/2000/svg"
 width="840.000000pt" height="840.000000pt" viewBox="0 0 840.000000 840.000000"
 preserveAspectRatio="xMidYMid meet">
<metadata>
Created by potrace 1.11, written by Peter Selinger 2001-2013
</metadata>
<g transform="translate(0.000000,840.000000) scale(0.100000,-0.100000)"
fill="#000000" stroke="none">
<path d="M4125 8382 c-36 -23 -57 -48 -71 -82 -6 -15 -10 -169 -9 -396 l1
-371 27 -36 c33 -44 54 -56 106 -63 52 -7 102 15 137 61 l28 38 1 356 c1 196
-3 374 -8 396 -14 67 -58 104 -135 111 -35 4 -55 0 -77 -14z"/>
<path d="M2372 7939 c-44 -22 -70 -62 -78 -117 -4 -30 2 -53 24 -103 49 -106
107 -229 152 -324 23 -49 62 -132 86 -183 24 -51 52 -101 61 -111 88 -91 246
-38 257 86 3 42 0 53 -51 162 -19 41 -51 108 -70 150 -19 42 -55 119 -80 171
-25 52 -59 124 -76 160 -31 66 -78 119 -109 122 -59 6 -83 3 -116 -13z"/>
<path d="M5875 7937 c-28 -16 -47 -39 -70 -82 -49 -94 -205 -433 -205 -445 0
-5 -4 -10 -10 -10 -5 0 -10 -6 -10 -13 0 -7 -13 -40 -30 -73 -36 -74 -43 -124
-25 -168 16 -37 67 -85 93 -88 75 -6 111 3 146 36 20 18 49 62 51 76 0 3 12
30 27 60 14 30 42 89 61 130 19 41 54 116 78 165 23 50 43 92 44 95 1 3 17 37
35 75 54 113 44 181 -33 239 -38 28 -105 29 -152 3z"/>
<path d="M4057 6904 c-1 -1 -34 -5 -74 -8 -40 -4 -78 -8 -85 -11 -7 -2 -32 -6
-55 -9 -57 -7 -189 -41 -298 -77 -86 -29 -273 -111 -305 -134 -8 -5 -31 -19
-50 -29 -39 -22 -110 -68 -182 -118 -92 -65 -253 -216 -333 -311 -22 -27 -45
-54 -52 -62 -7 -7 -46 -63 -87 -123 -77 -113 -176 -306 -217 -422 -12 -36 -27
-71 -32 -77 -5 -7 -7 -13 -4 -13 3 0 -1 -24 -10 -52 -8 -29 -17 -64 -19 -78
-3 -14 -7 -33 -10 -42 -12 -41 -34 -184 -39 -263 -11 -153 -3 -360 20 -500 12
-76 24 -132 37 -180 6 -22 13 -46 14 -54 13 -66 118 -286 186 -390 10 -14 21
-33 25 -41 3 -8 9 -17 12 -20 13 -11 51 -70 51 -78 0 -4 8 -17 18 -28 9 -10
33 -44 52 -74 19 -30 37 -57 40 -60 9 -7 210 -329 210 -336 0 -3 8 -18 19 -32
43 -61 196 -375 217 -447 2 -5 19 -57 39 -115 20 -58 39 -116 41 -130 3 -14 7
-33 10 -42 7 -25 23 -101 39 -193 8 -51 20 -161 24 -241 1 -8 17 -7 59 2 31 8
66 16 77 18 11 2 52 12 92 21 l72 16 -4 32 c-2 18 -6 57 -9 87 -8 76 -15 128
-22 164 -4 17 -8 40 -10 51 -10 62 -61 246 -90 328 -14 40 -29 84 -34 99 -24
78 -179 399 -236 490 -13 21 -24 39 -24 42 0 12 -94 159 -345 540 -157 239
-221 377 -251 541 -1 11 -6 34 -9 50 -20 109 -28 421 -13 535 25 187 68 332
150 509 34 74 96 185 120 216 4 6 26 35 48 65 63 87 148 179 228 250 41 36 79
70 86 76 81 76 424 259 519 278 7 2 37 10 68 20 60 18 77 22 154 36 28 5 66
12 85 16 57 10 352 12 416 3 32 -5 70 -11 84 -13 61 -9 106 -18 120 -23 8 -4
17 -7 20 -8 3 0 30 -7 60 -14 167 -42 418 -171 580 -299 69 -55 231 -220 287
-292 180 -234 294 -503 339 -800 11 -74 12 -401 2 -465 -20 -123 -44 -240 -48
-240 -1 0 -3 -9 -5 -21 -11 -55 -80 -199 -150 -313 -21 -33 -130 -196 -135
-201 -16 -16 -209 -314 -269 -415 -39 -66 -76 -127 -81 -135 -36 -59 -165
-335 -199 -425 -73 -198 -143 -479 -117 -469 6 2 22 5 36 8 36 6 264 58 268
61 3 2 39 124 47 155 2 8 11 35 20 60 9 25 20 59 25 75 6 17 14 39 19 50 5 11
17 38 26 60 27 64 144 295 163 324 10 14 24 39 32 56 8 16 108 169 221 340
240 362 276 421 325 534 35 82 77 214 89 280 3 19 7 37 9 40 2 3 7 33 11 66 3
33 10 87 14 120 9 62 7 421 -2 465 -3 14 -9 48 -13 75 -4 28 -8 55 -10 60 -1
6 -4 21 -7 35 -3 14 -10 45 -16 70 -7 25 -14 54 -16 64 -38 162 -208 505 -321
645 -140 175 -255 289 -399 396 -44 33 -81 63 -83 68 -2 4 -7 7 -11 7 -5 0
-48 24 -97 53 -49 29 -129 71 -179 94 -86 39 -277 108 -327 117 -12 2 -41 9
-63 15 -22 6 -58 13 -80 17 -22 3 -51 7 -65 10 -76 12 -422 27 -433 18z"/>
<path d="M1085 6376 c-68 -41 -93 -122 -59 -189 31 -59 43 -66 274 -147 80
-28 154 -55 165 -60 32 -14 224 -82 229 -81 3 0 20 -6 38 -13 73 -31 160 -1
194 67 30 56 15 137 -32 178 -23 20 -94 47 -503 194 -212 77 -251 84 -306 51z"/>
<path d="M7162 6385 c-24 -7 -58 -20 -76 -29 -19 -9 -37 -16 -40 -16 -4 0
-112 -38 -240 -85 -128 -47 -237 -85 -242 -85 -19 0 -84 -52 -98 -78 -42 -82
-10 -173 75 -209 30 -13 107 -10 135 5 10 6 84 34 164 62 80 28 195 70 255 92
61 22 115 41 120 42 6 2 27 10 49 19 21 9 41 17 45 17 10 0 38 35 54 67 32 62
-2 165 -63 194 -38 17 -90 19 -138 4z"/>
<path d="M3593 5485 c-35 -6 -63 -10 -63 -9 0 10 -143 -72 -181 -103 -45 -37
-106 -113 -133 -165 -22 -42 -55 -150 -64 -208 -14 -95 -5 -209 24 -300 18
-57 96 -210 106 -210 4 0 8 -4 8 -10 0 -5 10 -20 23 -32 12 -13 42 -48 67 -77
25 -30 59 -69 75 -87 17 -17 63 -69 104 -114 110 -121 612 -630 622 -630 15 0
197 168 379 350 176 177 266 274 376 408 10 13 28 34 39 46 11 12 34 39 50 60
17 21 38 48 49 60 62 71 117 156 131 206 1 3 4 12 8 20 15 38 29 125 30 182 2
187 -66 357 -191 477 -123 118 -268 165 -423 135 -61 -11 -149 -48 -187 -77
-26 -21 -152 -151 -152 -157 0 -4 -11 -20 -25 -36 -14 -16 -35 -44 -46 -62
-24 -37 -22 -37 -79 39 -184 245 -345 332 -547 294z"/>
<path d="M5129 2116 c-2 -2 -17 -7 -34 -9 -35 -7 -16 -2 -265 -62 -200 -48
-296 -71 -340 -81 -32 -7 -324 -77 -410 -98 -28 -7 -155 -37 -170 -41 -8 -1
-33 -8 -55 -13 -22 -6 -53 -13 -70 -16 -16 -3 -75 -17 -130 -30 -55 -14 -112
-27 -125 -30 -14 -2 -26 -5 -27 -7 -2 -1 -6 -2 -10 -3 -53 -13 -88 -21 -142
-32 -14 -3 -28 -7 -31 -9 -4 -2 -22 -7 -40 -10 -18 -3 -37 -8 -41 -11 -4 -2
-8 -76 -8 -164 0 -121 2 -158 12 -155 19 6 189 46 217 51 14 3 43 10 65 16 22
6 49 13 60 15 11 2 58 13 105 24 46 12 89 22 95 24 5 1 21 5 35 8 38 10 192
47 215 51 11 3 52 12 90 21 39 9 78 19 88 21 9 2 26 6 37 9 11 3 28 7 38 9 9
2 67 16 127 30 61 15 119 28 130 31 11 2 97 23 190 45 94 22 179 43 190 45 11
2 22 5 25 6 3 1 10 3 15 3 6 1 51 12 101 25 l91 22 -1 156 c-1 142 -7 178 -27
159z"/>
<path d="M5139 1446 c-2 -2 -74 -21 -159 -41 -85 -20 -163 -38 -172 -41 -10
-2 -26 -6 -35 -8 -10 -2 -116 -27 -235 -56 -120 -28 -226 -53 -238 -55 -11 -3
-28 -7 -37 -10 -10 -2 -67 -16 -128 -30 -60 -15 -119 -29 -130 -31 -11 -3 -31
-7 -44 -10 -14 -3 -28 -7 -31 -9 -4 -2 -22 -7 -41 -10 -19 -3 -52 -11 -74 -16
-22 -6 -58 -14 -81 -19 -22 -5 -85 -20 -140 -34 -54 -14 -110 -27 -124 -29
-14 -3 -45 -10 -70 -17 -25 -7 -49 -13 -55 -14 -5 -1 -26 -6 -45 -10 -73 -16
-68 -1 -68 -176 l-1 -160 24 4 c14 3 33 7 43 10 9 3 28 7 42 10 44 9 71 15 90
21 10 3 27 8 37 10 10 2 68 15 128 30 61 14 119 28 130 30 11 2 20 4 20 6 0 1
9 3 20 4 11 2 79 17 150 35 72 17 137 33 145 35 8 2 65 15 125 30 61 15 117
28 125 30 8 2 38 9 65 15 28 6 57 13 65 15 8 2 83 20 165 40 183 44 312 75
345 81 14 2 66 15 115 28 l90 23 1 157 c1 138 -3 175 -17 162z"/>
<path d="M5055 759 c-57 -15 -235 -58 -305 -74 -8 -1 -35 -8 -60 -15 -25 -7
-54 -14 -65 -15 -28 -5 -83 -18 -205 -49 -39 -10 -446 -105 -479 -112 -14 -3
-28 -7 -31 -9 -4 -2 -22 -7 -41 -10 -19 -3 -52 -11 -74 -16 -22 -6 -47 -12
-55 -14 -8 -2 -42 -10 -75 -18 -33 -9 -71 -18 -85 -20 -14 -3 -45 -10 -70 -17
-45 -12 -63 -16 -112 -25 -15 -3 -38 -9 -52 -15 -15 -5 -26 -8 -26 -6 0 2 -19
-2 -42 -9 l-43 -12 -2 -162 c-1 -135 1 -162 12 -157 13 5 167 43 210 52 32 6
175 40 205 49 11 3 66 16 85 19 27 6 211 50 570 137 94 22 181 43 195 45 14 3
70 17 125 31 55 13 111 27 125 29 14 3 63 14 110 25 47 12 92 22 100 24 8 2
42 10 76 19 33 8 71 17 85 19 l24 4 0 159 c0 134 -2 159 -15 160 -8 1 -46 -7
-85 -17z"/>
</g>
</svg>
