<svg width="1546" height="1272" viewBox="0 0 1546 1272" fill="none" xmlns="http://www.w3.org/2000/svg">
<path d="M887.704 228.113C957.414 201.793 1048.44 203.062 1123.15 240.42C1146.25 251.537 1168.02 264.893 1187.87 280.385C1214.57 299.817 1239.48 320.567 1262.41 342.395C1400.01 473.359 1466.66 643.103 1423.82 802.978C1380.98 962.853 1238.39 1076.53 1053.74 1121.15C1022.97 1128.59 991.041 1134.09 958.518 1137.37C869.547 1146.37 774.347 1138.92 684.737 1103.35C573.175 1059.01 504.56 984.996 424.701 909.411C364.079 852.708 306.55 806.227 242.489 751.492C140.49 664.197 93.2315 553.999 125.816 455.105C132.352 430.16 141.481 406.307 152.834 383.696C159.99 367.048 169.2 351.315 180.262 336.682C225.122 275.781 316.806 209.316 424.378 257.646C484.062 285.199 537.774 324.154 605.588 324.987C701.328 326.798 763.466 272.644 840.622 245.07C856.653 238.836 872.3 233.186 887.704 228.113Z" fill="#9FFCDC"/>
</svg>
