<svg xmlns="http://www.w3.org/2000/svg" viewBox="0 0 58 58"><defs><style>.cls-1{fill:#b384ff;}.cls-2{fill:#fff;}</style></defs><title>coalition-2</title><g id="Layer_2" data-name="Layer 2"><g id="Layer_1-2" data-name="Layer 1"><circle class="cls-1" cx="29" cy="29" r="29"/><path class="cls-2" d="M20.72,35.44l9.62-8.65a17.68,17.68,0,0,0,1.47-1.51,2.85,2.85,0,0,0,.73-2,2.36,2.36,0,0,0-.9-2,3.36,3.36,0,0,0-2.14-.73,3,3,0,0,0-2.31.91,3.7,3.7,0,0,0-.91,2.24L21,23.4a8.5,8.5,0,0,1,.8-3.33,7,7,0,0,1,1.86-2.38,7.55,7.55,0,0,1,2.7-1.4,11.2,11.2,0,0,1,3.39-.49,9.81,9.81,0,0,1,3.15.49,7,7,0,0,1,2.56,1.4A6.17,6.17,0,0,1,37.17,20a8,8,0,0,1,.62,3.25,9.07,9.07,0,0,1-.24,2.17,7,7,0,0,1-.7,1.75,7.23,7.23,0,0,1-1,1.44,15.78,15.78,0,0,1-1.29,1.3L27,36.38H38V41H20.72Z"/></g></g></svg>