<svg xmlns="http://www.w3.org/2000/svg" viewBox="0 0 266.11 239.62"><defs><style>.cls-1{fill:#9ffcdc;}.cls-2{fill:#b385ff;}.cls-3{fill:#0ff8a8;}.cls-4{fill:#5772ff;}.cls-5{fill:#0b1d38;}.cls-6{fill:none;stroke:#0b1d38;stroke-linecap:round;stroke-linejoin:round;stroke-width:0.72px;}</style></defs><title>coalition_company</title><g id="Layer_2" data-name="Layer 2"><g id="Layer_1-2" data-name="Layer 1"><ellipse class="cls-1" cx="134.79" cy="114.17" rx="100.14" ry="103.78"/><path class="cls-2" d="M149.24,196a43.65,43.65,0,0,0-6.38-.27,29.5,29.5,0,0,0-10.55,1.82,28.2,28.2,0,0,0-4.3,2.2,10,10,0,0,0-3.19,2.46c-1.39,1.81-1.87,4.52-1.15,5,.22.16.54.06,3.08-1.5,1.46-.89,3-2,3.12-1.82s-2.15,2.53-3.94,4.21c-3,2.81-3.3,2.67-4.26,3.77-3.31,3.78-3.4,9.62-2.62,9.9s1.51-3.52,5.69-7.48a20.21,20.21,0,0,1,5.27-3.79c0,.05-.29.36-1.56,1.52-2.34,2.14-3.53,3.21-4.22,4a16.53,16.53,0,0,0-3.2,4.65c-.66,1.53-1.46,4.07-.86,4.45s1.79-.95,3.68-2.86c2.07-2.09,2.22-2.77,3.89-4.32a13.16,13.16,0,0,1,3.83-2.72,32.63,32.63,0,0,1-2.62,2.68c-2,2.11-3.56,3.86-4.36,6.44-.16.53-.67,2.16-.23,2.43s1-.44,5.65-5.26a32.54,32.54,0,0,1,3.71-3.43,28.17,28.17,0,0,0-5.44,5.57c-.93,1.23-1.81,2.41-1.51,2.81.45.61,3.49-.69,5.51-2.23.53-.4,1.13-.92,2.36-1.81s1.57-1.06,3.3-2.45c2.8-2.24,3.87-3.49,8.25-7.46l7.22-6.59a12.77,12.77,0,0,1-3.14-4.69A15.23,15.23,0,0,1,149.24,196Z"/><path class="cls-3" d="M121,197c3.14,1.75,8.29,3.26,8.46,4.33a7.79,7.79,0,0,0,.17,1.86,6.57,6.57,0,0,0,2.24,3c1.68,1.53,2.64,2.27,3.32,2.86,1.21,1.05,2.37,2.93,4.91,6.46,2,2.81,2.8,4.13,2.36,4.77-.58.87-3.1,0-3.25.59-.07.25.39.48,1.09,1.24.22.24,1.6,1.75,1.33,2.23-.4.7-4.27-1.08-4.48-.61-.05.12.2.29.68,1s.85,1.2.73,1.42c-.2.39-1.77,0-3-.53-1.59-.68-2.85-1.66-2.93-1.54s.25.26.38.72a1.26,1.26,0,0,1,0,.88c-.36.51-1.88,0-2.25-.15-.82-.29-11.15-4-14.32-10.55h0c-.28-.58-2.89-5.64-3.35-6.43-2-3.5-11-8.13-12.36-8.81L109.08,185c1.35,1.63,3.33,3.93,5.88,6.53C118.08,194.68,119.65,196.27,121,197Z"/><path class="cls-4" d="M262.59,126.22c3.38,23.95.48,39,.16,59.28-.45,29.06,7.51,37.67.37,46.33-5.91,7.18-15.68,7.41-31,7.77-3,.07-40.66.65-45.35-14.49-.63-2-.63-5.53-.62-12.54,0-5.95.37-10.84.7-14.15-11.13,4.47-20.23,7.73-26.81,10-2.25.77-5.4,1.79-8.36.33-4.4-2.17-6.76-9.15-5.05-14.05s7.14-6.43,13.09-8.83a113.29,113.29,0,0,0,27.77-16.33c.47-15.56,1.7-28.4,2.85-37.81,1-8,1.61-13.06,4.56-18.7a40.54,40.54,0,0,1,16.84-16.58,60.23,60.23,0,0,1,23.88.62c6.24,1.46,13,3,18.42,8.53C260.08,111.74,261.66,119.61,262.59,126.22Z"/><path class="cls-2" d="M213,105.31c-.48-.29-2.4-1.62-2.69-6.53,0-3.81,0-7.62.08-11.43H228.8v8.51C223.12,104.1,216.3,107.32,213,105.31Z"/><path class="cls-5" d="M212.15,94.79a5.81,5.81,0,0,1-1.77-2.31,4.34,4.34,0,0,1,0-1.1q-.58-2.47-1.16-4.93c-.38-.94,0-5.74,0-12.22a8.14,8.14,0,0,1,8-8.26H223a8.14,8.14,0,0,1,8,8.26l3,12.15a22.09,22.09,0,0,1-1.78,2.14,23.67,23.67,0,0,1-13.69,6.87C214.53,96.1,213,95.46,212.15,94.79Z"/><path class="cls-2" d="M248.38,59.46c-.17,1.65-3,24.88-20.93,31.47-12.74,4.68-24.66-2.15-25.72-2.75a30.78,30.78,0,0,1-10-9.4c-7.61-11.26-5.71-24.15-4.83-30.12.95-6.39,2.07-14,7.78-20.8,7-8.33,19.29-14.06,30.76-11.06C242.74,21.31,250.09,43.43,248.38,59.46Z"/><path class="cls-4" d="M116.52,191.9c1.19,5.15-3.68,12.18-9,13-2.81.42-5.07-1-6.74-2a83.44,83.44,0,0,0-21.66-8.71,134.76,134.76,0,0,0-.7,18.31c.4,13.33,2.46,15.77.59,19.53-2.09,4.19-7.41,6.68-39.62,7-30.69.34-36-1.81-38.46-6-1.76-3.08-.79-5.2.78-18.32.51-4.29,1.14-13.27,2.41-31.23,1.63-23.14-.54-21.71,1.2-34,1.85-13,3.3-23.18,10.63-32.43,8.26-10.42,19.69-14.19,26.43-15.68h3.49c18.29,0,33.25,15.51,33.25,34.45V159.2c16.19,13.24,28.36,23.36,34.39,28.26A8.26,8.26,0,0,1,116.52,191.9Z"/><path class="cls-3" d="M53.83,113.54C46,114,38.89,102.87,38.1,101.62v-1.14c0-7.51,0-8.61,0-11.67a8.2,8.2,0,0,1,2.22-5.54A7.43,7.43,0,0,1,45.67,81h7.2a7.73,7.73,0,0,1,7.57,7.84l-.15,16c.1.56.76,4.43-1.61,6.9A6.94,6.94,0,0,1,53.83,113.54Z"/><path class="cls-5" d="M58.7,101.74c-3.45,3.32-10.62.16-12.81-.8a25.25,25.25,0,0,1-7.79-5.42v-4.3l22.34,1.42c0,2-.07,3.89-.1,5.83A6.06,6.06,0,0,1,58.7,101.74Z"/><ellipse class="cls-3" cx="50.86" cy="50.33" rx="35.85" ry="47.51" transform="translate(-1.53 1.6) rotate(-1.77)"/><path class="cls-2" d="M128.66,199.41a17.15,17.15,0,0,0-4.12,3c-2.94,2.86-4.92,6.82-4.28,7.42.47.43,2.43-1,6.36-3.74,2.46-1.74,4.77-3.59,6.67-3.22.24,0,1,.23,1.2-.07s-.32-.92-.5-1.14C132.85,200.23,130.4,199.65,128.66,199.41Z"/><path class="cls-2" d="M67.94,21.45c-8.78,2-7.6,16.07-16.77,25.77C41,57.94,20.3,61.16,12.62,52.42c-7.28-8.28-1.37-25.59,5-35A40.75,40.75,0,0,1,42.34.86C43.66.58,67.86-4.2,78.93,12.26c4.95,7.37,5,15.63,4.71,19.54a15.17,15.17,0,0,0-6.06-8.35A13.29,13.29,0,0,0,67.94,21.45Z"/><path class="cls-3" d="M190.65,34.27c1.57-1.09,9-6,18.29-3.86,2.31.52,7.17,1.62,10.47,5.75,3.71,4.64,3.21,10.09,2.06,28.87-1.14,18.56-1.08,20.92.74,23.38,5,6.72,18.42,7.93,27.17,2.74C266,81.31,267,47.59,256.17,26.22c-2.06-4-6.28-12.11-15.36-17.54a37,37,0,0,0-33.6-2c-8.72,3.82-20.5,13.25-19.12,22.26A11.19,11.19,0,0,0,190.65,34.27Z"/><path class="cls-3" d="M202.49,42.79c-.09-.21.9-.92,1.86-1.39a9.78,9.78,0,0,1,7.1-.3c2.09.73,3.74,2.1,3.62,2.37s-1.59-.58-4.38-1a17.43,17.43,0,0,0-5-.17C203.8,42.52,202.58,43,202.49,42.79Z"/><path class="cls-3" d="M195.7,42.44c.12-.23-.57-.92-1.21-1.31a4.13,4.13,0,0,0-3.75-.27c-.9.45-1.6,1.32-1.46,1.55s1-.39,2.43-.54C193.94,41.63,195.53,42.78,195.7,42.44Z"/><path class="cls-2" d="M55.93,40.14c.16.63,4.23-.72,11.29-.72,3.87,0,6,.4,6.08,0s-3-2-6.13-2.34a15.61,15.61,0,0,0-6.24.53C58.72,38.21,55.78,39.57,55.93,40.14Z"/><path class="cls-2" d="M78.34,39c.13.33,1,0,3.64,0,2,0,2.78.21,2.92-.15s-.71-1.23-1.51-1.62a3.5,3.5,0,0,0-1.91-.31C79.72,37.12,78.16,38.55,78.34,39Z"/><path class="cls-6" d="M197.49,46.32a17.37,17.37,0,0,1,.71,3.29,28.1,28.1,0,0,1-2.77,14.54c-.74,1.53-1.49,2.75-1,3.8.58,1.22,2.48,1.48,4,1.51"/><path class="cls-6" d="M75.33,49c-.85,7.32.48,11.92,1.94,14.83.72,1.42,2,3.56,1.42,5.86-.57,2.11-2.49,3.42-4.07,4.21"/><path class="cls-5" d="M191.79,72.62c.38-.43,2.1,1.85,5,2,3.47.16,5.87-2.84,6.39-2.27.35.4-.54,2-1.66,3.09a6.17,6.17,0,0,1-6.28,1.47C192.75,75.91,191.4,73.06,191.79,72.62Z"/><path class="cls-5" d="M77.93,78c-.36-.63-2,.4-5.08.48-5,.12-7.75-2.37-8.16-1.73-.56.87,3.59,6.92,8.16,6.22C76,82.43,78.45,78.84,77.93,78Z"/><ellipse class="cls-5" cx="192.07" cy="47.91" rx="1.35" ry="1.4"/><ellipse class="cls-5" cx="206.65" cy="48.18" rx="1.35" ry="1.4"/><ellipse class="cls-5" cx="66.59" cy="49.2" rx="1.35" ry="1.4"/><ellipse class="cls-5" cx="81.17" cy="49.47" rx="1.35" ry="1.4"/></g></g></svg>