<svg xmlns="http://www.w3.org/2000/svg" viewBox="0 0 319.13 292.28"><defs><style>.cls-1{fill:#9ffcdc;}.cls-2{fill:#b385ff;}.cls-3{fill:#f3f8ff;}.cls-4{fill:#5772ff;}.cls-5{fill:#0ff8a8;}.cls-6{fill:#0b1d38;}.cls-7{fill:none;stroke:#0c1d37;stroke-linecap:round;stroke-linejoin:round;stroke-width:0.5px;}</style></defs><title>experience</title><g id="Layer_2" data-name="Layer 2"><g id="Layer_1-2" data-name="Layer 1"><circle class="cls-1" cx="126.66" cy="155.66" r="100"/><rect class="cls-2" x="18.99" width="163.22" height="119.95" rx="12.51"/><rect class="cls-3" x="39.49" y="17.08" width="122.23" height="85.79" rx="6.8"/><path class="cls-2" d="M109.22,238h24.52a7.59,7.59,0,0,1,7.59,7.59v.87a7.59,7.59,0,0,1-7.59,7.59H109.22a0,0,0,0,1,0,0V238A0,0,0,0,1,109.22,238Z" transform="translate(-120.72 371.29) rotate(-90)"/><path class="cls-4" d="M98.4,292.28h53.76a3.81,3.81,0,0,0,3.82-3.81V270.38a24.4,24.4,0,0,0-22.67-24.32,12.77,12.77,0,0,1-9.55,2.95,12.23,12.23,0,0,1-6.51-2.95,24.4,24.4,0,0,0-22.66,24.32v18.09A3.8,3.8,0,0,0,98.4,292.28Z"/><ellipse class="cls-2" cx="93.05" cy="204.81" rx="5.61" ry="10.19" transform="matrix(0.96, -0.3, 0.3, 0.96, -56.44, 36.71)"/><ellipse class="cls-2" cx="157.51" cy="204.81" rx="10.19" ry="5.61" transform="translate(-84.74 294.65) rotate(-72.79)"/><ellipse class="cls-2" cx="124.94" cy="197.84" rx="30.5" ry="43.44"/><path class="cls-5" d="M26.77,234H41.35a6.2,6.2,0,0,1,6.2,6.2v4.13a6.2,6.2,0,0,1-6.2,6.2H26.77a0,0,0,0,1,0,0V234A0,0,0,0,1,26.77,234Z" transform="translate(-205.07 279.39) rotate(-90)"/><ellipse class="cls-5" cx="5.71" cy="206.15" rx="5.51" ry="8.87" transform="translate(-44.45 6.11) rotate(-12.49)"/><ellipse class="cls-5" cx="68.99" cy="206.15" rx="8.87" ry="5.51" transform="translate(-147.21 228.92) rotate(-77.51)"/><ellipse class="cls-5" cx="37.16" cy="201.14" rx="30.69" ry="39.19"/><path class="cls-4" d="M7.62,292.28H66.7a4,4,0,0,0,4-4V271.48A25.49,25.49,0,0,0,45.42,246a11.56,11.56,0,0,1-9.28,3.77A11.2,11.2,0,0,1,28.89,246a26,26,0,0,0-17.8,7.46,26,26,0,0,0-7.46,18V288.3A4,4,0,0,0,7.62,292.28Z"/><path class="cls-2" d="M68,198.14c-1.9,14.15-14.19,40.57-31.54,40.24C19.51,238.06,8,212.45,6.53,198.13a62.59,62.59,0,0,1,.88-16.35c1.6-7.18,2.52-11.29,5.66-15.11,7-8.46,19.12-8.49,24.56-8.5,4.54,0,18.77,0,25.5,9.45,1.85,2.6,2.49,5.2,3.78,10.38C66.91,178,69.32,188.25,68,198.14Z"/><path class="cls-5" d="M292.06,120.91a56.76,56.76,0,0,1,4.22-3.83c1.94-1.59,2.05-1.53,3.36-2.67,3.48-3,4.85-5.5,5.48-5.15.42.23.22,1.51,0,2.24-.39,1.25-1.07,1.53-2.16,3.37-.6,1-1,1.65-.79,1.88s.63.18,5.6-2.9c1.46-.91,2.23-1.42,3.8-2.38,4-2.44,4.25-2.33,4.31-2.26.32.38-1.25,2.68-3.24,4.5-2.87,2.61-5.69,3.36-5.56,3.77s1.9.08,3.39-.4a16,16,0,0,0,4.31-2.26c2.22-1.5,3-2.47,3.24-2.25s-.48,2.67-2.17,4.49c-2.72,2.93-6.51,3.17-6.46,3.39s2.51.1,5.38-1.14c2.67-1.16,4-2.6,4.3-2.26s-.65,2.17-2,3.51a10.19,10.19,0,0,1-3.35,2.11,27.13,27.13,0,0,1-4.31,1.14c0,.2,2,.53,4.3,0,2-.49,3.06-1.38,3.23-1.14s-1.13,2.25-3.24,3.38c-1.51.8-2.47.69-5.38,1.14a53.22,53.22,0,0,0-5.38,1.15,54.38,54.38,0,0,0-7.66,2.57,8.33,8.33,0,0,0,1-2.88,7.58,7.58,0,0,0-.13-2.08C295.44,123,292.51,121.18,292.06,120.91Z"/><path class="cls-5" d="M163.46,110.92a32.57,32.57,0,0,0-2.75-5.07c-1.48-2.24-1.69-2-2.54-3.54-1.34-2.51-1.44-4.38-2.95-4.92-.15,0-.7-.25-1,0s.07,1.36.89,3.63c.87,2.42,1.24,3.15,1.08,3.26-.32.2-2-2.41-5.43-5.48a14.89,14.89,0,0,0-3.42-2.39c-1.63-.79-3.72-1.39-3.93-1-.06.1,0,.35,2.95,2.95a20.28,20.28,0,0,1,3.93,3.93c.58.85,1.11,1.87,1,2s-.88-.9-2-2a20.22,20.22,0,0,0-5.9-3.93c-1.55-.67-3.74-1.36-3.93-1s.66.91,2,2c2.13,1.73,2.78,1.94,3.93,3,2,1.72,3.14,3.77,3,3.93s-1.19-1-3.93-2.95a10.17,10.17,0,0,0-3.93-2c-.41-.09-1.78-.39-2,0s.72,1,3,3,2.92,2.5,3.85,3.44a11.41,11.41,0,0,1,2.05,2.45c-.09.09-1.49-1.34-3.93-3a7.11,7.11,0,0,0-2-1c-1.16-.34-2.78-.45-3,0s1.64,1.36,4.24,3.41a42,42,0,0,1,4,3.65c3.54,3.34,9.05,6.91,10.44,5.72a1.18,1.18,0,0,0,.35-.91Z"/><rect class="cls-5" x="215.26" y="97.01" width="14.29" height="25.83"/><path class="cls-6" d="M222.41,103.06a9.25,9.25,0,0,0,7.14-3.66V97H215.26v2.47A9.24,9.24,0,0,0,222.41,103.06Z"/><path class="cls-2" d="M244.39,43.69c2.35,5.61,4.16,10.49,5.5,14.3,0,0,6.14,17.39,3.3,25.83-.16.47-.55,1.65-1.1,1.65,0,0-.6,0-2.2-6,0,0-2.2,9.9-3.85,10.45s-.55-8.8-.55-8.8-1.1,8.25-3.29,9.35-.55-6-.55-6c-.62,1.61-1.2,2.91-1.65,3.85A8.94,8.94,0,0,1,238.35,91a6.44,6.44,0,0,1-3.3,1.65c-5.35,1.19-13.78.67-13.78.67s-12.75-.8-14.8-2.86a19.46,19.46,0,0,1-2.2-2.75,17.32,17.32,0,0,1-1.65-3.3,14.51,14.51,0,0,0,1.1,3.85c.69,1.53,1.59,2.79,1.2,3.2-.16.18-.5.12-.65.09-2.75-.55-4.4-6.59-4.4-6.59s3.3,10.44.55,7.14c-3.49-4.19-4.35-12.35-4.4-12.64.45,3.26.75,6.48.16,6.62a.25.25,0,0,1-.16,0c-1.18-.6-6-17.43,1.24-35.17.42-1,.79-1.83,1-2.21"/><path class="cls-4" d="M294.59,134.35l-29.34,10.7a7.64,7.64,0,0,1-6.42-.55l-.05,0a7.78,7.78,0,0,1-1.43-1,81.17,81.17,0,0,1-9.11-8.51c-.65-.72-1.23-1.39-1.73-1.24-1.48.44-.37,7.41.36,15.78,1,11.78,1.58,17.71.27,20.09-6.92,12.58-40.61,13.29-48.37.55a9.39,9.39,0,0,1-.73-1.5c-1-2.73-2.06-6.46-.09-19.14a62.53,62.53,0,0,0,.82-7.95c.08-2.1.2-5.82-.67-6-.4-.09-.81.62-1.53,1.62a31.37,31.37,0,0,1-4.31,4.87l-2.25,2.5a7.62,7.62,0,0,1-5.3,2.53c-.21,0-.43,0-.64,0a7.62,7.62,0,0,1-4.77-2l-2.48-2.23L156.09,124.2a7.63,7.63,0,0,1-.58-10.8l1.53-1.7a7.63,7.63,0,0,1,10.8-.57l15.78,14.18,14.19-15.78a7.61,7.61,0,0,1,3.75-2.28,13.37,13.37,0,0,1,3.81-.34,36.06,36.06,0,0,0,3.85-.55,46.14,46.14,0,0,0,6-1.47,14.83,14.83,0,0,0,1.65,5.86c.69,1.3,3,5.69,6.05,5.5,2.43-.15,4-3.18,4.94-5a14.59,14.59,0,0,0,1.65-6.41,56.75,56.75,0,0,0,7.7,2c3.31.62,4.53.54,5.56.9h0a7.7,7.7,0,0,1,3.05,1.67l18.9,17,23.77-8.67a7.64,7.64,0,0,1,9.8,4.56l.79,2.15A7.66,7.66,0,0,1,294.59,134.35Z"/><ellipse class="cls-5" cx="222.41" cy="68.84" rx="20.89" ry="32.29"/><ellipse class="cls-5" cx="240.99" cy="68.84" rx="8.11" ry="6.49" transform="translate(102.15 277.5) rotate(-72.3)"/><ellipse class="cls-5" cx="203.72" cy="68.84" rx="6.49" ry="8.11" transform="translate(-11.29 65.18) rotate(-17.7)"/><circle class="cls-6" cx="213.73" cy="63.24" r="2.05"/><circle class="cls-6" cx="231.09" cy="63.24" r="2.05"/><path class="cls-6" d="M229.55,83.27c.7,1.55-3.37,6.62-7.69,6-3.55-.48-6.27-4.63-5.5-6,.28-.52,1-.57,5.5-.55C228.9,82.75,229.37,82.87,229.55,83.27Z"/><path class="cls-7" d="M220.76,76.12c1,.26,2.33.43,3-.27.93-.94.26-3,0-3.85-.71-2.43-1.22-6.17-.27-11.82"/><ellipse class="cls-2" cx="229.83" cy="56.89" rx="5.22" ry="1.1"/><ellipse class="cls-2" cx="215.26" cy="56.89" rx="5.5" ry="1.1"/><path class="cls-2" d="M216.36,45.89c.82.15.25,3,2.2,5.5,1.13,1.45,3,2.69,3.85,2.2,1.34-.82-1.16-5.89,0-6.6,1.57-1,8,7.24,8.79,6.6.28-.21-.17-1.3-.55-2.2a27.61,27.61,0,0,0-2.2-3.85c.2-.18,5.51,6.39,7.15,5.5,1-.52.24-3.24.55-3.3s2,4.86,3.3,12.09c1.05,5.74,1.1,8.77,1.65,8.8s1.11-1.86,2.2-10.45a20.36,20.36,0,0,0-2.2-22.53,18.91,18.91,0,0,0-9.35-7.15,16.45,16.45,0,0,0-7.69-.55,15.44,15.44,0,0,0-5.5,2.2,17.13,17.13,0,0,0-8.24,1.1c-5.95,2.42-8.55,7.73-10.45,11.54-3.93,7.89-4.59,16.85-2.75,17.59.87.35,1.95-1.52,3.3-1.1,2.32.72,2,7.14,2.75,7.15.42,0,.77-2,1.1-3.85.1-.53,1.8-9.93,2.2-9.89s-.52,5.24.52,5.57,4.73-6,6.62-10C214.72,48,215.62,45.76,216.36,45.89Z"/><circle class="cls-2" cx="209.77" cy="75.02" r="0.55"/><circle class="cls-2" cx="214.16" cy="72.28" r="0.55"/><circle class="cls-2" cx="215.81" cy="74.47" r="0.55"/><circle class="cls-2" cx="227.9" cy="71.73" r="0.55"/><circle class="cls-2" cx="232.3" cy="72.28" r="0.55"/><circle class="cls-2" cx="229.55" cy="73.93" r="0.55"/><circle class="cls-2" cx="236.15" cy="73.93" r="0.55"/><rect class="cls-5" x="47.84" y="25.81" width="41" height="10.63" rx="4.07"/><rect class="cls-2" x="124.52" y="36.44" width="27.33" height="27.33" rx="13.67"/><rect class="cls-5" x="59.23" y="49.35" width="56.94" height="5.31" rx="2.66"/><rect class="cls-5" x="59.23" y="59.22" width="56.94" height="5.31" rx="2.66"/><rect class="cls-5" x="59.23" y="69.84" width="56.94" height="5.31" rx="2.66"/><circle class="cls-2" cx="53.54" cy="52" r="2.66"/><circle class="cls-2" cx="53.54" cy="61.87" r="2.66"/><circle class="cls-2" cx="53.54" cy="72.5" r="2.66"/><path class="cls-5" d="M138.32,50.22,141,65.58a.41.41,0,0,0,.62.29l9.35-5.39a.43.43,0,0,0,.06-.69l-12-10A.42.42,0,0,0,138.32,50.22Z"/><path class="cls-2" d="M204.49,232.39h12.87a6,6,0,0,1,6,6v5.13a6,6,0,0,1-6,6H204.49a0,0,0,0,1,0,0V232.39A0,0,0,0,1,204.49,232.39Z" transform="translate(-27.04 454.92) rotate(-90)"/><ellipse class="cls-2" cx="182.02" cy="204.54" rx="5.99" ry="9.66" transform="translate(-39.93 44.21) rotate(-12.49)"/><ellipse class="cls-2" cx="213.94" cy="203.62" rx="30.49" ry="35.65"/><path class="cls-4" d="M180.42,292.28h67a5.19,5.19,0,0,0,5.2-5.19v-7.85c-.95-10.62-5.19-19-9.73-23.5-2.33-2.31-7-5.83-10.4-6.9-.95-.3-1.88-.64-2.83-1-3.39-1.08-4.09-1.13-4.73-1.88-1.17-1.4,0-2.72-.94-3.78-1.53-1.79-5.31,1.34-11.33.94-4.48-.29-7.23-2.34-8.5-.94-.9,1,.14,2.33-.95,3.78-.84,1.1-2,1.06-4.72,1.88a49.16,49.16,0,0,0-4.72,1.89,36.46,36.46,0,0,0-8.86,6c-4.59,4.24-8.69,12.77-9.73,23.5v7.85A5.19,5.19,0,0,0,180.42,292.28Z"/><path class="cls-5" d="M182.22,256.6c-.82.07-2.35-6.43-3-12.9-.87-8.14-.23-14.38-.76-14.43s-1.3,7.61-2.28,7.59-2-10.11-2.27-19c-.39-14.12-.52-21.84,3-31.12,2-5.26,4.34-11.33,10.63-15.95A29,29,0,0,1,205,165.5c3.9-1.54,12.86-4.37,22-.76,12.52,4.94,16.84,19,19.14,26.42,1.19,3.84,1.75,9.19,2.87,19.89,1.16,11,2.14,25.61.76,25.81-.92.14-2.34-6.21-3-6.07-1.27.26,2.43,21.64.76,22-.88.19-2.43-5.53-3.8-5.32-2.06.32-1.13,13.4-3,13.67-1.44.2-3.3-7.1-4.55-6.84-.71.15-.45,2.58-1.52,6.84-.58,2.3-1.33,5.28-2.28,5.31-1.87.06-3.09-11.48-4.55-11.39-.69,0-.91,2.61-2.28,9.11-1.51,7.17-2,7.58-2.28,7.6-1.88.11-4.09-14.59-5.31-14.43-.65.09,0,4.25-2.28,9.11-.93,2-2.74,4.85-3.8,4.56-1.82-.52.09-10.21-1.51-10.63s-4.92,9.52-6.84,9.11c-2.13-.47-.58-13.37-2.27-13.67-1.48-.25-3.77,9.35-5.32,9.11-1.89-.29-.71-15-2.28-15.18s-3.19,11.48-5.31,11.39c-2.52-.12-3.5-16.77-4.55-16.7C182.85,244.51,183.31,256.5,182.22,256.6Z"/></g></g></svg>