<svg xmlns="http://www.w3.org/2000/svg" viewBox="0 0 215.46 226.99"><defs><style>.cls-1{fill:#d1b6ff;}.cls-2{fill:#0ff8a8;}.cls-3{fill:#0b1d38;}.cls-4{fill:none;stroke:#0b1d38;stroke-linecap:round;stroke-linejoin:round;stroke-width:0.9px;}.cls-5{fill:#b385ff;}.cls-6{fill:#5772ff;}</style></defs><title>faq</title><g id="Layer_2" data-name="Layer 2"><g id="Layer_1-2" data-name="Layer 1"><circle class="cls-1" cx="115.46" cy="120.79" r="100"/><rect class="cls-2" x="110.81" y="84.3" width="23.04" height="36.41" rx="9.76"/><path class="cls-3" d="M128.36,102.9c-5.08,2.68-13,.25-17.55-7V91.33l23,.44V94.6C133.64,95.67,132.53,100.7,128.36,102.9Z"/><path class="cls-2" d="M41.1,121.7c-.3-1.21-1.2-2.54-3-5.22A28.9,28.9,0,0,0,31.4,109a28.28,28.28,0,0,0-3.85-2.36,9.5,9.5,0,0,0-3.5-1.35c-1.2-.13-3,0-3.2.61-.29.82,2.22,2.25,2.44,2.37,1.35.77,1.78.6,2.63,1.28,1.13.92,1.94,2.54,1.55,3-.59.69-3.47-1.71-8-3.35-6.22-2.27-12.28-1.86-12.37-1.33s5.77,2,5.72,2.16a32,32,0,0,0-7.55-.85c-.29,0-3.86.15-3.91.78-.09.92,7.27,2.2,7.18,2.67,0,.22-1.59,0-4.05.2s-4.29.38-4.5,1.1S.76,115.55,9.5,120A99.92,99.92,0,0,0,22,125.61c3.1,1.09,3.25.73,4.77,1.48,5.64,2.79,5.95,7.36,8.52,7.36C38.53,134.45,42.5,127.29,41.1,121.7Z"/><ellipse class="cls-2" cx="117.03" cy="52.3" rx="35.24" ry="45.54" transform="translate(-8.64 27.05) rotate(-12.72)"/><ellipse class="cls-2" cx="84.59" cy="62.11" rx="8.51" ry="11" transform="matrix(0.87, -0.5, 0.5, 0.87, -19.72, 50.62)"/><circle class="cls-3" cx="106.6" cy="53.92" r="1.72"/><circle class="cls-3" cx="129.85" cy="51.11" r="1.72"/><path class="cls-4" d="M121.45,50.28c-.94,8.71.84,11.86,2.69,13.11,1.17.78,2.7,1,3,2.2.41,1.63-2,3.63-3.89,5"/><path class="cls-3" d="M120.53,80.43c-1.07-2.05,1.09-5.71,3.64-5.65a3.67,3.67,0,0,1,3.38,3.29A3.88,3.88,0,0,1,124.2,82,3.59,3.59,0,0,1,120.53,80.43Z"/><path class="cls-3" d="M106.05,41.64a9.8,9.8,0,0,0-7.75,2.81C96,46.83,95.53,50,95.87,50.18s1.77-5,6.06-6.8c3.81-1.57,7.9.41,8-.08C110.05,43,108.18,41.9,106.05,41.64Z"/><path class="cls-3" d="M136.17,40.54a9.8,9.8,0,0,0-7.93-2.24c-3.23.61-5.5,2.9-5.32,3.23s4.36-3,8.88-2c4,.94,6.18,4.94,6.57,4.62S137.75,42,136.17,40.54Z"/><path class="cls-5" d="M86.5,64.91c2.68-.6-4.74-20.72,4.86-33,4.29-5.47,10.55-7.71,14.78-8.74a90.84,90.84,0,0,1,34.17,27.11,88.55,88.55,0,0,1,11.07,19c1.22-2.31,11.7-22.92,1.43-44-1.64-3.36-9-17.36-25.39-23-12.94-4.46-24-1.22-29.48.39-7.88,2.3-15.2,6.44-14.8,7.72s9.51-.6,9.76.47c.14.6-2.74,1.52-5.26,2.77-9.62,4.77-15,14.83-14,15.85.67.69,4.63-2.89,5.54-2,.73.71-1.49,3.29-3.19,8.12s-2.13,9.59-1.27,9.91,3.17-5.24,4.51-4.87-.06,5.56,1.08,11.89C81.44,59.07,85,65.24,86.5,64.91Z"/><path class="cls-2" d="M166.11,67.25c1.27-2.56-3.7-4.81-3.45-10.66.18-4.25,2.91-5.63,1.85-8.94-.75-2.34-2.33-2.32-3.53-5.6-1-2.68-.23-3.54-1.35-5-1-1.25-1.84-1-5.83-2.57-4.18-1.61-4.57-2.36-6.66-2.45-2.58-.11-5.23.89-5.23,1.74,0,.4.53.7,6,3,2.6,1.09,3.83,1.59,4,2.61a2.57,2.57,0,0,1-1,2.13c-1.42,1.2-2.93.13-4.87.89A6.12,6.12,0,0,0,142.57,47c-.27,1.76.72,3.44,2.73,6.73,2.35,3.86,3.07,4,4.44,6.7,1.88,3.74,1.09,4.64,2.43,6.25C155.48,70.67,164.58,70.34,166.11,67.25Z"/><path class="cls-6" d="M190.51,134.24c.1,7.18.1,16.12-5.4,19.83-6.25,4.2-13.19-2.61-18,.45-10.78,6.82,13.89,46.92-.2,63.75-4.67,5.58-15.4,6.5-36.91,7.73-25.49,1.46-38.23,2.19-43.77-4.29-12.38-14.48,8.55-50.14,2-53.53-3-1.55-6.74,6.09-14.91,7.66-19,3.66-48.42-31.1-41.74-48.13,1.43-3.66,5.1-7.93,8.52-7.66,3.67.29,4.67,5.65,9.79,12.35,1.57,2,10.75,14.07,17,12.78,9.06-1.86,3.87-29.71,17.89-38.34,7.35-4.52,17.39-2.16,26.06,1.48a18.87,18.87,0,0,0,23,.65c3.63-1.72,8.76-3.39,14.31-2.22,6.06,1.28,8.72,5.13,10.36,4.06,2.22-1.46-1.16-9.5-5.41-25.69-3.74-14.26-3.82-18.32-1.49-20.94s7-3.43,10.55-2.54c6.29,1.58,9,8.1,17.53,31.59C188,116.07,190.37,123.31,190.51,134.24Z"/></g></g></svg>