<svg width="205" height="279" viewBox="0 0 205 279" fill="none" xmlns="http://www.w3.org/2000/svg">
<path d="M103.63 226.35C158.858 226.35 203.63 181.579 203.63 126.35C203.63 71.1216 158.858 26.3501 103.63 26.3501C48.4014 26.3501 3.62988 71.1216 3.62988 126.35C3.62988 181.579 48.4014 226.35 103.63 226.35Z" fill="#D1B6FF"/>
<path d="M202.42 232.95C200.549 237.245 199.687 241.911 199.9 246.59C200.08 249.42 200.58 251.23 200.33 255.08C200.226 258.063 199.621 261.008 198.54 263.79C196.03 269.69 190.73 273.06 190.4 272.79C190.23 272.64 191.3 271.6 192.84 268.72C194.045 266.714 194.872 264.504 195.28 262.2C195.564 260.858 195.564 259.472 195.28 258.13C195.09 258.13 195.12 261.68 193.66 266.27C193.249 267.679 192.704 269.046 192.03 270.35C189.1 275.66 182.95 278.47 182.25 277.68C181.55 276.89 185.59 274.29 187.95 267.9C189.138 264.853 189.656 261.585 189.47 258.32C188.921 262.708 187.864 267.016 186.32 271.16C185.831 272.689 184.996 274.086 183.88 275.24C181.27 277.79 177.16 278.64 176.55 277.68C175.94 276.72 179.34 274.77 182.25 269.53C184.138 266.284 185.25 262.646 185.5 258.9C185.4 258.9 184.43 261.9 182.24 267.05C181.24 269.41 180.58 270.88 178.98 271.94C177.59 272.86 175.51 273.46 174.91 272.75C174.31 272.04 175.97 269.83 177.35 267.05C180.79 260.17 180.46 252.05 178.98 251.57C178.04 251.27 176.29 253.96 175.72 254.83C174.65 256.49 174.62 257.31 173.28 259.72C172.15 261.72 171.42 263.09 170.84 262.98C169.89 262.8 169.54 258.78 170.09 255.18C170.81 250.46 172.89 247.79 174.91 244.24C177.424 239.797 179.306 235.024 180.5 230.06C182.604 232.151 185.185 233.699 188.02 234.57C192.849 235.916 198.011 235.335 202.42 232.95Z" fill="#0FF8A8"/>
<path d="M113.83 121.24L114.64 104.16L141.5 99.25V120.4L113.83 121.24Z" fill="#0FF8A8"/>
<path d="M130.12 112.28C127.12 113.49 124.12 114.67 120.34 113.91C118.122 113.425 116.059 112.393 114.34 110.91C114.453 105.377 114.56 99.8533 114.66 94.3399L125.27 86.1899H130.93C133.738 86.2084 136.425 87.3362 138.405 89.3274C140.385 91.3186 141.498 94.0119 141.5 96.8199V104.44C138.31 107.835 134.429 110.509 130.12 112.28Z" fill="#0B1D38"/>
<path d="M158.175 73.0291C161.724 50.4192 150.43 29.866 132.948 27.1223C115.467 24.3786 98.419 40.4833 94.8703 63.0932C91.3216 85.7031 102.616 106.256 120.097 109C137.579 111.744 154.627 95.639 158.175 73.0291Z" fill="#0FF8A8"/>
<path d="M162.132 86.5334C165.317 82.3091 165.194 76.8439 161.856 74.3267C158.518 71.8094 153.229 73.1934 150.043 77.4177C146.858 81.6421 146.981 87.1073 150.319 89.6245C153.658 92.1417 158.946 90.7578 162.132 86.5334Z" fill="#0FF8A8"/>
<path d="M115.05 49.56C116.177 49.56 117.09 48.6466 117.09 47.52C117.09 46.3933 116.177 45.48 115.05 45.48C113.923 45.48 113.01 46.3933 113.01 47.52C113.01 48.6466 113.923 49.56 115.05 49.56Z" fill="#0B1D38"/>
<path d="M137.04 61.7799C138.167 61.7799 139.08 60.8666 139.08 59.74C139.08 58.6133 138.167 57.7 137.04 57.7C135.913 57.7 135 58.6133 135 59.74C135 60.8666 135.913 61.7799 137.04 61.7799Z" fill="#0B1D38"/>
<path d="M154.91 89.3199C155.584 89.3199 156.13 88.7737 156.13 88.0999C156.13 87.4261 155.584 86.8799 154.91 86.8799C154.236 86.8799 153.69 87.4261 153.69 88.0999C153.69 88.7737 154.236 89.3199 154.91 89.3199Z" fill="#0FF8A8"/>
<path d="M136.23 51.4199C136.23 50.8899 141.23 49.7399 145.4 52.0699C147.199 53.1358 148.698 54.639 149.76 56.4399C152.36 60.3599 152.85 64.6499 152.45 64.7899C152.05 64.9299 151.29 61.7199 148.02 57.9499C146.91 56.6045 145.621 55.4169 144.19 54.4199C140.04 51.6299 136.19 51.8899 136.23 51.4199Z" fill="#0B1D38"/>
<path d="M126.83 47.2201C127.27 46.9401 125.95 42.0501 121.9 39.4501C120.11 38.3735 118.077 37.768 115.99 37.6901C111.31 37.2501 107.3 38.8501 107.36 39.2801C107.42 39.7101 110.62 38.8401 115.48 39.9301C117.194 40.2706 118.853 40.8461 120.41 41.6401C124.84 43.9701 126.43 47.5001 126.83 47.2201Z" fill="#0B1D38"/>
<path d="M126.59 49.72C126.5 52.21 126.02 55.97 123.74 58.72C120.22 63 113.66 61.55 112.48 64.82C112.1 65.87 112.18 67.53 114.23 70.23" stroke="#0C1D37" stroke-width="0.88" stroke-linecap="round" stroke-linejoin="round"/>
<path d="M146.41 34.8899C144.984 38.8036 144.704 43.0424 145.6 47.1099C147.44 54.7099 153.03 56.8599 155.37 62.5899C157.25 67.1899 157.24 74.5899 148.85 87.0299C165.07 82.6499 176.75 70.1699 178.18 56.0299C178.89 49.0299 177.37 38.7699 170.03 30.7799C166.654 27.1408 162.467 24.3487 157.81 22.6299C158.673 21.5545 159.795 20.7151 161.07 20.1899C165.46 18.4499 169.7 21.5699 170.07 21.8199C169.527 20.0983 168.508 18.5653 167.131 17.3976C165.754 16.2299 164.075 15.475 162.288 15.22C160.5 14.9649 158.677 15.2201 157.029 15.9561C155.38 16.6921 153.973 17.879 152.97 19.3799C148.217 16.6767 142.944 15.0134 137.5 14.4999C133.16 14.0999 118.11 13.4999 107.36 25.0899C97.68 35.5399 98.24 48.5999 98.36 51.1499C103.794 43.9056 111.292 38.4734 119.869 35.5663C128.445 32.6592 137.701 32.413 146.42 34.8599L146.41 34.8899Z" fill="#B385FF"/>
<path d="M85.85 125.6C84.4 122.66 90.11 120.06 89.85 113.34C89.65 108.52 87.55 107.95 87.72 103.05C87.93 96.8499 91.99 92.3399 93.33 90.8599C96.12 87.7699 98.9 86.4499 103.94 84.0299C106.75 82.6899 110.21 81.0299 110.94 81.9499C111.67 82.8699 109.57 86.7999 106.58 89.3299C104.39 91.1999 102.1 92.0099 102.2 93.5199C102.241 93.8365 102.351 94.14 102.524 94.4082C102.697 94.6764 102.928 94.9025 103.2 95.0699C104.13 95.6799 105.03 95.0699 106.41 95.1699C107.777 95.337 109.044 95.9691 110 96.9599C111.523 98.4604 112.405 100.493 112.46 102.63C112.6 105.38 111.46 107.39 109.84 110.06C107.93 113.3 106.39 114.49 104.74 117.77C102.57 122.07 103.48 123.11 101.94 124.96C98.09 129.5 87.61 129.16 85.85 125.6Z" fill="#0B1D38"/>
<path d="M116.635 82.1061C117.561 79.7108 116.27 76.9794 113.751 76.0055C111.232 75.0315 108.44 76.1837 107.513 78.5789C106.587 80.9742 107.878 83.7056 110.397 84.6796C112.916 85.6536 115.709 84.5014 116.635 82.1061Z" fill="#0B1D38"/>
<path d="M83.5 125.6C83.3248 125.359 83.1866 125.092 83.09 124.81C81.43 119.7 84.4 113.73 84.4 113.73L85.13 109.73C86.25 103.61 86.81 100.55 87.95 97.47C88.95 94.81 89.42 93.47 90.66 91.96C91.9 90.45 92.44 90.38 96.89 87.23C100.89 84.39 101.19 83.99 102.8 83.23C105.11 82.23 109.02 80.99 109.8 82.12C110.58 83.25 107.74 86.46 107.45 86.78C104.71 89.85 102.39 89.85 101.65 92.26C101.65 92.36 101 94.5 102.08 95.7C103.16 96.9 105.17 95.81 107.45 96.77C108.423 97.2675 109.274 97.9735 109.943 98.8378C110.612 99.7021 111.082 100.703 111.32 101.77C112.19 105.49 109.67 109 107.45 112.08C103.99 116.91 102.51 118.64 102.51 118.64C101.923 119.227 101.457 119.923 101.14 120.69C100.72 121.84 100.86 122.69 100.19 123.98C100.018 124.303 99.8139 124.608 99.58 124.89C97.91 126.95 86.73 130.15 83.5 125.6Z" fill="#0FF8A8"/>
<path d="M204.25 221.43C203.69 236.55 202.62 239.6 200.17 241.8C195.17 246.29 184.96 246.59 179.81 241.8C173.62 236.05 179.02 226.99 177.36 204.33C176.31 189.83 172.86 176.51 171.66 176.63C170.98 176.7 171.05 181.09 170.85 188.03C170.3 206.66 170.03 215.97 167.59 220.62C157.76 239.36 98.0699 236.62 90.1999 216.55C87.6299 209.98 89.9599 199.93 93.4599 184.78C95.4599 176.04 98.08 168.3 96.72 167.67C95.09 166.91 91.28 177.85 79.61 184.78C76.61 186.54 72.0199 189.16 65.7699 188.85C65.2699 188.85 58.07 188.39 53.5499 183.96C47.0999 177.67 46.97 164.17 55.18 152.19C63.9666 138.53 72.7666 124.863 81.58 111.19C82.2033 109.802 83.3495 108.717 84.7691 108.17C86.1886 107.623 87.7667 107.659 89.16 108.27L101.75 113.83C102.941 114.522 103.936 115.506 104.64 116.69C107.75 122.12 102.64 130.14 95.0899 142.39C79.5999 167.5 79.33 168.72 78.8 168.5C76.8 167.64 80.7299 141.16 97.5299 127.78C101.872 124.365 106.863 121.867 112.2 120.44V117.19C112.295 116.576 112.578 116.006 113.01 115.56C113.466 115.204 113.992 114.947 114.553 114.806C115.115 114.665 115.699 114.642 116.27 114.74C127.87 115.65 133.66 116.11 137.45 115.56C139.24 115.3 142.38 114.66 143.97 116.37C144.377 116.833 144.657 117.395 144.78 118V122.07C153.378 124.188 161.816 126.912 170.03 130.22C179.56 134.06 182.17 136.03 183.03 136.74C190.25 142.42 192.88 149.68 196.87 161.17C200.694 172.237 203.158 183.728 204.21 195.39C204.93 202.83 204.7 209.03 204.25 221.43Z" fill="#5772FF"/>
<path d="M39.82 76.64C60.1551 76.64 76.64 60.1551 76.64 39.82C76.64 19.4849 60.1551 3 39.82 3C19.4849 3 3 19.4849 3 39.82C3 60.1551 19.4849 76.64 39.82 76.64Z" fill="#F3F8FF" stroke="#B385FF" stroke-width="5" stroke-miterlimit="10"/>
<path d="M42.3348 39.6246L39.8704 14.5354C39.7376 13.1833 38.5338 12.1948 37.1817 12.3276L37.102 12.3355C35.7499 12.4683 34.7615 13.672 34.8943 15.0242L37.3588 40.1134C37.4916 41.4655 38.6953 42.454 40.0475 42.3211L40.1271 42.3133C41.4792 42.1805 42.4676 40.9767 42.3348 39.6246Z" fill="#B385FF"/>
<path d="M58.9215 36.8367L39.788 37.3344C38.4077 37.3703 37.3179 38.5183 37.3538 39.8986C37.3897 41.2788 38.5377 42.3686 39.918 42.3327L59.0515 41.835C60.4318 41.7991 61.5216 40.6511 61.4857 39.2709C61.4498 37.8906 60.3017 36.8008 58.9215 36.8367Z" fill="#B385FF"/>
</svg>
