<svg width="847" height="186" viewBox="0 0 847 186" fill="none" xmlns="http://www.w3.org/2000/svg">
<path d="M593.079 96.0791C593.632 96.3161 594.185 96.7112 594.738 96.7902C603.113 98.6866 606.589 102.874 606.589 111.25C606.589 123.102 606.589 134.876 606.589 146.728C606.589 148.15 606.589 149.573 606.589 151.39C609.197 151.469 611.488 151.627 613.937 151.706C615.043 154.077 614.648 155.262 611.725 155.262C604.614 155.183 597.504 155.183 590.472 155.262C587.944 155.341 587.075 154.472 587.944 151.706C589.998 151.706 592.21 151.706 594.738 151.706C594.896 150.284 595.054 149.178 595.054 148.071C595.054 135.982 595.133 123.893 595.054 111.803C595.054 107.773 595.212 103.349 590.551 101.452C585.652 99.4768 581.228 100.978 577.515 104.376C572.379 109.117 569.377 115.122 568.982 121.917C568.429 131.636 568.824 141.355 568.824 151.39C571.273 151.39 573.564 151.39 576.251 151.39C576.33 152.733 576.409 153.76 576.488 155.025C567.323 155.025 558.632 155.025 549.862 155.025C549.072 152.259 549.072 152.259 556.815 151.153C556.815 134.718 556.815 118.282 556.815 101.531C554.365 101.452 552.074 101.294 549.625 101.215C548.677 98.6866 549.309 97.8174 552.074 97.6594C557.368 97.3434 562.661 96.6322 567.955 96.0791C568.192 96.0791 568.508 96.0791 568.745 96.0791C568.745 100.741 568.745 105.403 568.745 110.065C572.695 102.795 578.305 98.1335 586.126 96.0791C588.339 96.0791 590.709 96.0791 593.079 96.0791Z" fill="black"/>
<path d="M768.16 96.0791C769.266 96.3952 770.293 96.8693 771.399 97.1063C778.273 99.0027 781.67 103.349 781.67 110.46C781.749 123.972 781.67 137.483 781.67 151.311C784.357 151.469 786.727 151.627 789.176 151.785C789.413 152.101 789.729 152.496 789.966 152.812C789.018 153.602 788.149 155.104 787.201 155.104C779.221 155.262 771.241 155.183 763.262 155.183C762.63 152.022 762.63 152.022 769.74 151.311C769.898 151.153 770.214 150.916 770.214 150.679C770.214 137.009 770.53 123.418 769.977 109.749C769.661 100.899 762.235 97.6594 754.729 102.716C747.934 107.299 744.616 114.174 744.063 121.917C743.431 131.557 743.905 141.355 743.905 151.39C746.354 151.39 748.645 151.39 751.173 151.39C751.727 153.523 752.359 155.183 749.277 155.183C741.14 155.104 733.002 155.183 724.943 155.183C724.074 152.101 724.074 152.101 731.975 151.232C731.975 134.876 731.975 118.441 731.975 101.531C729.604 101.531 727.234 101.531 724.706 101.531C723.679 98.6866 724.232 97.8174 727.076 97.6594C732.37 97.3434 737.663 96.6322 742.957 96.0791C743.194 96.0791 743.51 96.0791 743.747 96.0791C743.747 100.741 743.747 105.403 743.747 110.855C751.173 99.7138 751.332 99.7138 761.128 96.0791C763.42 96.0791 765.79 96.0791 768.16 96.0791Z" fill="black"/>
<path d="M522.13 96.0791C528.293 97.8965 534.298 99.9509 538.722 105.008C546.939 114.332 548.914 125.078 545.359 136.693C542.119 147.281 534.93 154.235 523.711 156.526C507.514 159.845 491.87 146.965 490.606 129.661C489.263 112.435 499.929 98.7656 514.546 96.6322C514.704 96.6322 514.862 96.3161 515.02 96.0791C517.39 96.0791 519.76 96.0791 522.13 96.0791ZM533.823 126.342C533.27 121.206 533.112 115.754 532.006 110.46C530.505 103.111 525.607 99.3978 518.812 99.3187C511.938 99.2397 507.198 102.795 505.46 110.144C503.011 120.89 503.09 131.873 505.302 142.619C506.961 150.679 511.701 153.997 519.523 153.76C526.318 153.602 530.9 149.573 532.243 141.75C533.191 136.851 533.349 131.794 533.823 126.342Z" fill="black"/>
<path d="M823.386 96.0791C824.335 96.3952 825.283 96.7112 826.31 96.9483C838.319 99.4768 846.22 109.354 846.062 122.154C832.551 122.154 818.962 122.154 804.978 122.154C805.057 130.135 804.346 137.641 807.269 144.832C810.034 151.706 817.698 155.262 825.52 153.444C833.341 151.627 838.714 146.965 841.953 139.617C842.427 138.431 843.691 137.641 844.956 136.93C845.509 145.385 837.845 153.918 828.364 156.052C816.829 158.58 806.637 155.973 798.499 147.439C790.124 138.668 789.334 128.159 792.969 117.255C796.603 106.509 803.556 98.8446 815.407 96.7112C815.723 96.6322 816.039 96.3161 816.276 96.0791C818.646 96.0791 821.016 96.0791 823.386 96.0791ZM832.551 117.729C832.867 111.645 833.499 105.64 827.811 101.768C823.307 98.6866 818.172 98.3706 813.273 101.057C806.795 104.613 805.057 110.618 805.294 117.729C814.38 117.729 823.307 117.729 832.551 117.729Z" fill="black"/>
<path d="M698.792 96.079C704.638 97.8174 710.564 99.4767 714.83 104.376C719.175 109.433 721.388 115.122 721.151 122.233C707.403 122.233 693.972 122.233 680.146 122.233C679.988 130.056 679.751 137.483 682.358 144.516C684.965 151.39 692.55 155.183 700.451 153.444C708.272 151.785 713.882 147.123 716.963 139.775C717.674 138.036 718.148 136.14 721.072 137.483C719.334 145.701 714.909 152.022 706.771 154.867C694.92 159.054 683.938 157.079 674.694 148.308C665.134 139.222 664.423 127.922 668.453 116.228C672.087 105.719 679.198 98.5285 690.733 96.5531C691.049 96.4741 691.365 96.158 691.681 96C694.051 96.079 696.421 96.079 698.792 96.079ZM707.561 117.729C708.904 105.561 704.48 99.3977 694.841 99.3187C686.071 99.2396 679.988 107.141 680.699 117.729C689.548 117.729 698.396 117.729 707.561 117.729Z" fill="black"/>
<path d="M464.534 96.0791C468.01 97.1063 471.645 97.8965 474.963 99.3187C480.098 101.452 483.654 105.166 484.128 110.934C484.444 114.727 482.548 118.361 479.624 119.231C476.464 120.179 473.62 119.468 471.645 116.623C469.748 113.858 470.459 109.749 473.067 106.983C475.753 104.218 475.595 103.032 471.961 101.452C462.638 97.5014 449.759 98.1335 446.757 112.988C444.861 122.47 445.019 132.031 447.073 141.592C449.68 154.077 464.929 156.763 472.277 150.837C476.069 147.755 478.676 143.172 481.916 139.301C482.785 138.273 483.891 137.562 485.234 137.088C482.232 150.126 473.62 156.921 460.978 156.921C447.152 156.921 436.328 149.099 433.168 136.14C428.743 118.52 436.881 100.583 456.949 96.7902C457.423 96.7112 457.818 96.3161 458.292 96.0791C460.346 96.0791 462.48 96.0791 464.534 96.0791Z" fill="black"/>
<path d="M610.54 101.294C609.671 98.8446 610.066 97.7383 612.831 97.7383C619.784 97.8174 626.737 97.8174 633.689 97.7383C636.296 97.6593 637.008 98.6865 636.059 101.294C633.926 101.373 631.793 101.531 628.949 101.61C633.531 115.122 638.035 128.317 642.933 142.619C647.99 128.317 652.73 115.122 657.549 101.531C654.626 101.531 652.177 101.531 649.57 101.531C648.78 99.3977 648.306 97.7383 651.387 97.7383C656.996 97.7383 662.685 97.7383 668.295 97.7383C669.48 100.425 668.848 101.768 666.003 101.373C662.527 100.82 661.342 102.558 660.315 105.561C654.626 121.759 648.701 137.799 642.933 153.997C642.301 155.736 641.827 157.158 639.299 157.079C636.929 157 636.296 155.973 635.585 154.076C630.213 138.589 624.761 123.181 619.31 107.773C617.098 101.61 617.098 101.61 610.54 101.294Z" fill="black"/>
<path d="M368.796 136.7L368.796 153.2L354.296 153.2L354.296 136.7L337.996 136.7L337.996 122.6L354.296 122.6L354.296 106.2L368.796 106.2L368.796 122.6L384.996 122.6L384.996 136.7L368.796 136.7Z" fill="#0FF8A8"/>
<path d="M137.424 122.2V87.2058H145.036V122.2H137.424Z" fill="#5772FF"/>
<path d="M182.793 122.201V109.006C182.793 106.771 182.525 105.222 181.993 104.357C181.461 103.492 180.507 103.058 179.139 103.058C177.569 103.058 176.492 103.484 175.911 104.331C175.326 105.182 175.036 106.67 175.036 108.804V122.201H167.776V109.006C167.776 106.771 167.508 105.222 166.975 104.357C166.443 103.492 165.489 103.058 164.121 103.058C162.552 103.058 161.474 103.484 160.894 104.331C160.309 105.182 160.019 106.67 160.019 108.804V122.201H152.758V96.6575H160.019V99.006C161.619 97.0394 163.576 96.0562 165.876 96.0562C169.012 96.0562 171.149 97.2414 172.288 99.6074C174.025 97.2414 176.694 96.0562 180.3 96.0562C183.405 96.0562 185.81 96.8243 187.512 98.3564C189.214 99.8884 190.067 102.57 190.067 106.403V122.201H182.793Z" fill="#5772FF"/>
<path d="M209.635 122.802C207.432 122.802 205.743 122.051 204.578 120.554V128.904L197.318 132.152V96.6612H204.578V98.4127C205.712 96.8456 207.432 96.0642 209.736 96.0642C212.942 96.0642 215.501 97.2231 217.423 99.5408C219.345 101.859 220.303 105.164 220.303 109.462C220.303 113.562 219.301 116.81 217.3 119.211C215.295 121.603 212.74 122.802 209.635 122.802ZM208.483 115.805C209.916 115.805 211.038 115.247 211.838 114.132C212.639 113.017 213.039 111.459 213.039 109.457C213.039 105.19 211.517 103.057 208.483 103.057C206.847 103.057 205.545 103.575 204.578 104.607V114.154C204.78 114.589 205.229 114.971 205.932 115.304C206.632 115.638 207.485 115.805 208.483 115.805Z" fill="#5772FF"/>
<path d="M241.038 122.201V120.3C239.503 121.969 237.384 122.798 234.679 122.798C231.843 122.798 229.53 122.074 227.744 120.625C225.959 119.177 225.066 117.1 225.066 114.401C225.066 111.767 226.1 109.743 228.171 108.325C230.242 106.907 232.661 106.201 235.431 106.201C237.837 106.201 239.705 106.499 241.038 107.101V105.7C241.038 104.533 240.669 103.642 239.939 103.027C239.204 102.412 238.184 102.101 236.882 102.101C234.112 102.101 231.372 103.001 228.668 104.8L226.416 99.2519C229.556 97.1185 233.21 96.0518 237.384 96.0518C244.626 96.0518 248.25 99.3835 248.25 106.051V122.197H241.038V122.201ZM236.078 116.705C237.88 116.705 239.534 116.104 241.033 114.906V112.605C239.697 112.206 238.245 112.004 236.676 112.004C233.672 112.004 232.168 112.82 232.168 114.453C232.173 115.955 233.474 116.705 236.078 116.705Z" fill="#5772FF"/>
<path d="M265.976 122.803C262.335 122.803 259.433 121.622 257.265 119.251C255.092 116.885 254.01 113.619 254.01 109.454C254.01 105.354 255.105 102.096 257.291 99.682C259.477 97.2677 262.375 96.0562 265.981 96.0562C271.79 96.0562 275.528 98.7207 277.199 104.054L270.286 106.302C269.45 104.102 268.047 103.001 266.077 103.001C264.71 103.001 263.579 103.602 262.696 104.8C261.812 105.999 261.368 107.548 261.368 109.449C261.368 111.35 261.803 112.891 262.669 114.071C263.536 115.257 264.639 115.845 265.976 115.845C268.078 115.845 269.516 114.611 270.281 112.144L277.243 114.146C275.541 119.923 271.785 122.803 265.976 122.803Z" fill="#5772FF"/>
<path d="M291.064 122.802C286.759 122.802 284.604 120.471 284.604 115.805V103.009H281.099V96.6615H284.604V89.5633L291.816 86.113V96.6615H297.375V103.009H291.816V115.107C291.816 115.572 291.957 115.932 292.243 116.182C292.524 116.433 292.867 116.556 293.267 116.556C294.736 116.556 296.205 116.222 297.674 115.555L296.873 121.652C295.303 122.42 293.368 122.802 291.064 122.802Z" fill="#5772FF"/>
<path d="M137.173 174.811V139.816H144.785V167.463H161.61V174.811H137.173Z" fill="#5772FF"/>
<path d="M180.19 174.811V172.91C178.655 174.578 176.535 175.408 173.831 175.408C170.995 175.408 168.681 174.683 166.896 173.235C165.111 171.786 164.218 169.71 164.218 167.01C164.218 164.376 165.251 162.353 167.323 160.935C169.394 159.517 171.813 158.81 174.583 158.81C176.988 158.81 178.857 159.109 180.19 159.71V158.31C180.19 157.142 179.82 156.251 179.09 155.636C178.356 155.022 177.336 154.71 176.034 154.71C173.264 154.71 170.524 155.61 167.82 157.41L165.568 151.861C168.708 149.728 172.362 148.661 176.535 148.661C183.778 148.661 187.402 151.993 187.402 158.661V174.806H180.19V174.811ZM175.234 169.31C177.037 169.31 178.69 168.709 180.19 167.51V165.21C178.853 164.811 177.402 164.609 175.832 164.609C172.828 164.609 171.324 165.425 171.324 167.058C171.329 168.56 172.63 169.31 175.234 169.31Z" fill="#5772FF"/>
<path d="M206.381 175.408C204.243 175.408 202.674 174.556 201.671 172.858V174.807H194.411V141.963L201.671 138.715V151.111C202.841 149.478 204.543 148.662 206.781 148.662C209.85 148.662 212.388 149.878 214.393 152.309C216.394 154.741 217.396 157.977 217.396 162.006C217.396 166.273 216.411 169.57 214.441 171.905C212.471 174.245 209.784 175.408 206.381 175.408ZM205.58 168.411C207.049 168.411 208.175 167.845 208.962 166.712C209.745 165.58 210.141 164.012 210.141 162.015C210.141 159.983 209.749 158.416 208.962 157.318C208.179 156.216 207.049 155.668 205.58 155.668C203.878 155.668 202.577 156.216 201.675 157.318V166.817C202.506 167.88 203.808 168.411 205.58 168.411Z" fill="#5772FF"/>
<path d="M232.023 175.408C229.92 175.408 227.898 174.964 225.963 174.082C224.028 173.2 222.541 172.023 221.508 170.557L226.165 166.606C226.864 167.304 227.766 167.954 228.869 168.555C229.969 169.157 231.09 169.455 232.225 169.455C234.595 169.455 235.778 168.788 235.778 167.453C235.778 166.852 235.47 166.36 234.85 165.978C234.23 165.597 233.091 165.087 231.42 164.455C228.249 163.389 225.945 162.247 224.507 161.031C223.074 159.815 222.352 158.108 222.352 155.909C222.352 153.674 223.263 151.91 225.083 150.61C226.904 149.311 229.164 148.661 231.869 148.661C235.743 148.661 238.944 150.079 241.482 152.91L236.776 156.76C235.206 155.329 233.57 154.609 231.869 154.609C229.863 154.609 228.865 155.158 228.865 156.26C228.865 157.291 230.532 158.226 233.874 159.06C235.074 159.46 236.068 159.837 236.855 160.184C237.638 160.535 238.5 161.036 239.432 161.685C240.365 162.335 241.077 163.143 241.561 164.108C242.044 165.074 242.286 166.194 242.286 167.458C242.286 169.956 241.358 171.909 239.507 173.305C237.656 174.71 235.158 175.408 232.023 175.408Z" fill="#5772FF"/>
<path d="M71.3114 72.6363C72.7802 70.7488 73.8795 69.0587 75.2164 67.676C79.7106 63.0361 86.6147 63.317 90.9375 68.2027C95.2075 73.027 95.8011 81.1084 91.6895 86.0161C85.3219 93.9834 79.8294 100.024 71.0255 107.793C71.0651 107.824 57.8198 94.8658 51.6501 87.2804C45.7487 80.0242 47.5121 68.7339 55.3968 65.3143C59.8998 63.3609 64.0423 64.3003 67.6043 68.0491C68.8136 69.3265 69.8514 70.8146 71.3114 72.6363Z" fill="#5772FF"/>
<path d="M71.3116 33.0586C47.0109 33.0586 27.2441 52.7903 27.2441 77.0477C27.2441 84.9141 28.7965 91.5074 31.8615 96.6434C33.0928 98.7065 34.5528 100.897 36.1007 103.224C42.1913 112.358 49.7726 123.732 50.5905 138.17L50.6653 139.469L57.222 137.994L57.156 137.051C56.0083 121.147 47.6926 108.671 41.6152 99.5581C40.1157 97.3106 38.6997 95.186 37.5563 93.2633C35.1113 89.1589 33.8712 83.7069 33.8712 77.0477C33.8712 56.4381 50.6697 39.6695 71.316 39.6695C91.9623 39.6695 108.761 56.4381 108.761 77.0477C108.761 83.7069 107.521 89.1589 105.076 93.2633C103.893 95.243 102.402 97.4467 100.806 99.7952C95.4451 107.688 88.7785 117.512 86.3819 129.856L86.0608 131.511L93.1276 129.922L93.2859 129.254C95.7266 119.057 101.584 110.436 106.289 103.504C107.93 101.086 109.482 98.7987 110.766 96.6477C113.831 91.5074 115.383 84.9141 115.383 77.0521C115.383 52.7903 95.6122 33.0586 71.3116 33.0586Z" fill="#5772FF"/>
<path d="M137.186 44.5293L123.197 49.6126C121.478 50.2359 120.594 52.1323 121.218 53.8486C121.843 55.565 123.743 56.4473 125.462 55.824L139.451 50.7407C141.17 50.1174 142.054 48.221 141.429 46.5047C140.805 44.7883 138.905 43.906 137.186 44.5293Z" fill="#5772FF"/>
<path d="M111.421 10.0783C109.763 9.30569 107.793 10.0212 107.019 11.6761L100.727 25.1437C99.9526 26.7986 100.669 28.7652 102.327 29.5378C103.985 30.3104 105.955 29.5949 106.729 27.94L113.022 14.4724C113.796 12.8175 113.079 10.8509 111.421 10.0783Z" fill="#5772FF"/>
<path d="M71.3114 0C69.4821 0 68.0001 1.47933 68.0001 3.30544V18.1646C68.0001 19.9907 69.4821 21.47 71.3114 21.47C73.1408 21.47 74.6228 19.9907 74.6228 18.1646V3.30544C74.6228 1.47933 73.1408 0 71.3114 0Z" fill="#5772FF"/>
<path d="M41.9012 25.1484L35.6084 11.6808C34.8345 10.0259 32.8644 9.31033 31.2065 10.0829C29.5486 10.8555 28.8319 12.8221 29.6058 14.477L35.8986 27.9446C36.6726 29.5995 38.6427 30.315 40.3006 29.5424C41.954 28.7699 42.6708 26.8033 41.9012 25.1484Z" fill="#5772FF"/>
<path d="M3.17655 50.7407L17.165 55.824C18.8845 56.4473 20.7842 55.565 21.4086 53.8486C22.0331 52.1323 21.1492 50.2359 19.4297 49.6126L5.44127 44.5293C3.72184 43.906 1.82212 44.7883 1.19767 46.5047C0.568831 48.221 1.45713 50.1174 3.17655 50.7407Z" fill="#5772FF"/>
<path d="M50.0537 156.313L92.5732 146.168V139.052L50.0537 149.197V156.313Z" fill="#5772FF"/>
<path d="M50.054 171.256L92.5735 161.115V154L50.054 164.14V171.256Z" fill="#5772FF"/>
<path d="M50.054 186L92.5735 175.86V168.744L50.054 178.889V186Z" fill="#5772FF"/>
</svg>
