<svg xmlns="http://www.w3.org/2000/svg" viewBox="0 0 293.48 286.42"><defs><style>.cls-1{fill:#d1b6ff;}.cls-2{fill:#fff;}.cls-3{fill:#b385ff;}.cls-4{fill:#0b1d38;}.cls-10,.cls-11,.cls-13,.cls-14,.cls-15,.cls-5,.cls-8,.cls-9{fill:none;stroke-linecap:round;}.cls-11,.cls-5{stroke:#0c1d37;}.cls-10,.cls-11,.cls-5,.cls-8,.cls-9{stroke-linejoin:round;}.cls-5{stroke-width:0.83px;}.cls-6{fill:#0ff8a8;}.cls-7{fill:#5772ff;}.cls-13,.cls-8{stroke:#b385ff;}.cls-8{stroke-width:1.1px;}.cls-14,.cls-9{stroke:#0ff8a8;}.cls-9{stroke-width:1.23px;}.cls-10,.cls-15{stroke:#5772ff;}.cls-10{stroke-width:0.96px;}.cls-11{stroke-width:2.61px;}.cls-12{fill:#0c1d37;}.cls-13,.cls-14,.cls-15{stroke-miterlimit:10;stroke-width:2.32px;}</style></defs><title>mentorship</title><g id="Layer_2" data-name="Layer 2"><g id="Layer_1-2" data-name="Layer 1"><circle class="cls-1" cx="178.96" cy="147.49" r="100"/><polygon class="cls-2" points="126.7 164.61 197.98 158.19 199.3 212.17 174.63 241.31 127.28 220.88 126.7 164.61"/><path class="cls-3" d="M190.41,117.35c1.08-.59,2.71-1.44,4.78-2.34,1.58-.69,1.8-.7,4.51-1.83a29.29,29.29,0,0,0,5.59-2.73,27.5,27.5,0,0,0,2.2-1.73,4.41,4.41,0,0,1,1.3-1s2.32-1.22,2.9-2.57c.07-.15.55-1.27.17-1.63s-2.21,1-5.39,2.59c-1.17.58-2.43,1.21-2.58,1s1.85-2.14,3.25-3.24a52.67,52.67,0,0,0,4.81-4l.07-.07c.47-.48,2.41-2.5,2-3.21-.32-.54-1.89-.06-2.13,0-1.41.43-2,1.18-3.49,2.39-.24.19-1.67,1.15-4.52,3.07-1.29.87-1.47,1-1.5.94s3.17-3.43,5.64-5.15c.12-.08.36-.25.68-.5a11.74,11.74,0,0,0,2.59-2.65c.5-.74,1.57-2.54,1.13-3s-2.74,1.15-2.94,1.29c-.95.68-1.16,1.07-2.68,2.22-.52.4-.91.67-1.28.93-1.68,1.17-2,1.23-3.21,2.09a18.06,18.06,0,0,1-2,1.48,13,13,0,0,1,1.75-2.41l0-.06c1.23-1.48,2-2.29,3.17-3.66a10.41,10.41,0,0,0,1.41-1.93c.42-.77.81-1.47.57-1.76-.41-.49-2.46.39-3.95,1.49-.31.23-.81.71-1.8,1.67-2,1.95-3.62,3.76-4.37,4.6h0c-1.81,2.08-2.14,2.61-2.41,2.5s-.31-1.46,0-2.45c.39-1.29,1-1.55,2-3.39.56-1.06.93-1.8.65-2.15s-1.67,0-2.34.34a5.72,5.72,0,0,0-2.16,2,15.85,15.85,0,0,0-1.7,3.51c-.61,1.36-1.06,1.73-2.8,4.09-.93,1.25-2.23,3.08-3.75,5.42a7.53,7.53,0,0,1,3.83,2.06C191.29,112.56,190.5,116.89,190.41,117.35Z"/><path class="cls-3" d="M22.16,111.34c0-1,.08-2.49.18-4.29a49,49,0,0,1,.6-7c.83-3.08,2.11-4.13,1.95-6.85,0-.48-.12-1.93-.68-2-.86-.15-2.56,2.9-3.49,5.28-.74,1.89-.81,2.88-1.29,3-.2,0-.69,0-2.37-4.19-.93-2.31-1-2.85-1.92-5a10.62,10.62,0,0,0-2.79-4.26c-.57-.5-1.31-1.14-1.67-.9-.73.48.5,4.45,1.63,7a20.19,20.19,0,0,1,1.28,3.46c0,.12.67,2.52.41,2.64s-1.77-2.93-3.62-6.8A18.94,18.94,0,0,0,7.69,86.8c-.53-.62-2.33-2.74-3.2-2.27-.61.33-.55,1.78-.44,2.5.22,1.43.94,2.11,2,3.61.4.58,1,1.64,2.13,3.77.86,1.58,2.63,4.84,2.34,5s-1-.83-2.43-2.56c-2.18-2.6-2.28-3-3.38-4.07C3.09,91.31.8,89.79.31,90.26c-.1.09-.26.38.51,2,1.36,3,2.82,4.12,4.79,7,.11.16,2.34,3.45,2,3.78-.17.15-.83-.37-1.81-1.13-1.75-1.37-2-1.92-3.11-2.45-.89-.43-2.31-.83-2.6-.42-.42.61,1.73,2.74,2.48,3.5a95.07,95.07,0,0,1,10.87,14,11.33,11.33,0,0,1,3-3.2A11,11,0,0,1,22.16,111.34Z"/><rect class="cls-3" x="77.79" y="83.4" width="18.37" height="26.71"/><path class="cls-4" d="M93.65,92.59a12.49,12.49,0,0,0,2.51-1.18v-5.5H77.79v3.23C79.62,90.4,86.64,95,93.65,92.59Z"/><ellipse class="cls-3" cx="86.93" cy="53.35" rx="28.34" ry="36.73"/><ellipse class="cls-3" cx="59.04" cy="52.56" rx="6.68" ry="8.66" transform="translate(-17.25 31.85) rotate(-26.49)"/><circle class="cls-4" cx="81.55" cy="50.43" r="2.09"/><circle class="cls-4" cx="100.75" cy="50.43" r="2.09"/><path class="cls-4" d="M84.47,72.55c-.48,1.13,3.21,5,7.51,5s8-3.91,7.52-5c-.28-.65-1.89-.06-6.68,0C86.92,72.62,84.8,71.78,84.47,72.55Z"/><path class="cls-4" d="M96.16,45.83c-.38-.57,1.13-2.31,2.5-3.33a10,10,0,0,1,7.52-1.67c3.46.73,6.19,3.45,5.84,4.17s-3.42-1.26-8.35-.84C99.31,44.54,96.62,46.54,96.16,45.83Z"/><path class="cls-4" d="M87,45.83c.37-.57-1.14-2.31-2.51-3.33a10,10,0,0,0-7.51-1.67c-3.46.73-6.19,3.45-5.84,4.17s3.41-1.26,8.34-.84C83.8,44.54,86.49,46.54,87,45.83Z"/><path class="cls-5" d="M89.9,63.78c1.78,1.59,2.56,1.68,2.94,1.47,1-.55.58-3,.4-4.81a39.15,39.15,0,0,1,.83-12.52"/><path class="cls-6" d="M64.43,41.66c0-1.81-1.28-2.77-.83-3.34.61-.78,3,.94,4.17,0s-.26-3.28.84-4.17,2.55.79,4.17,0,1.07-2.7,2.51-3.34c1.73-.78,3.38,1.58,5,.83s1.06-3.74,2.5-4.17,2.59,2.09,4.17,1.67c1.32-.35,1.27-2.3,2.51-2.51s1.74,1.61,3.34,1.67,1.94-1.7,3.34-1.67c2.06.05,2.57,3.9,5,4.18,1.5.17,2-1.22,3.34-.84,1.63.47,1.5,2.78,3.34,3.34,1.14.35,1.62-.41,2.5,0,1.17.55.78,2.13,1.67,5,1,3.12,2.4,4.82,2.5,6.68.07,1.16,0,1.5,0,3.34,0,1.66.38,4.15.84,4.17S117.07,48.87,117,45c0-2.68-.59-3.35,0-5,.84-2.36,2.58-2.67,2.5-4.17-.1-1.91-3-2.1-3.34-4.18-.45-2.4,3-3.88,2.51-5.84s-3.57-1-5.85-3.34c-3-3.08-.69-7.62-3.28-9.23-2-1.23-3.7,1.15-6.73,0-3.35-1.23-3.54-5-5.85-5-2.15,0-2.66,3.23-5,3.34-2.64.12-3.4-4-6.24-4.11s-3.63,3.91-7.11,4.11c-2.85.16-4.21-2.45-5.85-1.67s-.44,4.27-2.5,5.84-5.19-.73-6.68.84.66,4.17-.84,5.84-4,.18-5,1.67,1,3.51,0,5-3.47.41-4.18,1.67c-.84,1.49,2.32,3.53,1.67,5.84S51.17,39,51.08,40.83c-.07,1.33,1.71,1.73,1.67,3.33,0,1.37-1.32,1.6-1.67,3.34s.49,3.38.83,3.34-.08-1.73.84-3.34c1.15-2,4.17-3.41,5.84-2.5.72.4,1.17,1.21,1.67,5,.8,6.11.3,9.07.84,9.18s3.16-4,2.5-8.35c-.34-2.21-1.29-3.06-.84-5S64.44,43.45,64.43,41.66Z"/><path class="cls-7" d="M177.15,131.63c-11.89,7.17-17.83,10.75-21.71,10.85-2.85.07-8-1.75-18.37-5-8.52-2.69-13.17-4.48-15.23-2.36-.92,1-.78,2.14-.63,5.7,0,0,.13,2.95,0,17.53-.06,6.7.05,10.11-.84,11.88-8.39,16.78-56.9,14.48-62.61,0-.57-1.42-.39-4.09,0-9.38,1.17-15.62,4.08-24,2.59-24.57-1.32-.54-3.93,5.92-11.78,13.92-5.69,5.79-8.53,9-12.27,8.86-4.15-.12-7.4-5.28-13.92-15.62,0,0-4.36-6.92-10.49-27.29a4.23,4.23,0,0,1-.05-2.68,5,5,0,0,1,2.5-2.51c.37-.21,5-2.86,7.84-.87a4.26,4.26,0,0,1,1.35,1.66h0c4.52,6.45,4,6.23,9.18,14.24,1.88,2.88,2.14,3.33,2.82,3.42,2.17.3,4-3.58,8-10.3,4.87-8.15,7.28-12.26,10.85-15.66a30.11,30.11,0,0,1,23.37-9.19,10.78,10.78,0,0,0,18.37,0,37.69,37.69,0,0,1,7.51,0c3.63.36,9.22,1.47,21.71,8.34,4.77,2.63,8.26,4.91,10.86,6.48,15.6,9.46,14.93,10.74,18.37,10.86,5.21.18,11.18-2.62,15.85-4.81,1.71-.81,3.5-1.76,3.73-1.88,8.55-4.54,9.3-6.67,12.13-6.47,4,.28,8.12,5,7.51,8.35a4.56,4.56,0,0,1-1.07,2.16C188.53,122.18,179.12,130,177.15,131.63Z"/><path class="cls-6" d="M241.34,29.54c.41,13.73-21.87,25.87-36,30.16a67.88,67.88,0,0,1-38.28,0,49.08,49.08,0,0,1-41.77,15.09c1.27,0,16.05-.64,22-11.61a19.66,19.66,0,0,0,2.32-8.12c-5.77-3.28-16.74-10.66-17.4-20.88C131.21,17.64,157.75,3.25,178.69.54,207.3-3.17,240.83,13,241.34,29.54Z"/><line class="cls-8" x1="148" y1="176.99" x2="150.64" y2="179.36"/><line class="cls-8" x1="150.51" y1="176.86" x2="148.14" y2="179.5"/><line class="cls-9" x1="153.06" y1="178.03" x2="155.43" y2="177.9"/><line class="cls-10" x1="159.05" y1="175.79" x2="159.21" y2="178.73"/><line class="cls-10" x1="160.59" y1="177.18" x2="157.66" y2="177.34"/><path class="cls-11" d="M209.07,208.7l-82.37,8.12V164.61l82.37-7Z"/><path class="cls-11" d="M191.3,199.44l-46.84,4.62V174.37l46.84-4Z"/><path class="cls-12" d="M191.66,198.25l-47.2,4.65V181.4l47.2-4Z"/><path class="cls-12" d="M257.21,226.68a1.23,1.23,0,0,1-.66.31l-84,10.13L127.28,217.4l82.37-8.12,48,16.17A1.51,1.51,0,0,1,257.21,226.68Z"/><polyline class="cls-11" points="257.21 226.68 257.21 230.16 172.52 240.6 172.52 237.12"/><polyline class="cls-11" points="127.28 217.4 127.28 220.88 172.52 240.6"/><path class="cls-13" d="M151.24,187.81l33.65-3.48"/><path class="cls-14" d="M151.24,192.45,184.89,189"/><path class="cls-15" d="M151.24,197.09l33.65-3.48"/><path class="cls-6" d="M282.59,142.29a33.85,33.85,0,0,1-1-7c-.09-3,.27-4.73-.53-7.69-.11-.41-.27-.86-.27-.86-.4-1.21-.75-2.06-.9-2.42-1.28-3.16-1.07-4.4-2.33-5.16-.26-.16-.79-.47-1.08-.27-.66.45.65,3.08,1.08,7.32.05.45.09,1,0,1-.24,0-1.25-3.84-2-6-1.47-4.26-2.35-5.36-3-6.05-1.32-1.33-3.35-2.54-4-2-.5.39-.1,1.68,0,2,.42,1.38,1.24,1.77,2,3a9.06,9.06,0,0,1,1,3c.74,3.17,1.28,7,1,7.06s-.59-2-2-6.05-2.4-5.8-4-7.06c-.61-.47-1.89-1.43-3-1-.09,0-.87.34-1,1-.24,1.14,1.72,1.81,3,4a11.17,11.17,0,0,1,1,3c1.31,4.68,2.16,7,2,7.06s-1-2.06-3-6a12,12,0,0,0-2-3c-.75-.81-2.48-2.4-3-2s.38,2,2,7.06c1.15,3.58,1.14,4.14,2,6,1.14,2.5,2.22,3.88,2,4s-1.94-1.08-3-3c-1-1.73-.77-2.84-2-4-.17-.17-1.42-1.34-2-1-1.07.59.53,5.74,2,9.08a33.19,33.19,0,0,0,7.06,10.08,20.51,20.51,0,0,1,5.46-3A20.76,20.76,0,0,1,282.59,142.29Z"/><path class="cls-6" d="M167.9,234.89c-4.23-5.24-5.49-7.86-5.8-9.28a3.81,3.81,0,0,0-1.16-2.32c-1-.83-2.2-.61-2.32-1.16s.56-1,1.16-1.16a2,2,0,0,1,1.16,0c2,.53,3.22,2.49,3.48,2.32s-1.46-3.24-2.32-3.48a2.9,2.9,0,0,0-1.16,0c-.71.05-1,.16-1.16,0s-.18-.8,0-1.16c.62-1.26,3.05-1.17,3.48-1.16,1.61,0,4.06.66,4.64,2.32.17.47.19,1.07,0,1.16s-.82-1.45-2.32-2.32c-1.89-1.11-3.42-.77-3.48-1.16-.08-.57,3.4-2.48,5.8-1.16a5.19,5.19,0,0,1,2.32,3.48c.08.45.13,1.12,0,1.16s-.44-.91-1.16-2.32c-.86-1.69-1.33-2-1.16-2.32.34-.56,2.78-.21,4.64,1.16,2.72,2,3.66,5.7,3.48,5.8s-.13-2-1.16-2.32c-.54-.18-1.05.17-1.16,0s.48-1.1,1.16-1.16c1-.1,1.84,1.44,2.32,2.32.86,1.55,2.23,4.7,2.73,10.46a13.48,13.48,0,0,0-4.37-.5A14.15,14.15,0,0,0,167.9,234.89Z"/><path class="cls-7" d="M291.68,195.91c-1.74,5.93-3.94,8.5-11.69,20-11,16.46-11.85,19.12-12.32,21.27-1.13,5.17-1.08,10.84-1,17.14,0,5.79.49,8.18,0,13.35-.64,6.6-1,10-2.51,12.53-4.24,7-15.57,4.24-40.9,5-22.08.67-32.31,3.33-35.9-2.5-1.64-2.66-1.65-6.78-1.67-15,0-5.33.53-11.48-.84-11.78-.32-.08-.46.25-2.11,1.19a30.57,30.57,0,0,1-2.9,1.41,25,25,0,0,1-6.41,1.67H172a11,11,0,0,1-11-11V236.55a11,11,0,0,1,11-11h1.37a10.72,10.72,0,0,1,2.61.32c2.73-8.58,6.61-13.18,8.92-15.45,1.51-1.48,3.81-3.39,4.36-3.85a88.47,88.47,0,0,1,8.89-6.48c7.73-4.69,19.39-5,22.77-5h8.73c.75.06,1.6.14,2.55.25a79.39,79.39,0,0,1,8,1.31,26.76,26.76,0,0,0,13.1-.72,22.42,22.42,0,0,0,11.69-10c3.23-6.14,2.3-12.41,1.54-17.5-.84-5.65-2.31-12.35-3.15-19.14a8.42,8.42,0,0,1,1.66-6,8.15,8.15,0,0,1,5.41-3.1l8.5-1.08a8.75,8.75,0,0,1,6,1.65,8.09,8.09,0,0,1,1.3,1.38c8.78,12.19,7.11,40.47,7.11,40.47C293,188.94,292.76,192.22,291.68,195.91Z"/><path class="cls-3" d="M217.57,124.11a5.05,5.05,0,0,0-3.68,3.34,3.85,3.85,0,0,0,0,1.67,29.9,29.9,0,0,0-8.26,3.34,29.1,29.1,0,0,0-6.26,5.11c-8.56,9.14-12.64,24.39-11.18,24.94.59.23,2-2,2.75-1.67s.15,2.73,0,3.34c-1.89,7.92-.79,20,0,20,.48.05,1-4.19,1.84-4.17s1.14,4.62,2.75,11.68c2.18,9.56,3.25,10,3.68,10,1,.06,1.83-1.65,2.34-2.83,1.91,4.85,3.27,7.18,4.08,7,.61-.14.91-1.69.89-4.66,0,0,8.29,7.16,10.13,8s.74-3.27.74-3.27,7.52,5.78,8.44,5.78-1.09-4.24-.55-4.62,3.3,4.62,4.22,4.62,1.84-6.68,2.76-5.84,0,5,.91,5,4.59-9.18,4.59-7.51-.91,4.18,0,4.18,4.6-8.35,4.6-7.52.57,3.3.91,3.34c.53.06,1.33-5.68,2.36-5.66.47,0,.65,1.18,1.16,1.16s.7-.64,1.16-2.32c.78-2.83.81-4.61,1.16-4.64s.61,2.29,1.16,2.32c.92.05,2-6.32,2.32-8.12,1.15-6.75,1.34-11.53,2.32-11.6.51,0,.75,1.22,1.16,1.16.93-.14,1.14-6.67.06-13.21a51.42,51.42,0,0,0-1.84-7.51c-2.17-6.81-5-15.82-13.79-21.95-2-1.37-9-6.27-18.34-5.6a25.27,25.27,0,0,0-7.35,1.67,6,6,0,0,1,2.76-4.17c1.28-.69,2.77-.67,2.75-.84A4.31,4.31,0,0,0,217.57,124.11Z"/></g></g></svg>