<svg xmlns="http://www.w3.org/2000/svg" viewBox="0 0 282.05 214.66"><defs><style>.cls-1{fill:#d1b6ff;}.cls-2{fill:#0ff8a8;}.cls-3{fill:#0b1d38;}.cls-4{fill:#5772ff;}.cls-5,.cls-7,.cls-9{fill:none;}.cls-5,.cls-9{stroke:#0c1d37;stroke-linecap:round;stroke-linejoin:round;}.cls-5{stroke-width:1.16px;}.cls-6{fill:#b385ff;}.cls-7{stroke:#b385ff;stroke-miterlimit:10;stroke-width:0.88px;}.cls-8{fill:#fff;}.cls-9{stroke-width:1.06px;}</style></defs><title>speakers</title><g id="Layer_2" data-name="Layer 2"><g id="Layer_1-2" data-name="Layer 1"><circle class="cls-1" cx="141.68" cy="100" r="100"/><path class="cls-2" d="M127.49,147.73h30.22a9.36,9.36,0,0,1,9.36,9.36v1.07a9.36,9.36,0,0,1-9.36,9.36H127.49a0,0,0,0,1,0,0V147.73A0,0,0,0,1,127.49,147.73Z" transform="translate(-10.34 304.9) rotate(-90)"/><path class="cls-3" d="M150.52,142.49H144.2a9.28,9.28,0,0,0-5.25,2.17,8.81,8.81,0,0,0-2,2.48,9.09,9.09,0,0,0,1.58,3.5c3.37,4.46,10.93,5.11,15.13,2.32.81-.53,3.18-2.1,3.5-4.65a5,5,0,0,0,0-1.17,9.16,9.16,0,0,0-1.38-2.43s0,0,0-.05C154.09,142.49,150.84,142.48,150.52,142.49Z"/><ellipse class="cls-2" cx="179.53" cy="106.84" rx="12.4" ry="5.75" transform="translate(36.38 259.01) rotate(-77.51)"/><ellipse class="cls-2" cx="114.34" cy="106.84" rx="5.75" ry="12.4" transform="translate(-20.4 27.26) rotate(-12.49)"/><path class="cls-4" d="M180.41,214.66H114.15a4.69,4.69,0,0,1-4.7-4.7V187.67a30.05,30.05,0,0,1,27.93-30l9.32,18.56,10.48-18.56a30.05,30.05,0,0,1,27.93,30V210A4.69,4.69,0,0,1,180.41,214.66Z"/><ellipse class="cls-2" cx="147.28" cy="98.25" rx="30.85" ry="53.55"/><circle class="cls-3" cx="132.73" cy="99.42" r="2.33"/><circle class="cls-3" cx="158.34" cy="99.42" r="2.33"/><path class="cls-3" d="M138.55,128.52c-.24.3,3.28,5.82,8.15,5.82s8.39-5.52,8.15-5.82-1.62,1.48-4.66,2.33a13.42,13.42,0,0,1-7,0C140.17,130,138.7,128.34,138.55,128.52Z"/><path class="cls-5" d="M143.21,116.88c1,1.69,2.45,2.62,3.49,2.33s1.46-1.8,1.75-2.91a14.77,14.77,0,0,0,0-7c-.8-2.93-.85-8,2.32-17.46"/><path class="cls-5" d="M128.43,89.38s6.85-2.92,9.59.26"/><path class="cls-5" d="M164.8,89.38s-6.86-2.92-9.6.26"/><ellipse class="cls-6" cx="133.89" cy="106.4" rx="9.89" ry="5.82"/><ellipse class="cls-6" cx="160.67" cy="106.4" rx="9.89" ry="5.82"/><line class="cls-7" x1="142.62" y1="105.62" x2="151.94" y2="105.62"/><path class="cls-6" d="M150.23,141.32h-5.9a8.06,8.06,0,0,0-4.91,2.18c-.26.25-2.67,2.77-2,5.25,1,3.91,8.67,4.21,9.4,4.23,3.31.09,9.51-.77,10.39-4.23.62-2.47-1.76-5-2-5.25A7.48,7.48,0,0,0,150.23,141.32Z"/><path class="cls-6" d="M223.44,113.68h18a7.64,7.64,0,0,1,7.64,7.64v5.09a7.64,7.64,0,0,1-7.64,7.64h-18a0,0,0,0,1,0,0V113.68A0,0,0,0,1,223.44,113.68Z" transform="translate(112.39 360.11) rotate(-90)"/><path class="cls-3" d="M239.41,112.22h-6.32a9.24,9.24,0,0,0-5.25,2.18,8.67,8.67,0,0,0-2,2.48l.2,3.13a15.71,15.71,0,0,0,2.86,2,15.29,15.29,0,0,0,17.51-2c0-.36,0-.72,0-1.08a6.94,6.94,0,0,0-1.82-4.53A7.11,7.11,0,0,0,239.41,112.22Z"/><ellipse class="cls-6" cx="275.01" cy="79.4" rx="10.93" ry="6.79" transform="translate(138.02 330.73) rotate(-77.51)"/><ellipse class="cls-6" cx="197.02" cy="79.4" rx="6.79" ry="10.93" transform="translate(-12.51 44.49) rotate(-12.49)"/><ellipse class="cls-6" cx="236.25" cy="73.22" rx="37.83" ry="48.31"/><path class="cls-4" d="M272.66,185.56H199.83a4.91,4.91,0,0,1-4.91-4.91V159.92a31.41,31.41,0,0,1,31.14-31.4c.46.52,4.8,5.27,11.44,4.65a13.73,13.73,0,0,0,8.93-4.65,31.4,31.4,0,0,1,31.14,31.4v20.73A4.91,4.91,0,0,1,272.66,185.56Z"/><circle class="cls-3" cx="219.37" cy="72.64" r="2.33"/><circle class="cls-3" cx="250.8" cy="72.64" r="2.33"/><path class="cls-8" d="M221.7,100.58c-.3.74,5.46,5.3,12.8,5.82,9,.64,16.59-5.05,16.3-5.82s-6,2.51-15.13,2.33C227.23,102.74,222,99.9,221.7,100.58Z"/><path class="cls-5" d="M233.34,93.6c1.46-.42,3.42-1.23,4.07-2.92.89-2.31-1.26-4.8-2.32-7-1.51-3.07-2.18-8.27,2.32-17.49"/><path class="cls-2" d="M257.23,63.77c.11-.41-3.2-2.42-7-2.19-3.26.2-5.94,1.94-5.82,2.33s2.38-.52,6.43-.58S257.14,64.09,257.23,63.77Z"/><path class="cls-2" d="M212.94,63.77c-.12-.41,3.2-2.42,7-2.19,3.26.2,5.94,1.94,5.82,2.33s-2.39-.52-6.43-.58S213,64.09,212.94,63.77Z"/><path class="cls-2" d="M198.24,69.52c1,.17,2.55-4.44,5.72-13.65,2.25-6.56,3.88-12,4.93-15.82a184,184,0,0,0,23.28,1.16A184.36,184.36,0,0,0,259,38.88c1.26,3.29,3.2,8.16,5.82,14,4.51,10,7.68,17.06,9.23,16.66,1.86-.49.84-11.56-1.08-20.15-2-8.85-3.12-13.92-7-18.63-8.59-10.43-23.55-10.46-30.26-10.47-5.59,0-23.14-.05-31.44,11.64-2.28,3.21-3.07,6.41-4.65,12.8C196.58,56.81,196.61,69.25,198.24,69.52Z"/><polygon class="cls-6" points="12.33 98.51 16.57 145.09 44.1 123.92 83.27 136.62 88.56 113.33 85.39 88.98 53.63 103.8 29.27 88.98 13.39 79.45 12.33 98.51"/><path class="cls-2" d="M40.39,105.92H56.26a7.43,7.43,0,0,1,7.43,7.43v6.32a7.43,7.43,0,0,1-7.43,7.43H40.39a0,0,0,0,1,0,0V105.92a0,0,0,0,1,0,0Z" transform="translate(-64.47 168.54) rotate(-90)"/><path class="cls-3" d="M55.2,105.91H48.88a7.43,7.43,0,0,0-7.43,7.43,15.37,15.37,0,0,0,21.18,0A7.43,7.43,0,0,0,55.2,105.91Z"/><ellipse class="cls-6" cx="91.39" cy="71.59" rx="11.9" ry="7.39" transform="translate(1.72 145.33) rotate(-77.51)"/><ellipse class="cls-2" cx="14.01" cy="75.32" rx="6.72" ry="10.83" transform="translate(-15.96 4.81) rotate(-12.49)"/><ellipse class="cls-2" cx="52.04" cy="70.45" rx="37.59" ry="43.94"/><path class="cls-4" d="M93.36,179.74H10.72a6.41,6.41,0,0,1-6.41-6.41v-9.67c1.18-13.08,6.39-23.43,12-29,2.87-2.84,8.65-7.18,12.81-8.5,1.17-.37,2.33-.79,3.5-1.16,4.17-1.34,5-1.41,5.82-2.33,1.45-1.72.05-3.35,1.16-4.66,1.89-2.21,6.55,1.66,14,1.17,5.51-.37,8.91-2.89,10.48-1.17,1.1,1.21-.18,2.88,1.16,4.66,1,1.36,2.5,1.31,5.82,2.33a57.69,57.69,0,0,1,5.82,2.32,45.39,45.39,0,0,1,10.92,7.34c5.65,5.24,10.71,15.74,12,29v9.67A6.41,6.41,0,0,1,93.36,179.74Z"/><circle class="cls-3" cx="36.16" cy="70.98" r="2.12"/><circle class="cls-3" cx="67.92" cy="70.98" r="2.12"/><path class="cls-9" d="M49.39,84.74l3.18,1.06a64.4,64.4,0,0,1,.53-13.23A63.32,63.32,0,0,1,55.21,63"/><path class="cls-3" d="M78.54,60.26c.14-.8-6.49-3.69-12.93-2.11-.22.05-3,.76-3,1.33s4,.79,8,.91C75.83,60.55,78.47,60.64,78.54,60.26Z"/><path class="cls-3" d="M26.62,60.26c-.14-.8,6.48-3.69,12.92-2.11.22.05,3.06.76,3,1.33s-4,.79-7.95.91C29.32,60.55,26.69,60.64,26.62,60.26Z"/><path class="cls-3" d="M43,94.27c-.23.41,3,3.85,7.41,4.24,5.33.46,9.74-3.81,9.53-4.24s-4,2.49-9.53,2.12C46,96.1,43.24,93.91,43,94.27Z"/><path class="cls-6" d="M36.69,32.86c4.7-1.27,12.63-2.56,20.11,1.06,9.08,4.4,12.3,13.49,18,29.65s8,24.09,6.35,33.88c-2.11,12.7-5.29,19.06,1.06,20.11,1.51.25,1.37.6,1.45.67,1.67,1.54-5.62,8.6-5.68,16.27,0,6.37,4.88,12.95,8.46,12.68,2-.14,3.76-2.21,5.3-6.32,6.35-16.94,11.65-36,6.35-37.06s1.06-7.41,2.12-14.82c1.9-13.32.06-26.51-3.17-34.94C95,48.68,90.49,37.42,79,28.63c-4.55-3.49-12.13-9.31-23.3-9.53a35.78,35.78,0,0,0-21.08,6.69A27.06,27.06,0,0,0,20.8,32.86c-5.47,5.48-6.73,12.2-8.47,22.24-2.26,13.09,0,13.76-2.11,24.35-2.79,13.7-15.87,18-7.41,23.29s8.47,18,4.23,25.41c-5.28,9.24-3.24,16.8-.11,19,2.45,1.75,7-.18,9.64-2.09,8.08-5.89,7.61-18.8,7.41-24.35-.55-15.27-6.24-15.46-6.35-26.47C17.48,79.6,27.54,75.58,33.51,54A89.68,89.68,0,0,0,36.69,32.86Z"/></g></g></svg>