<svg xmlns="http://www.w3.org/2000/svg" viewBox="0 0 351.95 270.2"><defs><style>.cls-1{fill:#9ffcdc;}.cls-2{fill:#b385ff;}.cls-3{fill:#0b1d38;}.cls-4{fill:#0ff8a8;}.cls-5,.cls-7,.cls-9{fill:none;stroke:#0c1d37;}.cls-5,.cls-7{stroke-linecap:round;stroke-linejoin:round;}.cls-5,.cls-9{stroke-width:0.68px;}.cls-6{fill:#fff;}.cls-7{stroke-width:1.09px;}.cls-8{fill:#5772ff;}.cls-9{stroke-miterlimit:10;}</style></defs><title>Asset 25</title><g id="Layer_2" data-name="Layer 2"><g id="Layer_1-2" data-name="Layer 1"><circle class="cls-1" cx="167" cy="141.21" r="100"/><path class="cls-2" d="M94.71,47.12a31.7,31.7,0,0,0,2-13.51c-.25-3.15-.88-4.18-.67-7.43.34-5.42,2.47-8.66,1.35-9.46-.75-.53-2.46.36-3.38,1.35-.69.75-.91,1.52-1.35,3.38-1,4.31-1,5.36-1.35,5.4-.86.11-2.56-6.8-3.38-10.13A31.44,31.44,0,0,0,83.73,6.48C83.22,5.7,82.49,4.71,82,4.86c-.82.26-.51,3.53-.39,4.71.35,3.56,1.2,5.61,2.51,11.15.72,3,.7,3.44.6,3.48-.33.11-1.87-3.17-3-5.87-1.72-4.35-1.61-5.63-3.24-9-.29-.61-2.66-5.57-3.74-5.24-.75.22-.57,2.83-.51,3.78C74.57,12,76,14.4,77.85,19.42c1.52,4.18,2,6.6,1.91,6.63s-5.4-10.66-8.11-14.69c-.42-.62-1.11-1.57-1.5-1.43s-.34,1-.29,1.75a25.19,25.19,0,0,0,1.5,7c.25.7.86,2.29,2.08,5.46,1,2.45,1.34,3.46,1.16,3.56s-1.81-1.81-2.82-3.34A9.65,9.65,0,0,0,69,21.07c-.44-.29-1.09-.71-1.42-.49-.55.38.21,2.37.91,4.27s1.24,3.6,1.58,4.56c.67,1.91,1.07,3.12,1.2,3.51C72,35,73.93,39.4,79.17,49.14Z"/><path class="cls-2" d="M251.41,43.07a31.74,31.74,0,0,1-2-13.51c.25-3.15.88-4.18.67-7.43-.34-5.42-2.47-8.66-1.35-9.46.75-.53,2.46.36,3.38,1.35.69.74.91,1.52,1.35,3.38,1,4.3,1,5.36,1.35,5.4.86.11,2.56-6.8,3.38-10.13a31.47,31.47,0,0,1,4.22-10.25c.51-.77,1.24-1.76,1.73-1.61.83.25.51,3.52.39,4.71-.35,3.56-1.2,5.6-2.51,11.14-.72,3.05-.7,3.45-.6,3.48.33.12,1.87-3.16,3-5.86,1.72-4.35,1.61-5.63,3.24-9,.29-.61,2.66-5.56,3.74-5.23.75.22.57,2.83.51,3.78-.29,4.19-1.73,6.55-3.56,11.57-1.53,4.18-2,6.59-1.92,6.63s5.4-10.66,8.11-14.69c.42-.63,1.11-1.58,1.51-1.43s.33,1,.29,1.74a26.06,26.06,0,0,1-1.5,7.05c-.26.7-.87,2.28-2.09,5.46-.95,2.45-1.34,3.46-1.16,3.56s1.81-1.82,2.82-3.34A9.77,9.77,0,0,1,277.15,17c.44-.28,1.09-.7,1.42-.48.55.38-.21,2.36-.91,4.27s-1.24,3.59-1.58,4.56c-.67,1.9-1.07,3.12-1.2,3.51-.72,2.09-2.69,6.47-7.93,16.22Z"/><rect class="cls-2" x="161.5" y="104.87" width="21.85" height="21.84" rx="4.84"/><path class="cls-3" d="M164,114.15a10.57,10.57,0,0,1-2.51-3.31v-8.78a4.86,4.86,0,0,1,4.84-4.84h12.17a4.86,4.86,0,0,1,4.84,4.84v8.78a10.29,10.29,0,0,1-2.42,3.31C176.53,118.13,168.48,118.09,164,114.15Z"/><path class="cls-4" d="M174.93,54.09c-3.8,1.56-6.75,2.81-10.92,3.27a34,34,0,0,1-7.1,0,22.17,22.17,0,0,1-5.46-1.09A20.16,20.16,0,0,1,147,54.08q-1.87,9-3.74,18l-2.73-2.19a56.09,56.09,0,0,1,4.37-30.58,51.89,51.89,0,0,1,4.36-7.64c-.26-.12-1-.48-1.09-1.09s.69-1.32,1.09-1.64c2.21-1.73,7.54-2.91,9.29-3.28-1.92-.91-2.83-1.63-2.73-2.18q.28-1.64,12.55-1.09c-1.15-3.17-.93-4.1-.54-4.37.84-.59,2.86,1.53,6,3.28a23.39,23.39,0,0,0,8.73,2.73c-.35-1.17-.69-2.73,0-3.28,1.65-1.32,8.56,3.76,13.11,9.28a40.29,40.29,0,0,1,7.64,15.29c1.26,4.48,1.39,8.09,1.64,15.29.37,11-1.08,12.67-2.19,13.1a2.45,2.45,0,0,1-1.63,0,19.71,19.71,0,0,1-4.92-6c-4.28-8.25-1-17.11-5.46-19.11C190,48.28,189.2,48.2,174.93,54.09Z"/><ellipse class="cls-2" cx="172.42" cy="72.11" rx="27.53" ry="42.04"/><ellipse class="cls-2" cx="201.96" cy="77.54" rx="9.88" ry="5.38" transform="translate(60.97 241.61) rotate(-70.33)"/><ellipse class="cls-2" cx="142.99" cy="77.27" rx="5.38" ry="9.88" transform="translate(-12.55 30.12) rotate(-11.52)"/><path class="cls-5" d="M174.09,65.83A9.36,9.36,0,0,0,173,69.1c-.38,3,.86,5.54,2.18,8.19,1.86,3.74,3.22,4.76,2.73,6-.54,1.4-2.88,1.79-4.65,1.91"/><path class="cls-4" d="M195.13,65c-.34.29-1.38-.79-3.79-1.26-1.11-.22-2.23-.25-7.65.58-4.2.64-5.66,1-6,.55s.74-1.62,1.68-2.25,1.89-1,6.57-1.45c3-.28,4.49-.41,5.45-.1C194.17,62,195.61,64.62,195.13,65Z"/><path class="cls-4" d="M153.08,65c.34.62,2.61-.88,6.56-1.13,4.93-.3,7.87,1.63,9.28,0a1.71,1.71,0,0,0,.44-1.58c-.26-.69-1.3-1-5.35-1.15s-6.11-.21-7.65.55C154.4,62.7,152.77,64.48,153.08,65Z"/><path class="cls-6" d="M172.74,94c8.25.42,13.61-2.28,13.78-1.76s-6.44,5-14.36,4.41c-6.83-.54-12.07-4.68-11.84-5.25S165.23,93.56,172.74,94Z"/><path class="cls-7" d="M159.09,74.29s2.73-4.37,5.46,0"/><path class="cls-7" d="M182.57,74.29s2.73-4.37,5.46,0"/><path class="cls-4" d="M176,55.18a49.44,49.44,0,0,1-10.38,2.18,35.69,35.69,0,0,1-7.09,0,22.09,22.09,0,0,1-5.46-1.09,20.16,20.16,0,0,1-4.45-2.19,13,13,0,0,1-.47,6.56c-.88,2.49-2,3-2.73,6a21.63,21.63,0,0,0-.53,4.13,38.39,38.39,0,0,0,0,4.06l-3.83-7.65c-2.41-21.48,10.12-39.44,25.67-42.59,10.19-2.06,21.89,2.42,29.19,10.46,6.76,7.44,7.09,17.19,7.39,21.76a45.52,45.52,0,0,1-1.09,13.1A41.72,41.72,0,0,1,200,76.47a31.48,31.48,0,0,1-2.18-7.64c-.72-4.7.08-6.8-.55-10.38a20.25,20.25,0,0,0-4.91-9.82A111.5,111.5,0,0,1,176,55.18Z"/><path class="cls-8" d="M260.87,97.1c-.78,1.91-.77,1.77-18.24,36.48-5.16,10.27-9.6,17.75-12.15,24.32-12.89,33.1,9,52.66-1.68,70.19-14.54,24-76.45,22.12-89.06,0-4-7-4.26-18.31-4.45-26.71-.23-10.26,1.33-18.46-2.08-31.33a38.11,38.11,0,0,0-2.39-7.46c-4-8.45-11.26-12.92-21.93-29-2.87-4.34-8-15.05-18.24-36.48,0,0-3.62-7.58-12.15-36.47-1-3.27-2.3-8,0-12.16,3.12-5.66,12.15-8.71,18.23-6.08,5.56,2.4,5.44,8.14,12.16,24.32A198.07,198.07,0,0,0,121.05,91c7.62,13.26,11.43,19.89,18.24,24.32,8.16,5.31,16.89,6,22.21,6a13.72,13.72,0,0,0,21.85-1.16c4.9.85,13.17,1.45,21.06-2.73,5.12-2.7,8.12-6.58,13.91-14.24,11.86-15.67,17.79-23.51,18.24-24.31,12.33-22.29,7.12-37.45,18.23-42.56,3.14-1.44,8.43-2.47,12.16,0C278.13,43.72,268.62,78.18,260.87,97.1Z"/><path class="cls-4" d="M255.1,144.34c-16.37,6.72-23.43,30-16.68,41.7.62,1.08.91,1.27,4.69,5.21,13.1,13.67,19.63,20.56,18.76,22.94-1.14,3.15-8,3.47-11.46,3.65-8,.4-13.26-3.27-17.06-.22a9.71,9.71,0,0,0-2.23,2.82c-1.8,3.47-.68,6.69-1,6.78-1.08.25-9.08-13.75-4.69-24,.28-.66.71-1.48,1.56-3.13a122.08,122.08,0,0,1,6.78-11.47c5-7.89-2.82-17.56.52-30.75,2.32-9.19,9.67-20.46,21.37-23.46,8-2,15.12.69,18.54,2.29,2.63.09,7.94.67,12.21,4.49,3.37,3,4.42,6.54,6.26,13a56.36,56.36,0,0,1,2.6,19.29c-.35,7-2,9.73-1.7,13.16a11.94,11.94,0,0,0,.66,3c.73,2.24,1.58,3.06,3.13,5.73a50.31,50.31,0,0,1,2.61,5.21,26.8,26.8,0,0,1,2.08,5.74c.15.7.27,1.86.52,4.17.22,2,.21,2.32,0,2.6-.93,1.26-4.26-.18-6.77-.52-3-.4-7.28.46-13,5.74-5.51,2.63-10.42,2.84-12.51.52-1.25-1.39-1.25-3.43-1-5.21,1.14-9.4,9.81-16,11.47-19.29,4.67-9.18,6.82-24.32-5.18-50.29C270.63,142.57,262.88,141.14,255.1,144.34Z"/><path class="cls-2" d="M326.15,183.38a62.86,62.86,0,0,1,2.14-6.27c1.45-3.63,1.5-3.6,2.2-5.72,1.63-5,1.69-8,2.58-8,.57,0,1.15,1.19,1.35,2,.35,1.46-.33,2.25-.71,5.12-.19,1.41-.28,2.12,0,2.31.73.44,3.15-1.94,4.72-4.05,1.7-2.28,1.86-3.49,4.06-6.08.47-.56,2-2.32,2.33-2.09s-.15,1.26-1,3.44a35.56,35.56,0,0,1-2,4.73c-1.2,2.19-2.19,3.22-2,3.38s1.9-1.07,3.38-2.71c2.13-2.34,2-3.48,4.05-5.4,1.24-1.17,3-2.37,3.38-2,.13.12.18.46-1.35,3.38a39.54,39.54,0,0,1-2.7,4.73c-2.17,3.07-4.23,4.51-4.05,4.73s1.87-.59,3.37-2c1.89-1.8,2.24-3.51,4.6-5.26,1.11-.82,1.34-.67,1.38-.63.24.2-.21,1.13-.57,1.84a35.38,35.38,0,0,1-4.06,6.75c-1.69,2.15-2.85,3.21-2.7,3.38s1.76-.91,3.38-2c2.09-1.43,2.93-2.17,3.22-1.95s-.36,1.64-.52,1.95a15.33,15.33,0,0,1-4.05,4.73c-2,1.8-1.59,2-4.05,4.73a48.52,48.52,0,0,1-6.76,6.08l-.7-2.53-.55-2a8.44,8.44,0,0,0-1.33-2C330.85,183.45,326.77,183.38,326.15,183.38Z"/><rect class="cls-2" x="255.46" y="201.54" width="15.41" height="23.35" rx="7.37" transform="translate(526.33 426.43) rotate(-180)"/><path class="cls-3" d="M268.14,212.4a8.84,8.84,0,0,0,2.73-2.57c.05-3.33,0-5.78,0-6.38a2,2,0,0,0-.25-.91,2.68,2.68,0,0,0-.36-.44,2.22,2.22,0,0,0-1.48-.56H257.54a2.57,2.57,0,0,0-2.08,1.91,2.24,2.24,0,0,0,.19,1.35c-.06,1.74-.13,3.49-.19,5.23a9.49,9.49,0,0,0,1.88,1.72A10.31,10.31,0,0,0,268.14,212.4Z"/><ellipse class="cls-2" cx="262.99" cy="175.47" rx="26.88" ry="35.3"/><circle class="cls-3" cx="253.63" cy="173.31" r="1.63"/><circle class="cls-3" cx="272.36" cy="173.31" r="1.63"/><path class="cls-9" d="M259,170.14a11.7,11.7,0,0,1,2.36,6.16,7.67,7.67,0,0,1-.8,4.79c-.91,1.47-2,1.65-2.08,2.6-.08.78.49,2,3.64,3.65"/><path class="cls-4" d="M241,168.84c.29.58,3.48-1.62,8.34-1.57,4.12,0,7.32,1.68,7.94.61a1.33,1.33,0,0,0-.12-1.13c-.57-1.15-2.26-1.36-4.17-1.56a19.6,19.6,0,0,0-4.17,0,12.65,12.65,0,0,0-4.69,1C242.53,167,240.81,168.4,241,168.84Z"/><path class="cls-4" d="M282.72,168.32c-.18.55-4.31-1.6-10.36-1-3.33.33-6.07,1.39-6.52.54-.3-.57.67-1.59.73-1.65.35-.37,1.37-1.24,6.25-1a19.89,19.89,0,0,1,4.69.52C280.19,166.41,282.87,167.87,282.72,168.32Z"/><path class="cls-3" d="M262.06,193.51c-2.21-.15-2.75-.72-6-1.09-2.21-.26-3.31-.39-3.53,0-.61,1.14,3.52,6.31,9,6.93,6.39.72,12-5.13,11.49-6.4-.19-.46-2-.3-5.46,0C263.73,193.29,263.78,193.62,262.06,193.51Z"/><ellipse class="cls-2" cx="234.81" cy="178.16" rx="4.72" ry="8.22" transform="translate(-42.95 79.52) rotate(-17.64)"/><ellipse class="cls-2" cx="291.39" cy="178.16" rx="8.38" ry="5.26" transform="translate(65.35 434.2) rotate(-80)"/><path class="cls-8" d="M212.76,265.61c3.14,4.73,13.17,5.22,17,1.12,2.4-2.59,2.11-6.8,2.7-6.75s0,3.35,1,5.63c2.14,4.91,11.46,4.72,32.81,4.5,17.87-.19,27.07-.23,29.72-5.4a44.06,44.06,0,0,0,2-6.08c1.19-4.39,1.09-6.07,2-9.46a37.25,37.25,0,0,1,3.38-8.11c4.16-7.8,10.67-13,14.18-15.53,0,0,7.74-7.88,19.56-27.79a11.55,11.55,0,0,0,1.89-6.85,10.11,10.11,0,0,0-1.56-4.63c-1.92-3.11-6-6.12-9.63-5.41-2.71.52-4.31,2.9-5.36,4.4a179.24,179.24,0,0,1-13,16.83,52.88,52.88,0,0,1-22.26,13,63.17,63.17,0,0,1-7.6,1.62l-8.67.55a9.16,9.16,0,0,1-15.41-.51c-3.2.27-5.57.42-7.27.51,0,0-3,.35-5.73.91-6.77,1.36-16.36,3.3-22.64,10.49-3.49,4-4.57,8.29-6,13.57-1.13,4.25-1.31,7.84-1.69,15C211.82,263.75,212.22,264.79,212.76,265.61Z"/><path class="cls-2" d="M275.31,138l0,0h0A.11.11,0,0,0,275.31,138Z"/><path class="cls-2" d="M275.29,138h0s0,0,0,0Z"/><path class="cls-2" d="M269.72,135.73a4.5,4.5,0,0,0,.27.43,1.73,1.73,0,0,0,.23.29,2.82,2.82,0,0,0-.18-.29C269.94,136,269.84,135.87,269.72,135.73Z"/><path class="cls-2" d="M269.72,135.73a4.5,4.5,0,0,0,.27.43,1.73,1.73,0,0,0,.23.29,2.82,2.82,0,0,0-.18-.29C269.94,136,269.84,135.87,269.72,135.73Z"/><path class="cls-2" d="M262.71,137.88a1.14,1.14,0,0,0,.18.19h0s0,0,0,0,0,0,0-.12l-.13,0Z"/><path class="cls-2" d="M269.72,135.73a4.5,4.5,0,0,0,.27.43H270C269.94,136,269.84,135.87,269.72,135.73Z"/><path class="cls-2" d="M262.83,137.91a1.66,1.66,0,0,0,.06.16h0s0,0,0,0,0,0,0-.12Z"/><path class="cls-4" d="M252.49,152.16c-10.23,7.28-11.34,23.39-14.59,22.93-1.62-.22-2.42-4.33-2.61-6.77-.86-10.95,7.76-24,20.33-27.63a28.93,28.93,0,0,1,18.54,1.24,19.06,19.06,0,0,1,8.21,3.15c7.69,5.34,8.45,15,8.69,18,.63,7.91-2,15.22-3.12,15.12s.11-6.22-2.61-13.55a44,44,0,0,0-9.87-15.37C268.87,147.9,259.6,147.1,252.49,152.16Z"/><path class="cls-4" d="M247.28,223.05c-1.52-.27-2.09,2.14-5.21,3.65-.68.32-3.43,1.64-5.22.52-1.3-.82-1-2.26-2.08-2.61-1.55-.5-2.89,2.25-4.69,2.09-.76-.07-2.06-.7-3.65-5.22-1.69-4.78-3.48-9.86-1.57-16.15.93-3.05,2.72-8.94,6.78-9.91,6.11-1.46,12.52,9.37,21.42,17a8.23,8.23,0,0,1,1.52,1.74c1.92,2.91,2.35,7.46.52,8.86-1,.79-2.35.23-3.65,1.56-.56.57-.61,1-1,1C249.29,225.85,248.78,223.31,247.28,223.05Z"/><path class="cls-4" d="M291.06,223.57c-.58-.23-1.07.78-2.6,1.56-.5.26-3.44,1.69-5.21.52-1.05-.68-.65-1.59-1.57-2.08-1.77-1-4.19,2-5.73,1-1.16-.68-.61-2.81-1.57-3.13s-2.31,2.33-3.12,2.09c-1.29-.38-2.1-8.21,2.08-13,2.87-3.31,5.16-1.81,9.91-5.21,2.56-1.84,10.42-6.06,9.9-10.43-.21-1.77-1.36-2.86-1-3.13.53-.44,4.3,2.32,6.77,6.26a23.33,23.33,0,0,1,3.13,8.34c.05.35.17,1.47.52,3.46.29,1.66.5,3.12.52,3.31.35,2.52-1.11,6.46-3.65,9.39-2.3,2.66-6,5.09-7.29,4.17C291.19,226,291.91,223.89,291.06,223.57Z"/><path class="cls-4" d="M285.21,168.94h-16a4.39,4.39,0,0,0-3,1.17,9.9,9.9,0,0,1-1.44.46,9.68,9.68,0,0,1-4.37,0,9.51,9.51,0,0,1-1.44-.46,4.44,4.44,0,0,0-3-1.17H240a.86.86,0,0,0-.87.86v1.64c.22,1,.41,1.9.58,2.63a9.78,9.78,0,0,0,9.72,9.06h3.52A7.5,7.5,0,0,0,260,178s0,0,0,0l.37-.83c1.12-2.56,1.7-3.84,2.18-3.83.8,0,1.67,2.42,2.19,3.83a4.45,4.45,0,0,0,.43,1,7.49,7.49,0,0,0,7,5h3.52a9.79,9.79,0,0,0,9.73-9v0c.17-.73.35-1.6.57-2.63V169.8A.86.86,0,0,0,285.21,168.94Zm-26.43,7a6.31,6.31,0,0,1-6.29,6.29h-2.42a8.24,8.24,0,0,1-8.22-8.21v-.38a3.75,3.75,0,0,1,3.74-3.74H255a3.75,3.75,0,0,1,3.74,3.74ZM283.35,174a8.24,8.24,0,0,1-8.21,8.21h-2.43a6.31,6.31,0,0,1-6.29-6.29v-2.3a3.75,3.75,0,0,1,3.74-3.74h9.45a3.75,3.75,0,0,1,3.74,3.74Z"/><path class="cls-2" d="M137.78,147.39c.57-1.2,1.71-1.34,2.18-3a3.57,3.57,0,0,0,.1-2.11c-.5-1.56-2.1-1.65-2.12-2.62s1.45-1,2-2.7a2.5,2.5,0,0,0,0-2c-.56-1-2-.83-2-1.35s1.29-.67,1.55-1.54-.54-1.25-1.12-2.3c-1.42-2.53.19-4.38-1.11-5.62-1-.93-2.1-.13-3.38-1.35-.77-.74-.65-1.32-1.31-1.71-1.22-.71-3.11.43-3.7.76a57.37,57.37,0,0,0-22.24,22.53A60.59,60.59,0,0,0,101.18,173a1.05,1.05,0,0,0,0,.19l-.23-.08c-8.79-3.23-20.41-8.6-25.72-19.43-3.44-7-5.47-18.75-10.3-19.37a8.27,8.27,0,0,0-2.84.57c-1,.34-4.33,1.45-4.58,3.43-.16,1.21,1,1.66.67,2.7-.4,1.38-2.57,1.09-3.11,2.52-.45,1.22.88,2,.41,3.56-.34,1.12-1.13,1-1.35,2-.33,1.46,1.29,2.1,1.35,4.07,0,1.09-.46,1.05-.78,2.76-.17.85-.68,3.55.56,4.55,1,.78,2.38,0,2.92.79.14.22.11.37,0,2s-.09,1.88,0,2c.66,1,3.13.23,3.34.83s-1.87,1.4-1.71,2.28,2,.69,2.28,1.7c.19.68-.54,1-.57,2.28,0,.23,0,1.38.57,1.7s1.66-.86,2.27-.56c1.07.51-1,4.78.7,6.43.8.77,2.34.88,2.72.39s-.09-1.11,0-1.14a9.28,9.28,0,0,0,1.67,2.47c.4.35.78.69,1.25.64.88-.1,1.25-1.5,1.63-1.4s0,1.06.57,1.71,1,.31,1.7.56c2,.72,2.15,3.92,3.12,3.85.42,0,.75-.66.86-1a1.84,1.84,0,0,0,0-1.14,3.42,3.42,0,0,0,2.28,1.71c1.29.14,2.5-.95,2.84-.57.17.19-.11.49,0,1.14a2.21,2.21,0,0,0,.57,1.13c1.13,1.14,3.71.11,4-.57,0-.11,0-.18,0-1.13a6.4,6.4,0,0,1,0-1.71c.5-.28,2.43,3.54,3.82,3.2a1.74,1.74,0,0,0,.93-2c-.18-.53-.7-.83-1.52-1.31-3.39-1.95-3.89-2.26-3.86-2.37.1-.38,6.76,2,7.35.91.46-.83-3-3.44-4.72-5a1.92,1.92,0,0,0,0-1.08c1.87.72,6.15,3.29,7.2,2.34a1,1,0,0,0,.25-.81,25.89,25.89,0,0,0,3.13.63,1.21,1.21,0,0,0,.24.21c.46.3,1,.19,1.79,0h0a28.59,28.59,0,0,0,2.88.11c-3.83,3.43-4.67,4.77-4.38,5.21s1.32,0,1.71.57c.61.9-1.43,2.87-1,3.47.33.41,1.39-.41,3.37-.68,2.6-.35,3.29.7,4.73,0,1.63-.79,1.43-2.47,2.7-2.7s1.89,1.59,3.8,1.62a3.55,3.55,0,0,0,3-1.62c.61-1.06-.06-1.66.45-2.37,1-1.32,3.71.39,6.26-1.13.09-.06,1.85-1.13,1.7-2.28s-2.41-1.6-2.33-2.33,2.91-.32,4.05-2c.4-.59.49-1.52.68-3.38.08-.84.11-1.53.12-2l.08,0c1.32-.57,2.74-1.18,3.17-2,.71-1.34-1.35-2.81-.67-4.06.51-.94,1.92-.49,2.7-1.35.65-.7.86-2.29-1-6.13,2.58-.77,3.39-1.85,3.67-2.65C139.41,151.59,136.73,149.61,137.78,147.39Z"/><path class="cls-4" d="M29.5,156.21C29,154.55,28.24,152,27.05,149c-1.59-4-2.08-4.4-2.51-6.54-.89-4.34.29-7.14-.76-7.57-.74-.31-2.12.81-2.7,2s-.13,1.8-.22,4.56c-.07,2-.1,3-.51,3.16-.61.19-1.59-2-4.67-7.05A23.64,23.64,0,0,0,9.92,131c-.7-.53-1.48-1-1.81-.81-.58.43.55,2.93,1,3.83,1.24,2.73,2.47,4.12,5,8.15,1.39,2.22,1.48,2.54,1.41,2.59-.23.18-2.34-2-3.92-3.84-2.55-3-2.8-4-5-6.27-.4-.4-3.61-3.68-4.39-3.13-.52.38.32,2.4.63,3.13,1.36,3.24,3.15,4.72,6,8.2a25.36,25.36,0,0,1,3.31,4.73c-.12.1-7.16-7-10.41-9.44-.5-.38-1.3-.94-1.57-.72s0,.9.24,1.46a21.81,21.81,0,0,0,3.1,5.17c.39.49,1.3,1.58,3.13,3.76,1.41,1.68,2,2.37,1.88,2.5s-1.92-.94-3.13-1.88a8.21,8.21,0,0,0-3.14-1.88c-.42-.1-1.05-.26-1.25,0-.34.45.81,1.82,1.88,3.14,3.42,4.2,2.75,3.82,4.39,5.63a66.62,66.62,0,0,0,12,9.94,10.61,10.61,0,0,1,.76-3.89,9.32,9.32,0,0,1,1.52-2.24C24.12,156.29,28.79,156.21,29.5,156.21Z"/><rect class="cls-4" x="87.72" y="175.83" width="16.14" height="24.46" rx="7.73"/><path class="cls-3" d="M90.58,187.21a9.29,9.29,0,0,1-2.86-2.69c-.06-3.5,0-6.06,0-6.69a2,2,0,0,1,.26-1,2.57,2.57,0,0,1,.38-.46,2.3,2.3,0,0,1,1.54-.59h11.78a2.7,2.7,0,0,1,2.18,2,2.34,2.34,0,0,1-.2,1.41c.07,1.83.13,3.66.2,5.48a9.85,9.85,0,0,1-2,1.81A10.82,10.82,0,0,1,90.58,187.21Z"/><ellipse class="cls-4" cx="95.97" cy="149.95" rx="28.15" ry="35.55"/><circle class="cls-3" cx="105.78" cy="146.26" r="1.71"/><circle class="cls-3" cx="86.16" cy="146.26" r="1.71"/><path class="cls-5" d="M98.81,142a16.76,16.76,0,0,0,.57,13.65A3.49,3.49,0,0,1,98,162.18"/><path class="cls-2" d="M118,140.92c-.19.55-3.79-1.16-9.26-.92-3.8.17-6.58,1.19-6.82.57s1.59-1.64,1.7-1.71a9.33,9.33,0,0,1,5.12-1.13,15.22,15.22,0,0,1,5,.74C115.79,139.16,118.17,140.47,118,140.92Z"/><path class="cls-2" d="M76.9,140.92c.19.55,3.79-1.16,9.26-.92,3.8.17,6.58,1.19,6.82.57s-1.59-1.64-1.7-1.71a9.33,9.33,0,0,0-5.12-1.13,15.22,15.22,0,0,0-5,.74C79.13,139.16,76.75,140.47,76.9,140.92Z"/><path class="cls-3" d="M96.86,168.45c6,.24,9.68-3,10.08-2.16.46,1-3.82,7.15-9.39,7.25-6.12.11-11-7.1-10.54-8.07C87.37,164.71,90.87,168.21,96.86,168.45Z"/><ellipse class="cls-4" cx="126.59" cy="151.34" rx="8.61" ry="4.94" transform="translate(-56 226.12) rotate(-72.36)"/><ellipse class="cls-4" cx="64.58" cy="151.34" rx="5.51" ry="8.78" transform="translate(-25.29 13.51) rotate(-10)"/><path class="cls-8" d="M157.56,256.59c-3.36,5.63-17.4,5.6-21.38,0-.72-1-1.47-3.18-3-7.51s-2-5.9-2.37-5.85c-.87.1,1.06,7.73-.89,12.47-6.61,16-64.11,14.45-70.35-2.67-1.52-4.17-1.67-13.81-1.78-21.38,0-3.14,0-6.62-1.79-10.68a24.37,24.37,0,0,0-7.12-8.91c-6-5.2-9.76-9.69-17-18.37-3.73-4.45-7.11-10.19-13.54-21.84-1-1.87-2.29-4.21-2-7.18.6-5.79,6.88-11.35,11.73-10.51,2.47.42,4.12,2.29,5.6,4.61A143.56,143.56,0,0,0,47.35,176.4a55.73,55.73,0,0,0,31.28,15.36l9.09.56a9.59,9.59,0,0,0,16.14-.53,73,73,0,0,1,14.49,1.9c7.48,1.78,15.09,3.57,21.61,9.46,5.15,4.65,7.32,9.78,11.49,20.27.92,2.32,2.65,10.1,6.08,25.66C158.29,252.54,158.72,254.64,157.56,256.59Z"/><path class="cls-2" d="M83.06,109.24l0,0h0Z"/><path class="cls-2" d="M83.09,109.23h0a0,0,0,0,1,0,0Z"/><path class="cls-2" d="M88.92,106.89a3.85,3.85,0,0,1-.28.45,2.79,2.79,0,0,1-.24.31,3.21,3.21,0,0,1,.19-.31Q88.74,107.12,88.92,106.89Z"/><path class="cls-2" d="M88.92,106.89a3.85,3.85,0,0,1-.28.45,2.79,2.79,0,0,1-.24.31,3.21,3.21,0,0,1,.19-.31Q88.74,107.12,88.92,106.89Z"/><path class="cls-2" d="M96.26,109.15a1.79,1.79,0,0,1-.18.19h0s0-.06,0-.13l.14,0Z"/><path class="cls-2" d="M88.92,106.89a3.85,3.85,0,0,1-.28.45h0Q88.74,107.12,88.92,106.89Z"/><path class="cls-2" d="M96.14,109.18l-.06.16h0s0-.06,0-.13Z"/><path class="cls-2" d="M134.94,126.92c.2-1,.42-1.78.57-2.27a31.54,31.54,0,0,0-1.63-3.23c-.89-1.55-1.35-2.33-2-2.7-1.54-.86-3.3-.06-3.58-.72-.15-.37.39-.63.4-1.32,0-.92-1-1.25-1.71-2.27-1.21-1.7-.07-2.82-1.13-4-1.26-1.38-3.66-.62-4.11-1.84-.18-.48.16-.65,0-1.36a2.73,2.73,0,0,0-2-2c-1.24-.22-1.86,1-2.76.62-.74-.29-.52-1.17-1.36-1.59s-1.79.35-2.31-.12.16-1.41-.39-2.34a2.45,2.45,0,0,0-1.89-1.07c-1.78-.15-2.37,1.91-4,1.7s-1.48-1.58-2.84-1.7c-2-.18-3.43,2.36-4.66,1.8-.8-.37-.44-1.61-1.6-2.37a3.15,3.15,0,0,0-2.06-.4c-2,.27-2.66,2.32-3.9,2-.44-.09-.78-.43-1.43-1.07s-.76-1-1.14-1.14c-.82-.22-1.9,1.19-2.16,1.54-1,1.25-1,2.25-1.58,2.28s-.55-.65-1.38-1a2.67,2.67,0,0,0-1.71,0c-1.13.42-.93,1.43-2.09,2.07s-1.64,0-2.25.63c-.79.77-.12,2-.77,2.42s-1.9-.81-3.06-.35c-.51.21-.63.6-1.35,2-2,3.89-2.65,4.17-3,4.24-.73.12-1-.48-1.7-.23A2.64,2.64,0,0,0,67,115.34c-.13.85.2,1.09,0,2a2,2,0,0,1-.67,1.35c-.71.43-1.38-.47-2.3-.25-1.32.32-2.43,2.75-1.9,4.47.24.79.73,1.14.57,1.71s-.94.65-1.71,1.13a5.26,5.26,0,0,0-2.09,4.42c.09,2.2,1.89,3.17,1.35,4.05-.35.58-1.45.72-2.94.9-1,.13-1.37,0-1.69.34-.6.58-.49,2,.16,2.91.53.73,1.15.77,3.51,1.6,3.39,1.19,3.58,1.61,3.6,1.84.09.91-1.93,1.35-2,2.91a2.55,2.55,0,0,0,.2,1.05,7.74,7.74,0,0,0,3.14,3.82,5.81,5.81,0,0,0,2.06,1.06c.34.09,2,.54,2.38-.07s-.56-1.2-.27-2.17c.16-.52.69-.88,1.74-1.61s1.48-.78,1.83-1.32c.5-.75.08-1.08.49-1.8.74-1.32,2.69-1.15,2.8-2,.07-.56-.55-.78-.44-1.32,0-.17.23-.78,3-1.41,2.41-.54,2.66-.18,3.38-.67,1.53-1,1-3,2-3.38,1.34-.43,2.72,2.61,4.51,2.23,1.11-.24,1.2-1.52,2.25-1.56s1.39,1.46,2.83,1.68A3.2,3.2,0,0,0,95.69,136c.79-1.08.27-2.21,1.1-2.72a1.39,1.39,0,0,1,1.18-.12c.67.25.62,1,1.14,1.13s1.42-.82,1.7-1.17c.76-1,.78-1.65,1.14-1.67s.92,1.13,1.14,1.71c.42,1.09.29,1.47.57,1.7s1.46.19,4.35-1.94a2.76,2.76,0,0,1,1.29,1.54c.32,1.17-.34,1.76,0,2.55.62,1.33,3.2.78,3.6,1.95.24.69-.59,1.12-.33,2a2,2,0,0,0,1.69,1.36c1,.08,1.54-.91,2-.68s-.13,1.89.68,2.71,2.4.2,2.58.73-.81.81-.71,1.42,1.19.52,1.78,1.41,0,1.27.4,2.51c.27.78.93,1.89,1.61,1.86s.6-.74,1.7-2.28c.8-1.1,1.33-1.12,1.42-1.76.14-.95-.75-1.38-.51-2s1.39-.37,2.4-1.32c.8-.75.84-1.73,1.16-1.7s.21,1.2.76,1.54c.73.46,2.55-.6,3.64-1.94C136,139.45,133.2,135.24,134.94,126.92ZM76.39,139v0a.12.12,0,0,1,.06-.1A.67.67,0,0,1,76.39,139Z"/><path class="cls-2" d="M87.73,163.32a10.11,10.11,0,0,1,4,0c1.75.34,2,.85,2.85.57,1-.35,1.27-1.35,2-1.25s.83.76,1.37.68.48-.57.9-.68c.61-.18,1,.74,1.94,1.25s1.55,0,4.55,0c1.78,0,2.38.24,2.85.57.76.52,1.34,1.43,1.13,1.7s-1.14-.34-2.27-.57c-2.51-.5-3.49,1.51-6.83,2.28a11,11,0,0,1-6.82-.57c-1.75-.82-2-1.64-4-2.27-2.17-.68-3.94-.36-4-.72S86.82,163.51,87.73,163.32Z"/><path class="cls-2" d="M68.4,157.06c.2,0,1.37,3,2.84,5.69.19.34.67,1.2,1.14,1.14s.36-.47.57-.57c1.24-.59,7.46,11.41,9.1,10.8.38-.14.2-.86.56-2.84.52-2.8,1.68-5.78,2.28-5.69s.24,2.16,1.14,5.69c.68,2.69,1.37,5.29,3.41,6.26,1.42.67,3.28.45,3.41,0,.08-.28-.53-.57-1.14-1.14-1.76-1.65-2.38-4.6-1.7-5.12.86-.66,3,3.28,6.82,3.41,3.51.12,6-3.07,6.83-2.27.5.47,0,1.94-.57,2.84-1.28,2.06-3.51,2.34-3.41,2.85s2.65,1.14,4.55,0,2.49-3.53,3.41-6.83c.48-1.73.68-3.4,1.14-3.41s1,2,1.13,2.84c.51,2.3.26,3.31.57,3.41,1.29.42,7.44-12.4,8.53-11.94.28.12.22,1.09.57,1.14s.5-.44.57-.57a24,24,0,0,1,3.41-4.55c.27.12-1,10.5-9.1,18.77-2.72,2.79-8.84,9.07-18.2,9.1-6.72,0-11.54-3.28-14.21-5.12a34.73,34.73,0,0,1-12.49-17.58c-.14-.49-.38-1.36-.6-2.33A14.38,14.38,0,0,1,68.4,157.06Z"/></g></g></svg>