<svg width="183" height="93" viewBox="0 0 183 93" fill="none" xmlns="http://www.w3.org/2000/svg">
<path d="M68.4304 82.1163L29.0834 69.177C14.1742 64.2711 6.37925 49.0759 11.6443 35.2175C16.9223 21.3592 33.2698 14.1137 48.179 19.0077L87.526 31.9469C102.435 36.8529 110.23 52.0481 104.965 65.9064C99.6999 79.7648 83.3396 87.0222 68.4304 82.1163Z" stroke="#5772FF" stroke-width="18" stroke-miterlimit="10"/>
<path d="M158.053 59.0188L121.339 77.4727C107.431 84.4556 90.069 79.6452 82.5437 66.7179C75.0313 53.7906 80.2066 37.6524 94.1141 30.6576L130.829 12.2036C144.736 5.22075 162.098 10.0312 169.623 22.9585C177.136 35.8858 171.961 52.0359 158.053 59.0188Z" stroke="#5772FF" stroke-width="18" stroke-miterlimit="10"/>
</svg>
