<svg xmlns="http://www.w3.org/2000/svg" viewBox="0 0 279.76 234.63"><defs><style>.cls-1{fill:#d1b6ff;}.cls-2{fill:#5772ff;}.cls-3,.cls-4{fill:none;stroke:#5772ff;stroke-linecap:round;stroke-linejoin:round;}.cls-3{stroke-width:8px;}.cls-4{stroke-width:4px;}</style></defs><title>company interview_1</title><g id="Layer_2" data-name="Layer 2"><g id="Layer_1-2" data-name="Layer 1"><circle class="cls-1" cx="135.13" cy="113.69" r="100"/><rect class="cls-2" x="100.89" y="120.1" width="18.07" height="5.9" rx="2.95" transform="translate(-27.82 213.88) rotate(-81.63)"/><rect class="cls-2" x="116.23" y="127.8" width="18.07" height="5.9" rx="2.95" transform="translate(-53.27 100.55) rotate(-36.63)"/><rect class="cls-2" x="85.14" y="123.22" width="18.07" height="5.9" rx="2.95" transform="translate(49.1 277.03) rotate(-126.63)"/><circle class="cls-3" cx="104.63" cy="159.39" r="19.66"/><path class="cls-3" d="M104.18,189.61h0a27.61,27.61,0,0,1,27.61,27.61v6a7.4,7.4,0,0,1-7.4,7.4H84.88a7.4,7.4,0,0,1-7.4-7.4v-6.91A26.71,26.71,0,0,1,104.18,189.61Z"/><circle class="cls-3" cx="31.16" cy="111.72" r="19.66"/><path class="cls-3" d="M30.71,141.95h0a27.61,27.61,0,0,1,27.61,27.61v6a7.4,7.4,0,0,1-7.4,7.4H11.4a7.4,7.4,0,0,1-7.4-7.4v-6.91a26.71,26.71,0,0,1,26.71-26.71Z"/><circle class="cls-3" cx="174.43" cy="99.92" r="19.66"/><path class="cls-3" d="M174,130.14h0a27.61,27.61,0,0,1,27.61,27.61v6a7.4,7.4,0,0,1-7.4,7.4H154.68a7.4,7.4,0,0,1-7.4-7.4v-6.91A26.71,26.71,0,0,1,174,130.14Z"/><rect class="cls-3" x="183.08" y="4" width="92.68" height="45.38" rx="22.69"/><rect class="cls-3" x="179.62" y="56.39" width="14.16" height="14.41" rx="7.08"/><rect class="cls-4" x="210.38" y="14.93" width="24.84" height="25.26" rx="12.42"/><rect class="cls-2" x="199.61" y="24.61" width="5.96" height="5.9" rx="2.95" transform="translate(405.18 55.13) rotate(-180)"/><rect class="cls-2" x="216.11" y="24.61" width="5.96" height="5.9" rx="2.95" transform="translate(438.17 55.13) rotate(-180)"/><rect class="cls-2" x="223.53" y="24.61" width="5.96" height="5.9" rx="2.95" transform="translate(453.01 55.13) rotate(-180)"/><rect class="cls-2" x="240.02" y="24.61" width="5.96" height="5.9" rx="2.95" transform="translate(486 55.13) rotate(-180)"/><rect class="cls-2" x="247.44" y="24.61" width="5.96" height="5.9" rx="2.95" transform="translate(500.84 55.13) rotate(-180)"/><rect class="cls-2" x="254.86" y="24.61" width="5.96" height="5.9" rx="2.95" transform="translate(515.68 55.13) rotate(-180)"/><rect class="cls-2" x="162.97" y="179.9" width="5.96" height="5.9" rx="2.95" transform="translate(-16.9 348.8) rotate(-90)"/><rect class="cls-2" x="162.97" y="190.37" width="5.96" height="5.9" rx="2.95" transform="translate(-27.37 359.28) rotate(-90)"/><rect class="cls-2" x="162.97" y="200.83" width="5.96" height="5.9" rx="2.95" transform="translate(-37.83 369.73) rotate(-90)"/><rect class="cls-2" x="162.94" y="211.32" width="5.96" height="5.9" rx="2.95"/><rect class="cls-2" x="152.48" y="211.32" width="5.96" height="5.9" rx="2.95"/><rect class="cls-2" x="142.02" y="211.32" width="5.96" height="5.9" rx="2.95"/><path class="cls-3" d="M121.35,70.48a17.82,17.82,0,0,1-17.78,17.77H80.07L62.35,103.4a1.29,1.29,0,0,1-2.11-1.21l2.67-14.35A17.76,17.76,0,0,1,66.56,52.7h37A17.83,17.83,0,0,1,121.35,70.48Z"/><rect class="cls-2" x="69.25" y="70.72" width="16.37" height="5.9" rx="2.95" transform="translate(74.77 -33.18) rotate(45)"/><rect class="cls-2" x="75.02" y="66.79" width="27.49" height="5.9" rx="2.95" transform="translate(200.85 56.28) rotate(135)"/></g></g></svg>