<svg width="319" height="420" viewBox="0 0 319 420" fill="none" xmlns="http://www.w3.org/2000/svg">
<path d="M159.225 163.964C162.555 159.705 165.035 155.884 168.065 152.769C178.235 142.292 193.875 142.938 203.665 153.964C213.335 164.849 214.685 183.098 205.365 194.173C190.955 212.154 178.505 225.796 158.565 243.329C158.655 243.398 128.665 214.154 114.685 197.029C101.316 180.651 105.316 155.168 123.175 147.446C133.375 143.038 142.755 145.157 150.815 153.615C153.575 156.491 155.915 159.854 159.225 163.964Z" fill="#5772FF"/>
<path d="M159.235 74.6172C104.205 74.6172 59.4456 119.165 59.4456 173.913C59.4456 191.664 62.9655 206.55 69.9055 218.153C72.6955 222.809 75.9954 227.755 79.5054 232.999C93.2953 253.626 110.465 279.288 112.315 311.886L112.485 314.821L127.335 311.488L127.185 309.349C124.585 273.447 105.755 245.287 91.9953 224.71C88.6053 219.635 85.3954 214.839 82.7954 210.501C77.2554 201.237 74.4454 188.928 74.4454 173.903C74.4454 127.375 112.485 89.5329 159.235 89.5329C205.995 89.5329 244.024 127.384 244.024 173.903C244.024 188.928 241.214 201.247 235.674 210.501C232.994 214.968 229.614 219.944 226.004 225.247C213.864 243.069 198.765 265.238 193.335 293.109L192.605 296.851L208.605 293.259L208.965 291.746C214.494 268.731 227.754 249.268 238.414 233.616C242.134 228.153 245.644 222.998 248.554 218.143C255.494 206.54 259.014 191.655 259.014 173.903C259.024 119.165 214.254 74.6172 159.235 74.6172Z" fill="#5772FF"/>
<path d="M308.404 100.518L276.725 111.991C272.835 113.404 270.825 117.683 272.245 121.554C273.665 125.424 277.964 127.425 281.854 126.012L313.534 114.539C317.424 113.126 319.434 108.847 318.014 104.976C316.594 101.105 312.294 99.1054 308.404 100.518Z" fill="#5772FF"/>
<path d="M250.055 22.7579C246.305 21.0166 241.835 22.6286 240.085 26.37L225.835 56.7686C224.085 60.5 225.705 64.9479 229.465 66.6892C233.215 68.4305 237.685 66.8186 239.435 63.0772L253.685 32.6785C255.435 28.9372 253.815 24.4993 250.055 22.7579Z" fill="#5772FF"/>
<path d="M159.236 0C155.096 0 151.736 3.34336 151.736 7.46285V41.0059C151.736 45.1254 155.096 48.4687 159.236 48.4687C163.376 48.4687 166.736 45.1254 166.736 41.0059V7.46285C166.736 3.34336 163.376 0 159.236 0Z" fill="#5772FF"/>
<path d="M92.6252 56.7667L78.3753 26.3581C76.6253 22.6267 72.1654 21.0047 68.4054 22.7461C64.6554 24.4874 63.0254 28.9253 64.7754 32.6667L79.0253 63.0654C80.7753 66.7968 85.2353 68.4187 88.9952 66.6774C92.7452 64.936 94.3752 60.4981 92.6252 56.7667Z" fill="#5772FF"/>
<path d="M4.9368 114.539L36.6166 126.012C40.5065 127.425 44.8165 125.424 46.2265 121.554C47.6465 117.683 45.6365 113.394 41.7465 111.991L10.0668 100.518C6.17679 99.1054 1.86682 101.105 0.456828 104.976C-0.963162 108.847 1.03682 113.136 4.9368 114.539Z" fill="#5772FF"/>
<path d="M111.085 352.843L207.375 329.947V313.887L111.085 336.783V352.843Z" fill="#5772FF"/>
<path d="M111.085 386.583L207.375 363.687V347.627L111.085 370.523V386.583Z" fill="#5772FF"/>
<path d="M111.085 419.87L207.375 396.974V380.914L111.085 403.81V419.87Z" fill="#5772FF"/>
</svg>
