<?xml version="1.0" encoding="utf-8"?>
<!-- Generator: Adobe Illustrator 23.0.2, SVG Export Plug-In . SVG Version: 6.00 Build 0)  -->
<svg version="1.1" id="Layer_1" xmlns="http://www.w3.org/2000/svg" xmlns:xlink="http://www.w3.org/1999/xlink" x="0px" y="0px"
	 viewBox="0 0 1567 1130" style="enable-background:new 0 0 1567 1130;" xml:space="preserve">
<style type="text/css">
	.st0{fill:#FFB800;}
</style>
<g>
	<path class="st0" d="M1124.9,1100.6l-1.3-4.8c7.2-2,14.8-4.3,22.4-6.6l1.5,4.8C1139.7,1096.3,1132.2,1098.6,1124.9,1100.6z"/>
	<path class="st0" d="M1081.6,1111.5l-1.1-4.9c7.6-1.7,15.2-3.5,22.7-5.4l1.2,4.8C1096.9,1108,1089.3,1109.8,1081.6,1111.5z"/>
	
		<rect x="1020.8" y="1115.9" transform="matrix(0.9883 -0.1527 0.1527 0.9883 -158.7301 170.54)" class="st0" width="19.8" height="5"/>
	<path class="st0" d="M983.7,1126.8l-0.5-5c2.3-0.2,4.7-0.5,7-0.7c4.2-0.4,8.5-0.9,12.7-1.3l0.6,5c-4.2,0.5-8.5,0.9-12.8,1.3
		C988.4,1126.3,986,1126.5,983.7,1126.8z"/>
	<path class="st0" d="M945.9,1129.2l-0.2-5l9.9-0.5c0.8,0,1.6-0.1,2.5-0.1c2.4-0.1,4.9-0.2,7.3-0.4l0.4,5c-2.5,0.2-5.1,0.3-7.5,0.4
		c-0.8,0-1.6,0.1-2.5,0.1L945.9,1129.2z"/>
	<path class="st0" d="M921.9,1129.7c-0.7,0-1.4,0-2.1,0c-0.6,0-1.2,0-1.7,0l-9.9-0.1l0.1-5l9.9,0.1c0.6,0,1.2,0,1.8,0
		c1,0,2.1,0,3.1,0l5-0.1l0.1,5l-5,0.1C922.7,1129.7,922.3,1129.7,921.9,1129.7z"/>
	<path class="st0" d="M890.2,1129c-1.2-0.1-2.3-0.1-3.5-0.1c-2.1-0.1-4.3-0.2-6.5-0.3l-9.9-0.7l0.4-5l9.9,0.7
		c2.1,0.1,4.2,0.2,6.3,0.3c1.2,0,2.3,0.1,3.5,0.1L890.2,1129z"/>
	<path class="st0" d="M852.4,1126.2l-9.9-1.1c-1.8-0.2-3.6-0.4-5-0.6l-4.9-0.7l0.7-5l4.9,0.7c1.3,0.2,3.1,0.4,4.8,0.6l9.9,1.1
		L852.4,1126.2z"/>
	<path class="st0" d="M814.9,1121.2l-14.7-2.6c-1.1-0.2-2.2-0.4-3.2-0.6c-0.6-0.1-1.1-0.2-1.7-0.4l1-4.9c0.6,0.1,1.2,0.2,1.8,0.4
		c1,0.2,2,0.4,3,0.6l14.7,2.6L814.9,1121.2z"/>
	
		<rect x="766.2" y="1099.1" transform="matrix(0.241 -0.9705 0.9705 0.241 -492.886 1587.7762)" class="st0" width="5" height="19.8"/>
	<path class="st0" d="M741.3,1104.1c-2.6-0.7-5.2-1.6-7.7-2.4l-11.3-3.7l1.6-4.7l11.3,3.7c2.4,0.8,4.9,1.6,7.4,2.3L741.3,1104.1z"/>
	<path class="st0" d="M705.4,1092l-9.3-3.5c-1.2-0.4-2.4-0.9-3.6-1.4l-5.7-2.4l1.9-4.6l5.7,2.4c1.1,0.5,2.2,0.9,3.3,1.3l9.3,3.5
		L705.4,1092z"/>
	<path class="st0" d="M670.3,1077.6l-13.8-6.4c-1.4-0.6-2.8-1.3-4.2-2.1l2.3-4.4c1.3,0.7,2.6,1.3,4,1.9l13.8,6.4L670.3,1077.6z"/>
	<path class="st0" d="M636.4,1061c-3.8-2-7.6-4.1-11.3-6.2c-2-1.1-4.1-2.3-6.1-3.4l2.4-4.4c2.1,1.1,4.1,2.3,6.2,3.4
		c3.7,2,7.4,4.1,11.2,6.1L636.4,1061z"/>
	<path class="st0" d="M603.5,1042.4c-4.3-2.5-8.4-5.1-12.5-7.7c-1.5-0.9-3-1.9-4.4-2.8l2.7-4.2c1.5,0.9,3,1.9,4.5,2.8
		c4,2.6,8.2,5.2,12.3,7.6L603.5,1042.4z"/>
	<path class="st0" d="M571.6,1022l-8.2-5.5c-1.8-1.2-3.5-2.5-5.3-3.7c-1-0.7-1.9-1.4-2.9-2l2.9-4.1c1,0.7,1.9,1.4,2.9,2.1
		c1.7,1.2,3.4,2.4,5.2,3.6l8.2,5.5L571.6,1022z"/>
	<polygon class="st0" points="540.6,1000.3 528.6,991.5 524.6,988.5 527.7,984.5 531.6,987.5 543.6,996.3 	"/>
	
		<rect x="501.6" y="959.6" transform="matrix(0.6165 -0.7874 0.7874 0.6165 -570.0608 768.8203)" class="st0" width="5" height="19.8"/>
	
		<rect x="472.2" y="936.2" transform="matrix(0.6283 -0.7779 0.7779 0.6283 -559.5779 720.8864)" class="st0" width="5" height="19.8"/>
	
		<rect x="442.9" y="912.4" transform="matrix(0.6307 -0.7761 0.7761 0.6307 -551.2741 686.3068)" class="st0" width="5" height="19.8"/>
	<polygon class="st0" points="422.3,906.8 410.7,897.4 406.8,894.3 409.9,890.4 413.8,893.5 425.4,902.9 	"/>
	<path class="st0" d="M392.8,883.3c-5-3.9-10.2-7.9-15.2-11.8l-0.5-0.4l3-4l0.5,0.4c5,3.8,10.2,7.8,15.2,11.8L392.8,883.3z"/>
	
		<rect x="354" y="842.5" transform="matrix(0.6009 -0.7993 0.7993 0.6009 -539.0719 625.1364)" class="st0" width="5" height="19.8"/>
	<rect x="323.7" y="820" transform="matrix(0.592 -0.8059 0.8059 0.592 -535.7759 601.5328)" class="st0" width="5" height="19.8"/>
	
		<rect x="293.3" y="797.8" transform="matrix(0.5857 -0.8105 0.8105 0.5857 -532.1765 574.3866)" class="st0" width="5" height="19.8"/>
	
		<rect x="262.7" y="775.8" transform="matrix(0.5822 -0.813 0.813 0.5822 -528.0693 543.8747)" class="st0" width="5" height="19.8"/>
	
		<rect x="232" y="753.9" transform="matrix(0.5833 -0.8123 0.8123 0.5833 -522.7029 508.8152)" class="st0" width="5" height="19.8"/>
	
		<rect x="201.4" y="731.9" transform="matrix(0.5832 -0.8123 0.8123 0.5832 -517.608 474.7909)" class="st0" width="5" height="19.8"/>
	<path class="st0" d="M179.9,727.7c-1.7-1.3-3.5-2.6-5.2-3.8c-0.9-0.7-1.9-1.4-2.8-2.1l-1-0.7c-2.3-1.7-4.7-3.5-7-5.3l3.1-3.9
		c2.2,1.8,4.6,3.5,6.8,5.2l1,0.7c0.9,0.7,1.9,1.4,2.8,2.1c1.7,1.3,3.4,2.6,5.1,3.8L179.9,727.7z"/>
	<path class="st0" d="M149.9,704.5c-0.9-0.7-1.8-1.5-2.7-2.2c-1.6-1.3-3.3-2.7-5-4.2l-7.5-6.5l3.3-3.8l7.5,6.5
		c1.6,1.4,3.2,2.8,4.8,4.1c0.9,0.7,1.8,1.5,2.7,2.3L149.9,704.5z"/>
	<polygon class="st0" points="121.5,679.4 112.6,670.8 107.4,665.4 111,661.9 116.2,667.3 125,675.8 	"/>
	<path class="st0" d="M95.1,652.4c-1.2-1.3-2.4-2.6-3.4-3.8l-6.5-7.5c-0.7-0.8-1.4-1.7-2.1-2.5c-0.4-0.4-0.7-0.9-1.1-1.3l3.8-3.2
		c0.4,0.5,0.7,0.9,1.1,1.4c0.7,0.8,1.3,1.6,2,2.4l6.5,7.5c1,1.1,2.1,2.4,3.2,3.6L95.1,652.4z"/>
	<path class="st0" d="M70.8,623.2c-0.4-0.5-0.7-0.9-1.1-1.4c-0.7-0.9-1.3-1.7-2-2.6l-7.3-10.1l-1.4-2.1l4.1-2.8l1.4,2.1l7.2,10
		c0.6,0.8,1.2,1.6,1.9,2.5c0.4,0.5,0.7,0.9,1.1,1.4L70.8,623.2z"/>
	<path class="st0" d="M49.3,592.1l-2.6-4.2l-5-8.6c-0.8-1.3-1.7-2.8-2.5-4.4l4.4-2.3c0.8,1.5,1.6,3,2.4,4.2l5,8.6l2.6,4.1
		L49.3,592.1z"/>
	<path class="st0" d="M30.9,558.9c-0.3-0.5-0.5-1-0.8-1.6c-0.5-1-1-1.9-1.4-2.9l-2-4.6c-0.4-0.8-0.7-1.7-1.1-2.5
		c-1-2.2-2-4.4-2.9-6.8l4.7-1.8c0.8,2.2,1.8,4.4,2.8,6.5c0.4,0.8,0.7,1.7,1.1,2.5l2,4.5c0.4,0.9,0.9,1.8,1.4,2.8
		c0.3,0.5,0.5,1.1,0.8,1.6L30.9,558.9z"/>
	<path class="st0" d="M16.3,523.9c-0.8-2.2-1.5-4.4-2.2-6.5c-0.3-1-0.6-2-0.9-3l-1.5-4.8l-1.3-4.9l4.8-1.3l1.3,4.8l1.4,4.6
		c0.3,1,0.6,2,1,3c0.6,2.1,1.3,4.2,2.1,6.2L16.3,523.9z"/>
	<path class="st0" d="M6.2,487.1l-1.8-9.8c-0.3-1.3-0.4-2.6-0.6-3.9l-0.8-6l5-0.7l0.8,6c0.2,1.3,0.3,2.5,0.6,3.7l1.8,9.8L6.2,487.1z
		"/>
	<path class="st0" d="M1.3,449.5L1,443.4c-0.1-1.3-0.1-2.6-0.1-4l0-9.9l5,0l0,9.9c0,1.2,0,2.4,0.1,3.7l0.3,6.1L1.3,449.5z"/>
	<path class="st0" d="M6.9,411.9l-5-0.5l0.5-5l0.9-6.4c0.4-2.8,0.8-5.7,1.4-8.5l4.9,1c-0.6,2.7-0.9,5.5-1.3,8.2l-0.9,6.3L6.9,411.9z
		"/>
	<path class="st0" d="M12.6,374.9L7.7,374c1.1-6.5,2.4-13.1,3.8-19.6l4.9,1.1C15,361.9,13.7,368.4,12.6,374.9z"/>
	<path class="st0" d="M20.5,338.3l-4.8-1.3c1.7-6.6,3.6-13.1,5.5-19.2l4.8,1.5C24,325.3,22.2,331.7,20.5,338.3z"/>
	<path class="st0" d="M31.5,302.4l-4.7-1.7l1.9-5.2c1.4-4.6,2.9-9.1,4.5-13.6l4.7,1.7c-1.6,4.4-3.1,8.9-4.5,13.4l0,0.1L31.5,302.4z"
		/>
	<path class="st0" d="M44.4,267.3l-4.6-2c2.7-6,5.6-12.1,8.8-18l4.4,2.3C50,255.4,47.1,261.3,44.4,267.3z"/>
	<path class="st0" d="M61.8,234.2l-4.3-2.6c3-5,6.3-10.2,10.8-16.8l4.1,2.8C68.1,224.2,64.8,229.3,61.8,234.2z"/>
	<path class="st0" d="M83,203.4l-3.9-3.1c1.3-1.7,2.7-3.4,4-5c0.7-0.9,1.5-1.8,2.2-2.7l6.5-7.6l3.8,3.3l-6.5,7.5
		c-0.7,0.9-1.4,1.8-2.2,2.7C85.6,200.1,84.3,201.7,83,203.4z"/>
	<path class="st0" d="M107.8,175.5l-3.5-3.6c1.5-1.5,3.1-3,4.7-4.5c0.8-0.8,1.7-1.6,2.5-2.4l7.5-6.7l3.3,3.7l-7.4,6.6
		c-0.8,0.8-1.6,1.6-2.5,2.4C110.8,172.5,109.3,174,107.8,175.5z"/>
	<path class="st0" d="M136.1,151l-3.1-3.9c1.1-0.9,2.2-1.6,3.3-2.4l4.9-3.5c1-0.7,2.1-1.4,3.1-2.1l5.2-3.4l2.7,4.2l-5.2,3.4
		c-1,0.7-2,1.3-2.9,2l-5,3.5C138,149.5,137,150.2,136.1,151z"/>
	<path class="st0" d="M167.6,131.2l-2.4-4.4c2.4-1.3,4.8-2.5,7.2-3.6l1.8-0.9c2.4-1.2,5-2.3,7.5-3.3l1.7-0.7l1.9,4.6l-1.7,0.7
		c-2.4,1-4.9,2-7.2,3.2l-1.9,0.9C172.2,128.8,169.8,129.9,167.6,131.2z"/>
	<path class="st0" d="M201.9,117l-1.4-4.8l4.7-1.4c1.1-0.3,2.2-0.6,3.2-0.9c0.6-0.1,1.1-0.3,1.7-0.4c0.7-0.2,1.4-0.3,2.1-0.5
		c2.5-0.6,5.2-1.3,7.8-1.7l0.8,4.9c-2.5,0.4-4.9,1-7.5,1.6c-0.7,0.2-1.4,0.3-2,0.5c-0.5,0.1-1.1,0.3-1.7,0.4c-1,0.2-2,0.5-2.9,0.8
		L201.9,117z"/>
	<polygon class="st0" points="238.2,109.5 237.8,104.6 247.9,103.8 257.8,103.6 257.9,108.6 248,108.8 	"/>
	<path class="st0" d="M294.8,112.3l-2.4-0.5l-7.3-1.1c-0.6-0.1-1.2-0.2-1.8-0.3c-1-0.2-2-0.3-3-0.4l-4.9-0.5l0.5-5l4.9,0.5
		c1.1,0.1,2.3,0.3,3.3,0.5c0.6,0.1,1.1,0.2,1.7,0.3l7.5,1.2l2.4,0.5L294.8,112.3z"/>
	<path class="st0" d="M330.6,122.4c-2.3-0.9-4.6-1.7-6.9-2.4c-0.8-0.3-1.6-0.5-2.3-0.8l-4.7-1.5c-0.7-0.2-1.4-0.4-2.2-0.7l-2.4-0.7
		l1.3-4.8l2.4,0.6c1,0.3,1.8,0.5,2.6,0.8l4.7,1.5c0.8,0.3,1.5,0.5,2.3,0.8c2.4,0.8,4.8,1.6,7.2,2.5L330.6,122.4z"/>
	<path class="st0" d="M365.5,136.4c-6.8-2.8-12.8-5.3-18.3-7.5l1.9-4.6c5.6,2.2,11.6,4.7,18.4,7.6L365.5,136.4z"/>
	<rect x="389.6" y="135" transform="matrix(0.3874 -0.9219 0.9219 0.3874 106.623 450.2359)" class="st0" width="5" height="19.8"/>
	<path class="st0" d="M435.5,164.8c-6-2.1-12.1-4.4-18.6-7l1.8-4.7c6.5,2.6,12.6,4.9,18.5,7L435.5,164.8z"/>
	<path class="st0" d="M471.8,176c-2.2-0.5-4.5-1.2-6.6-1.8c-1-0.3-2-0.6-3-0.8c-1-0.3-1.9-0.6-2.8-0.8c-2.2-0.7-4.6-1.3-6.8-2.1
		l1.5-4.8c2.2,0.7,4.5,1.4,6.7,2c0.9,0.3,1.8,0.5,2.8,0.8c1,0.3,2,0.5,3,0.8c2.1,0.6,4.3,1.2,6.5,1.7L471.8,176z"/>
	<path class="st0" d="M509.1,182.9c-7.2-0.7-14.4-2-19.8-2.9l0.9-4.9c5.3,1,12.4,2.2,19.4,2.9L509.1,182.9z"/>
	<path class="st0" d="M533.9,184.2c-1.3,0-2.6,0-3.9,0c-0.9,0-1.9,0-2.8,0l0-5c0.9,0,1.9,0,2.8,0c2.3,0,4.7,0.1,7,0
		c0.6,0,1.2,0,1.8,0c1,0,2.1,0,3.1-0.1l4.9-0.3l0.3,5l-5,0.3c-1.1,0.1-2.2,0.1-3.3,0.1c-0.6,0-1.2,0-1.7,0
		C536.1,184.2,535,184.2,533.9,184.2z"/>
	<polygon class="st0" points="565.1,182 564.5,177.1 569.4,176.4 579.1,174.8 583.9,173.9 584.8,178.8 580,179.8 570.1,181.4 	"/>
	<path class="st0" d="M602.4,174.7l-1.3-4.8l1.6-0.4c2.6-0.7,5.2-1.4,7.8-2.3l4.8-1.5c1-0.3,2-0.6,3-1c0.6-0.2,1.1-0.4,1.7-0.6
		l1.6,4.7c-0.5,0.2-1.1,0.4-1.6,0.6c-1,0.4-2.1,0.7-3.1,1l-4.7,1.5c-2.6,0.9-5.4,1.6-8,2.3L602.4,174.7z"/>
	<path class="st0" d="M638.4,162.6l-1.9-4.6l0.3-0.1c2.9-1.2,5.9-2.4,8.8-3.7l4.6-2l4.4-2.1l2.1,4.5l-4.5,2.1l-4.6,2
		c-2.9,1.3-6,2.6-8.9,3.8L638.4,162.6z"/>
	<path class="st0" d="M672.7,146.5l-2.3-4.4l4.4-2.3l4.3-2.4c2.4-1.3,4.8-2.7,7.1-4l1.5-0.8l2.5,4.3l-1.5,0.8
		c-2.4,1.3-4.8,2.7-7.2,4.1l-4.3,2.4L672.7,146.5z"/>
	<path class="st0" d="M705.6,127.7l-2.6-4.3c5-3,10.3-6.3,16.8-10.4l2.7,4.2C716,121.4,710.6,124.7,705.6,127.7z"/>
	
		<rect x="734.7" y="97.8" transform="matrix(0.8456 -0.5338 0.5338 0.8456 61.4323 413.0086)" class="st0" width="19.8" height="5"/>
	<path class="st0" d="M769.5,87.8l-2.6-4.3c6.1-3.7,11.7-7,17.2-10l2.5,4.4C781.2,80.9,775.6,84.1,769.5,87.8z"/>
	<path class="st0" d="M802.2,69.4l-2.3-4.4c3-1.5,6-3,8.9-4.5c2.4-1.1,4.9-2.4,7.2-3.6l1.7-0.8l2.3,4.5l-1.7,0.8
		c-2.4,1.2-4.8,2.4-7.3,3.6C808.1,66.4,805.2,67.9,802.2,69.4z"/>
	<path class="st0" d="M835.9,52.6l-2.2-4.5c5.9-2.8,11.9-5.7,18-8.5l2.1,4.5C847.8,47,841.8,49.8,835.9,52.6z"/>
	<path class="st0" d="M870.1,36.8l-2.2-4.5l4.5-2.1l4.6-2c2.3-1,4.6-2,6.9-3c0.8-0.3,1.5-0.6,2.3-0.9l1.9,4.6
		c-0.8,0.3-1.5,0.6-2.3,0.9c-2.2,0.9-4.6,1.9-6.8,2.9l-4.6,2L870.1,36.8z"/>
	<path class="st0" d="M904.7,22.7l-1.5-4.8l0.4-0.1c3-1,6-2,9.1-2.9l4.8-1.4c1.7-0.5,3.3-1,4.9-1.4l1.2,4.8c-1.5,0.4-3,0.8-4.7,1.3
		l-4.8,1.4c-3,0.9-6,1.9-8.9,2.8L904.7,22.7z"/>
	<path class="st0" d="M940.8,12.8l-1-4.9l4.9-1c1.1-0.2,2.2-0.4,3.2-0.6l1.7-0.3c0.6-0.1,1.2-0.2,1.7-0.3c1.1-0.2,2.1-0.4,3.2-0.6
		l4.9-0.8l0.8,4.9l-4.9,0.8c-1,0.2-2.1,0.4-3.1,0.6c-0.6,0.1-1.2,0.2-1.7,0.3c-0.6,0.1-1.1,0.2-1.7,0.3c-1,0.2-2.1,0.4-3.1,0.6
		L940.8,12.8z"/>
	<path class="st0" d="M977.7,7l-0.5-5c5.9-0.6,12.2-1.1,19.9-1.5l0.3,5C989.8,5.9,983.5,6.4,977.7,7z"/>
	<path class="st0" d="M1034.8,5.7c-2.1-0.1-4.2-0.2-6.4-0.3c-1.2,0-2.3-0.1-3.5-0.2l-2.1,0c-2.6-0.1-5.1-0.1-7.7-0.1l0-5
		c2.6,0,5.2,0.1,7.8,0.1l2.2,0c1.2,0.1,2.4,0.1,3.6,0.2c2.2,0.1,4.3,0.2,6.4,0.3L1034.8,5.7z"/>
	<path class="st0" d="M1071.9,9.9c-5.8-1-12.2-1.9-19.5-2.7l0.6-5c7.4,0.9,13.9,1.8,19.8,2.8L1071.9,9.9z"/>
	<path class="st0" d="M1108.4,18.2c-3-0.9-6.2-1.7-9.2-2.5l-0.3-0.1c-2.3-0.6-4.7-1.2-7-1.7c-0.9-0.2-1.8-0.4-2.6-0.6l1.1-4.9
		c0.9,0.2,1.7,0.4,2.6,0.6c2.3,0.5,4.8,1.1,7.1,1.7l0.2,0.1c3.1,0.8,6.3,1.6,9.4,2.6L1108.4,18.2z"/>
	<path class="st0" d="M1143.7,30.6l-9.2-3.6c-0.5-0.2-1.1-0.4-1.6-0.6c-1-0.4-1.9-0.8-2.9-1.1l-4.7-1.7l1.7-4.7l4.7,1.7
		c1,0.4,2.1,0.8,3.1,1.2c0.5,0.2,1.1,0.4,1.6,0.6l9.3,3.6L1143.7,30.6z"/>
	<path class="st0" d="M1177.8,46c-5.9-3-11.9-5.9-17.8-8.5l2-4.6c5.9,2.7,12,5.6,18,8.6L1177.8,46z"/>
	<path class="st0" d="M1210.5,64.4c-5.5-3.5-11.2-6.8-17-10l2.4-4.4c5.8,3.3,11.6,6.7,17.2,10.2L1210.5,64.4z"/>
	<path class="st0" d="M1242.2,84.6c-5.3-3.4-10.9-7-16.7-10.7l2.7-4.2c5.8,3.7,11.5,7.3,16.7,10.7L1242.2,84.6z"/>
	<path class="st0" d="M1273.2,105.9c-4.8-3.4-10.5-7.4-16.2-11.4l2.8-4.1c5.8,3.9,11.5,8,16.3,11.4L1273.2,105.9z"/>
	<path class="st0" d="M1303.3,128.5c-5.5-4.3-10.6-8.3-15.7-12l3-4c5.1,3.8,10.2,7.8,15.8,12.1L1303.3,128.5z"/>
	<polygon class="st0" points="1332.3,152.4 1328.5,149.1 1317.1,139.6 1320.3,135.8 1331.8,145.3 1335.6,148.6 	"/>
	
		<rect x="1352.1" y="159" transform="matrix(0.6771 -0.7359 0.7359 0.6771 313.0393 1051.3728)" class="st0" width="5" height="19.8"/>
	<path class="st0" d="M1386.9,204l-10.4-10.6c-1.2-1.3-2.3-2.4-3.5-3.4l3.4-3.6c1.2,1.1,2.3,2.3,3.6,3.6l10.4,10.6L1386.9,204z"/>
	<path class="st0" d="M1412.3,231.7l-6.6-7.4c-0.4-0.4-0.8-0.9-1.2-1.3c-0.7-0.8-1.4-1.6-2.1-2.4l-3.4-3.6l3.7-3.4l3.4,3.6
		c0.7,0.8,1.5,1.6,2.2,2.5c0.4,0.4,0.8,0.9,1.1,1.3l6.6,7.5L1412.3,231.7z"/>
	<path class="st0" d="M1436.1,260.7l-6.1-7.8c-1.3-1.7-2.7-3.3-4-4.9c-0.8-0.9-1.5-1.8-2.3-2.7l3.9-3.2c0.7,0.9,1.5,1.8,2.2,2.7
		c1.4,1.6,2.8,3.3,4.1,5l6.1,7.8L1436.1,260.7z"/>
	<polygon class="st0" points="1458.5,290.8 1452.8,282.7 1446.9,274.8 1450.9,271.8 1456.8,279.8 1462.6,288 	"/>
	<path class="st0" d="M1479,322.3c-0.6-1-1.2-2-1.8-3c-1.1-1.8-2.2-3.6-3.3-5.4l-5.4-8.3l4.2-2.7l5.4,8.3c1.2,1.8,2.3,3.7,3.4,5.5
		c0.6,1,1.2,2,1.8,3L1479,322.3z"/>
	<polygon class="st0" points="1497.7,354.8 1494.2,348.2 1488.1,337.5 1492.5,335 1498.6,345.8 1502.1,352.4 	"/>
	<polygon class="st0" points="1514.4,388.4 1511.3,381.6 1505.9,370.6 1510.4,368.4 1515.8,379.5 1518.9,386.4 	"/>
	<polygon class="st0" points="1528.8,423.1 1526.2,416.1 1521.5,404.7 1526.1,402.8 1530.8,414.3 1533.4,421.3 	"/>
	<path class="st0" d="M1540.7,458.6l-1.6-5.4c-0.4-1.4-0.8-2.7-1.2-3.9l-3.2-9.4l4.7-1.6l3.1,9.4c0.5,1.4,0.9,2.8,1.3,4.2l1.6,5.4
		L1540.7,458.6z"/>
	<path class="st0" d="M1550.1,494.9c-0.3-1.1-0.5-2.3-0.8-3.4c-0.4-2-0.9-4.2-1.4-6.2l-2.5-9.6l4.8-1.2l2.5,9.6
		c0.5,2.1,1,4.3,1.4,6.4c0.2,1.1,0.5,2.3,0.7,3.4L1550.1,494.9z"/>
	<polygon class="st0" points="1556.8,531.8 1555.4,522 1553.6,512.3 1558.6,511.4 1560.3,521.2 1561.7,531.1 	"/>
	<path class="st0" d="M1560.5,569.1l-0.7-9.9c-0.1-2.1-0.4-4.2-0.6-6.3c-0.1-1.2-0.3-2.4-0.4-3.5l5-0.5c0.1,1.2,0.2,2.3,0.4,3.5
		c0.2,2.1,0.5,4.3,0.6,6.5l0.7,9.9L1560.5,569.1z"/>
	<path class="st0" d="M1566.3,606.7l-5-0.1c0-1.3,0-2.6,0-3.9c0.1-5.2,0.1-10.6-0.1-15.8l5-0.2c0.2,5.4,0.2,10.8,0.1,16.1
		C1566.3,604.1,1566.3,605.4,1566.3,606.7z"/>
	<path class="st0" d="M1564,644.5l-5-0.5l0.9-9.9c0-0.6,0.1-1.2,0.2-1.8c0.1-1.1,0.2-2.1,0.2-3.1l0.3-5l5,0.3l-0.3,5
		c-0.1,1.1-0.2,2.2-0.3,3.3c-0.1,0.6-0.1,1.1-0.2,1.7L1564,644.5z"/>
	<polygon class="st0" points="1558.6,682 1553.7,681.1 1556.2,666.5 1556.9,661.6 1561.8,662.3 1561.2,667.2 	"/>
	<path class="st0" d="M1550.2,718.9l-4.8-1.2l3.7-14.4c0.3-1,0.5-2,0.7-3c0.1-0.6,0.2-1.2,0.4-1.8l4.9,1.1c-0.1,0.6-0.2,1.1-0.4,1.7
		c-0.2,1.1-0.5,2.2-0.7,3.3L1550.2,718.9z"/>
	<polygon class="st0" points="1538.7,755 1534,753.4 1539.6,737 1540.3,734.7 1545.1,736.1 1544.4,738.5 	"/>
	<path class="st0" d="M1524.2,790.1l-4.5-2.1c0.9-1.9,1.7-3.9,2.6-5.8c0.5-1.1,0.9-2.2,1.4-3.2c0.5-1.1,0.9-2.1,1.4-3.2
		c0.8-1.9,1.7-3.9,2.5-5.8l4.6,1.9c-0.8,2-1.7,4-2.5,5.9c-0.5,1.1-0.9,2.1-1.4,3.2c-0.5,1.1-0.9,2.1-1.4,3.2
		C1526,786.1,1525.1,788.1,1524.2,790.1z"/>
	<path class="st0" d="M1506.8,823.8l-4.3-2.6c1.2-1.9,2.2-4,3.3-6c0.5-0.9,0.9-1.8,1.4-2.6l4.6-8.7l4.4,2.3l-4.7,8.8
		c-0.5,0.9-0.9,1.7-1.4,2.6C1509.2,819.7,1508.1,821.8,1506.8,823.8z"/>
	<polygon class="st0" points="1486.9,856 1482.8,853.2 1485.6,849.1 1493.5,836.6 1497.7,839.3 1489.8,851.8 	"/>
	<path class="st0" d="M1464.6,886.6l-3.9-3.2c3-3.7,5.9-7.6,8.7-11.4c1.1-1.4,2.1-2.9,3.2-4.3l4,3c-1.1,1.4-2.1,2.8-3.2,4.3
		C1470.6,878.8,1467.7,882.8,1464.6,886.6z"/>
	<path class="st0" d="M1440,915.4l-3.7-3.4l3.4-3.6c0.9-1,2.1-2.3,3.2-3.6l6.5-7.6l3.8,3.3l-6.5,7.5c-1.2,1.4-2.4,2.8-3.4,3.8
		L1440,915.4z"/>
	<path class="st0" d="M1413.5,942.4l-3.5-3.6c0.9-0.8,1.7-1.6,2.6-2.4c1.5-1.4,3.1-2.9,4.6-4.4l6.9-7.1l3.6,3.5l-7,7.1
		c-1.5,1.5-3.1,3-4.7,4.5C1415.2,940.8,1414.4,941.6,1413.5,942.4z"/>
	<path class="st0" d="M1385.3,967.5l-3.2-3.8c0.9-0.8,1.8-1.5,2.7-2.3c1.6-1.3,3.3-2.7,4.9-4.1l7.4-6.6l3.3,3.7l-7.4,6.6
		c-1.7,1.4-3.3,2.8-5,4.2C1387.1,966,1386.2,966.8,1385.3,967.5z"/>
	<path class="st0" d="M1355.4,990.8l-3-4c1-0.7,1.9-1.4,2.9-2.1c1.7-1.2,3.4-2.5,5.1-3.8l7.8-6.1l3.1,3.9l-7.8,6.1
		c-1.7,1.3-3.5,2.6-5.2,3.8C1357.3,989.4,1356.4,990.1,1355.4,990.8z"/>
	<path class="st0" d="M1324.2,1012.2l-2.7-4.2c1-0.6,2-1.3,3-1.9c1.8-1.1,3.6-2.3,5.3-3.5l8.2-5.6l2.8,4.1l-8.2,5.6
		c-1.8,1.2-3.7,2.4-5.5,3.5C1326.2,1011,1325.2,1011.6,1324.2,1012.2z"/>
	<polygon class="st0" points="1291.8,1031.8 1289.4,1027.4 1295.9,1023.8 1306.4,1017.4 1309,1021.7 1298.4,1028.1 	"/>
	<path class="st0" d="M1258.4,1049.5l-2.2-4.5l4.5-2.2c0.9-0.5,1.9-0.9,2.8-1.4c0.5-0.3,1-0.6,1.6-0.8l8.8-4.6l2.3,4.4l-8.8,4.6
		c-0.5,0.3-1,0.5-1.5,0.8c-1,0.5-1.9,1-2.9,1.5L1258.4,1049.5z"/>
	<path class="st0" d="M1224.1,1065.5l-1.9-4.6c2.3-0.9,4.5-2,6.7-3c0.8-0.3,1.5-0.7,2.3-1l9-4.1l2.1,4.6l-9,4.1
		c-0.8,0.3-1.5,0.7-2.2,1C1228.7,1063.4,1226.4,1064.5,1224.1,1065.5z"/>
	
		<rect x="1187.5" y="1071.2" transform="matrix(0.9315 -0.3636 0.3636 0.9315 -308.4498 508.9211)" class="st0" width="19.8" height="5"/>
</g>
</svg>
