<svg width="1298" height="960" viewBox="0 0 1298 960" fill="none" xmlns="http://www.w3.org/2000/svg">
<path d="M762.15 850.163L762.115 850.204L762.082 850.246C760.123 852.767 758.1 855.264 756.015 857.733L757.963 859.346C753.815 864.258 749.428 869.062 744.82 873.74L742.997 871.99C738.515 876.539 733.821 880.969 728.932 885.262L730.627 887.132C725.774 891.394 720.731 895.522 715.515 899.5L713.95 897.524C708.844 901.418 703.57 905.168 698.143 908.759L699.576 910.83C694.16 914.414 688.594 917.839 682.894 921.092L681.6 918.936C675.993 922.136 670.255 925.166 664.401 928.014L665.552 930.246C659.684 933.101 653.699 935.773 647.614 938.249L646.613 935.95C640.604 938.395 634.498 940.645 628.307 942.689L629.151 945.045C622.926 947.1 616.615 948.947 610.235 950.572L609.557 948.167C603.248 949.774 596.871 951.163 590.44 952.319L590.942 954.762C584.466 955.926 577.934 956.857 571.361 957.54L571.044 955.071C567.796 955.409 564.538 955.686 561.271 955.901L561.252 955.902L561.233 955.904C558.144 956.154 555.055 956.364 551.966 956.536L552.161 959.015C545.921 959.361 539.681 959.546 533.45 959.567L533.387 957.084C527.175 957.105 520.973 956.963 514.788 956.653L514.714 959.133C508.459 958.82 502.221 958.337 496.01 957.681L496.225 955.212C493.134 954.885 490.051 954.516 486.975 954.103L486.932 954.097L486.89 954.093C482.924 953.694 478.97 953.266 475.028 952.807L474.786 955.273C466.819 954.346 458.903 953.296 451.043 952.125L451.366 949.67C443.455 948.492 435.6 947.192 427.807 945.77L427.4 948.211C419.499 946.77 411.66 945.205 403.888 943.518L404.379 941.093C400.476 940.246 396.591 939.368 392.723 938.46L392.19 940.875L392.723 938.46C389.532 937.71 386.353 936.94 383.186 936.149L382.617 938.556C376.229 936.961 369.891 935.282 363.604 933.52L364.244 931.132C357.927 929.362 351.662 927.508 345.453 925.57L344.741 927.936C338.452 925.974 332.221 923.927 326.048 921.797L326.833 919.455C320.626 917.312 314.478 915.084 308.393 912.773L307.533 915.088C301.367 912.745 295.265 910.317 289.23 907.804L290.167 905.519C284.103 902.994 278.108 900.383 272.183 897.688L271.17 899.939C265.167 897.207 259.236 894.389 253.379 891.485L254.471 889.271C248.59 886.355 242.784 883.352 237.058 880.264L235.888 882.437C230.083 879.306 224.36 876.088 218.72 872.783L219.971 870.655C214.305 867.335 208.724 863.928 203.232 860.434L201.901 862.513C196.336 858.973 190.862 855.346 185.48 851.631L186.894 849.606C181.497 845.881 176.195 842.068 170.991 838.169L169.496 840.134C164.226 836.185 159.055 832.148 153.987 828.023L155.564 826.121C150.482 821.985 145.505 817.762 140.636 813.452L138.977 815.284C134.05 810.922 129.232 806.473 124.527 801.936L126.266 800.178C121.562 795.642 116.971 791.018 112.499 786.309L110.679 787.987C106.158 783.226 101.755 778.378 97.4754 773.444L99.3728 771.853C95.1005 766.927 90.9516 761.916 86.93 756.82L84.9566 758.319C80.8993 753.178 76.9706 747.951 73.1738 742.64L75.2203 741.238C71.4415 735.952 67.7947 730.583 64.2836 725.131L62.1676 726.431C58.6332 720.943 55.2353 715.372 51.9777 709.719L54.1593 708.527C50.9271 702.919 47.8341 697.23 44.8839 691.462L42.6417 692.542C39.6804 686.752 36.8619 680.883 34.1899 674.936L36.4872 673.97C33.8451 668.089 31.3472 662.132 28.9973 656.099L26.6504 656.946C24.301 650.914 22.0985 644.808 20.0463 638.627L22.4365 637.9C21.4216 634.843 20.4436 631.768 19.5031 628.676C18.5627 625.583 17.664 622.486 16.8068 619.385L14.3796 619.991C12.6465 613.723 11.0816 607.44 9.68299 601.145L12.141 600.663C10.742 594.366 9.51024 588.058 8.44342 581.741L5.961 582.099C4.8822 575.71 3.97098 569.313 3.22496 562.911L5.72516 562.679C4.98196 556.3 4.40378 549.915 3.98826 543.528L1.47666 543.634C1.05791 537.196 0.803405 530.755 0.71078 524.315L3.22733 524.333C3.13534 517.935 3.20412 511.537 3.43129 505.143L0.915896 505.003C1.1442 498.578 1.5314 492.157 2.07514 485.743L4.58325 486.002C5.12223 479.645 5.81592 473.293 6.66221 466.951L4.16682 466.576C5.01456 460.223 6.01427 453.88 7.1638 447.55L9.6414 448.038C10.7784 441.777 12.0629 435.528 13.4926 429.294L11.0372 428.697C12.467 422.463 14.0412 416.245 15.7573 410.045L18.1862 410.746C19.882 404.62 21.7176 398.511 23.6907 392.423L21.2917 391.621C23.2593 385.55 25.3629 379.5 27.5999 373.473L29.9655 374.37C32.1743 368.42 34.5145 362.493 36.9836 356.591L34.6541 355.602C37.1164 349.717 39.7062 343.858 42.4215 338.027L44.7124 339.103C47.3925 333.348 50.1956 327.621 53.1198 321.924L50.8694 320.765C53.7801 315.095 56.8101 309.454 59.9573 303.847L62.1652 305.085C65.27 299.553 68.4896 294.053 71.8223 288.587L69.6582 287.274C72.9767 281.832 76.4064 276.423 79.9456 271.051L82.0646 272.436C85.5574 267.134 89.1578 261.868 92.8636 256.64L90.7909 255.188C94.4795 249.984 98.2722 244.818 102.167 239.692L104.192 241.208C108.036 236.15 111.98 231.13 116.022 226.151L114.045 224.573C118.064 219.622 122.181 214.712 126.392 209.845L128.321 211.48C132.48 206.674 136.732 201.91 141.075 197.189L139.196 195.499C143.518 190.801 147.931 186.148 152.433 181.539L154.263 183.282C156.495 180.998 158.749 178.724 161.024 176.462C163.773 173.73 166.552 171.015 169.363 168.319L167.589 166.521C173.192 161.145 178.918 155.842 184.761 150.619L186.472 152.476C192.247 147.314 198.138 142.231 204.138 137.234L202.491 135.323C208.472 130.343 214.562 125.448 220.757 120.648L222.338 122.613C225.41 120.232 228.508 117.874 231.631 115.541L231.632 115.541C234.187 113.63 236.762 111.735 239.355 109.855L237.837 107.843C243.017 104.087 248.271 100.394 253.597 96.7689L255.056 98.8224C260.331 95.2323 265.677 91.7097 271.092 88.2607L269.696 86.1661C275.103 82.7225 280.579 79.3518 286.123 76.0602L287.454 78.1949C292.949 74.9325 298.51 71.7483 304.136 68.6481L302.874 66.4741C308.499 63.3747 314.189 60.3589 319.942 57.4324L321.133 59.6446C326.838 56.7431 332.605 53.9301 338.433 51.2114L337.318 48.9624C343.148 46.2431 349.038 43.6176 354.989 41.0914L356.025 43.3756C361.924 40.8713 367.882 38.4652 373.898 36.1632L372.945 33.8457C378.962 31.5428 385.038 29.3432 391.17 27.2528L392.037 29.6015C398.11 27.531 404.239 25.568 410.421 23.7182L409.644 21.3407C415.825 19.4911 422.06 17.7539 428.348 16.1346L429.032 18.538C435.254 16.9358 441.526 15.4497 447.849 14.0849L447.261 11.6586C453.577 10.2953 459.943 9.05242 466.358 7.93518L466.847 10.3807C470.021 9.82788 473.207 9.30598 476.405 8.81568C479.712 8.31014 483.003 7.84261 486.277 7.41191L485.893 4.95051C492.603 4.06794 499.247 3.33909 505.831 2.75387L506.109 5.22695C512.81 4.63134 519.448 4.18528 526.031 3.87802L525.858 1.39773C532.609 1.08258 539.302 0.912663 545.942 0.876483L546.01 3.35949C552.728 3.32289 559.394 3.42386 566.014 3.65045L566.048 1.1689C572.792 1.3997 579.488 1.76018 586.144 2.23774L586.014 4.71422C592.708 5.19446 599.362 5.79374 605.985 6.49925L606.202 4.0306C612.9 4.74413 619.565 5.56571 626.203 6.48207L625.907 8.94102C632.549 9.85787 639.168 10.8702 645.77 11.9647L646.135 9.51618C652.77 10.616 659.387 11.7983 665.994 13.0495L665.57 15.4877C672.156 16.7349 678.733 18.051 685.312 19.4229L685.782 16.994C692.356 18.3651 698.929 19.7913 705.508 21.2592L705.003 23.6806C711.544 25.14 718.093 26.6411 724.659 28.1708L725.187 25.7549C731.72 27.277 738.267 28.827 744.836 30.3918L744.295 32.8049C748.565 33.8222 752.844 34.8456 757.135 35.872C759.396 36.4127 761.66 36.9543 763.929 37.4963L764.471 35.0837C770.988 36.6405 777.533 38.1993 784.114 39.7477L783.579 42.1624C786.849 42.9316 790.127 43.6984 793.416 44.4611L793.424 44.4628L793.431 44.4645C796.683 45.1986 799.921 45.921 803.148 46.6323L803.647 44.2096C810.167 45.6469 816.639 47.039 823.072 48.3921L822.598 50.8201C829.131 52.1942 835.623 53.5279 842.086 54.8275L842.538 52.3949C849.062 53.7069 855.556 54.9843 862.031 56.2334L861.598 58.67C868.127 59.9296 874.635 61.1606 881.133 62.3694L881.548 59.9296C888.067 61.1423 894.577 62.3329 901.088 63.508L900.686 65.9503C907.203 67.1264 913.721 68.287 920.25 69.4388L920.642 66.9948C927.148 68.1424 933.666 69.2813 940.207 70.4183L939.821 72.8634C946.32 73.993 952.841 75.1205 959.394 76.2524L959.776 73.8068C961.445 74.095 963.116 74.3836 964.79 74.6725C969.621 75.5068 974.471 76.3443 979.345 77.1878L978.962 79.6333C985.44 80.7543 991.958 81.8858 998.528 83.0337L998.916 80.589C1005.38 81.7189 1011.9 82.8649 1018.47 84.0327L1018.08 86.4762C1021.32 87.0524 1024.58 87.634 1027.86 88.2215C1031.31 88.8443 1034.74 89.4999 1038.15 90.188L1038.6 87.7558C1045.56 89.1607 1052.41 90.7005 1059.16 92.3727L1058.59 94.7801C1065.45 96.4785 1072.18 98.3138 1078.81 100.283L1079.48 97.9071C1086.29 99.9322 1092.98 102.099 1099.53 104.403L1098.73 106.74C1105.39 109.084 1111.92 111.57 1118.3 114.197L1119.23 111.909C1125.81 114.618 1132.24 117.475 1138.51 120.478L1137.45 122.708C1143.82 125.76 1150.03 128.963 1156.06 132.312L1157.26 130.155C1163.48 133.61 1169.52 137.222 1175.36 140.985L1174.02 143.055C1179.95 146.874 1185.68 150.849 1191.2 154.976L1192.69 153.009C1198.38 157.265 1203.85 161.683 1209.08 166.257L1207.43 168.1C1212.72 172.722 1217.77 177.504 1222.56 182.44L1224.36 180.743C1229.29 185.817 1233.96 191.056 1238.35 196.454L1236.4 197.984C1240.8 203.389 1244.92 208.953 1248.75 214.672L1250.84 213.334C1254.75 219.161 1258.35 225.147 1261.65 231.288L1259.43 232.414C1262.69 238.484 1265.64 244.706 1268.27 251.076L1270.6 250.18C1273.25 256.586 1275.58 263.139 1277.58 269.835L1275.16 270.49C1276.14 273.765 1277.04 277.074 1277.86 280.418L1277.88 280.492L1277.9 280.564C1278.83 283.573 1279.72 286.586 1280.57 289.605L1283 288.988C1284.72 295.097 1286.27 301.226 1287.66 307.37L1285.2 307.862C1286.59 313.998 1287.81 320.149 1288.87 326.312L1291.35 325.946C1292.43 332.177 1293.34 338.418 1294.09 344.664L1291.59 344.904C1291.96 348.015 1292.3 351.126 1292.59 354.239L1292.6 354.311L1292.61 354.383C1293.29 358.776 1293.83 363.184 1294.24 367.603L1296.74 367.431C1297.56 376.351 1297.84 385.316 1297.58 394.293L1295.07 394.17C1294.94 398.585 1294.69 403.004 1294.3 407.423L1294.3 407.438L1294.3 407.453C1294.06 410.583 1293.76 413.763 1293.39 416.985L1295.89 417.315C1295.18 423.565 1294.21 429.97 1292.97 436.465L1290.5 435.955C1289.32 442.111 1287.9 448.348 1286.21 454.609L1288.65 455.295C1286.99 461.439 1285.08 467.606 1282.9 473.745L1280.52 472.88C1278.41 478.833 1276.04 484.756 1273.4 490.603L1275.7 491.653C1273.07 497.482 1270.17 503.238 1266.99 508.872L1264.78 507.629C1261.67 513.141 1258.29 518.533 1254.62 523.76L1256.7 525.202C1253.03 530.444 1249.06 535.525 1244.81 540.4L1242.88 538.756C1238.73 543.508 1234.3 548.059 1229.56 552.37L1231.29 554.211C1226.57 558.512 1221.55 562.578 1216.22 566.369L1214.72 564.345C1209.61 567.986 1204.21 571.368 1198.5 574.456L1199.75 576.639C1194.16 579.667 1188.29 582.415 1182.12 584.851L1181.14 582.543C1175.33 584.841 1169.24 586.856 1162.88 588.561L1163.59 590.958C1157.46 592.602 1151.08 593.959 1144.44 595.006L1143.99 592.553C1140.85 593.048 1137.65 593.473 1134.38 593.824C1131.23 594.131 1128.08 594.407 1124.92 594.658L1125.17 597.134C1118.81 597.64 1112.44 598.048 1106.07 598.407L1105.88 595.928C1099.89 596.265 1093.92 596.56 1087.94 596.855L1086.77 596.912L1086.95 599.392C1080.56 599.708 1074.18 600.025 1067.83 600.397L1067.63 597.919C1061.22 598.293 1054.83 598.724 1048.47 599.263L1048.74 601.736C1042.36 602.276 1036.02 602.924 1029.72 603.735L1029.34 601.273C1022.97 602.093 1016.63 603.079 1010.33 604.287L1010.86 606.725C1004.62 607.922 998.422 609.338 992.29 611.028L991.566 608.635C985.407 610.332 979.302 612.302 973.263 614.601L974.212 616.92C968.361 619.148 962.576 621.687 956.867 624.587L955.677 622.374C952.844 623.813 950.029 625.34 947.232 626.961C944.214 628.684 941.274 630.45 938.41 632.256L939.797 634.356C933.924 638.059 928.37 641.933 923.097 645.958L921.53 643.982C915.993 648.208 910.762 652.599 905.796 657.129L907.526 658.968C902.465 663.585 897.681 668.35 893.126 673.237L891.257 671.535C886.569 676.565 882.127 681.719 877.879 686.971L879.86 688.545C875.593 693.82 871.522 699.198 867.595 704.651L865.533 703.184C861.556 708.707 857.729 714.301 854.002 719.936L856.118 721.324C852.39 726.96 848.758 732.644 845.168 738.347L843.022 737.005C840.228 741.442 837.46 745.893 834.697 750.335C833.898 751.619 833.099 752.903 832.301 754.185L834.453 755.517C830.886 761.246 827.309 766.965 823.669 772.645L821.534 771.287C817.905 776.95 814.218 782.568 810.419 788.114L812.513 789.534C808.707 795.09 804.787 800.578 800.699 805.97L798.672 804.456C796.65 807.123 794.588 809.764 792.479 812.378L792.458 812.404L792.437 812.432C789.975 815.667 787.514 818.861 785.053 822.016L787.059 823.557C782.008 830.029 776.953 836.335 771.882 842.482L769.916 840.89C767.332 844.022 764.744 847.113 762.15 850.163Z" stroke="#FFB800" stroke-width="5" stroke-dasharray="20 20"/>
</svg>
