<svg xmlns="http://www.w3.org/2000/svg" viewBox="0 0 500 523.03"><defs><style>.cls-1{fill:#9ffcdc;}</style></defs><title>blob</title><g id="Layer_2" data-name="Layer 2"><g id="Layer_1-2" data-name="Layer 1"><path class="cls-1" d="M471.43,263.63c22.73,23.55,34.41,57.89,25.65,89.73a113.76,113.76,0,0,1-11.42,28.35A261.2,261.2,0,0,1,42.73,416a250.1,250.1,0,0,1-21.08-34.15C5.05,349.28-4.07,312.75,1.77,275.49c7.3-46.4,35.4-79.64,62.78-117.27,20.44-28.5,36.14-54.8,55.12-84.39C150,26.7,199.24-2.16,253.61.13a254.42,254.42,0,0,1,39.74,3,151.23,151.23,0,0,1,27.46,5.57c36.84,10.73,82.83,38.5,73,83.8-5.84,25.2-18.25,49.32-9.49,74.89,12,36.17,47.81,54.07,72.19,80.29C461.81,253,466.78,258.35,471.43,263.63Z"/></g></g></svg>