<svg xmlns="http://www.w3.org/2000/svg" viewBox="0 0 58 58"><defs><style>.cls-1{fill:#b384ff;}.cls-2{fill:#fff;}</style></defs><title>coalition-3</title><g id="Layer_2" data-name="Layer 2"><g id="Layer_1-2" data-name="Layer 1"><circle class="cls-1" cx="29" cy="29" r="29"/><path class="cls-2" d="M26.56,26h1.71a9.76,9.76,0,0,0,1.44-.11A4.32,4.32,0,0,0,31,25.5a2.77,2.77,0,0,0,1-.84,2.74,2.74,0,0,0,.34-1.44,2.28,2.28,0,0,0-.91-1.86,3.29,3.29,0,0,0-2.17-.73,3,3,0,0,0-2,.67,3.07,3.07,0,0,0-1.06,1.64l-5.77-1.19A7.82,7.82,0,0,1,21.59,19a6.84,6.84,0,0,1,2-1.85,8.47,8.47,0,0,1,2.56-1,12.86,12.86,0,0,1,3-.35,11.63,11.63,0,0,1,3.15.42A7.42,7.42,0,0,1,35,17.48a6,6,0,0,1,1.82,2.13,6.37,6.37,0,0,1,.7,3.08,5.81,5.81,0,0,1-1.08,3.54,5,5,0,0,1-3.15,1.89v.11a4.7,4.7,0,0,1,2,.66,5.38,5.38,0,0,1,1.47,1.29,5.72,5.72,0,0,1,.91,1.75A6.79,6.79,0,0,1,37.94,34a6.94,6.94,0,0,1-.74,3.26,6.82,6.82,0,0,1-1.92,2.34A8.34,8.34,0,0,1,32.44,41a12.69,12.69,0,0,1-3.43.45,10.41,10.41,0,0,1-5.74-1.54A7.49,7.49,0,0,1,20.12,35l5.53-1.29a3.82,3.82,0,0,0,1.12,2.1,3.77,3.77,0,0,0,2.56.77,3.25,3.25,0,0,0,2.51-.87,3.3,3.3,0,0,0,.85-2.32,2.5,2.5,0,0,0-.46-1.6,2.45,2.45,0,0,0-1.12-.88,4.82,4.82,0,0,0-1.58-.32c-.58,0-1.16-.07-1.75-.07H26.56Z"/></g></g></svg>