<svg id="Layer_1" data-name="Layer 1" xmlns="http://www.w3.org/2000/svg" xmlns:xlink="http://www.w3.org/1999/xlink" viewBox="0 0 1300 4316"><defs><style>.cls-1{fill:none;stroke:#ff4820;stroke-width:5px;stroke-dasharray:20 20;}.cls-2{fill:url(#linear-gradient);}.cls-3{fill:url(#linear-gradient-2);}</style><linearGradient id="linear-gradient" x1="648.62" y1="-34.8" x2="648.62" y2="221.47" gradientUnits="userSpaceOnUse"><stop offset="0.3" stop-color="#fff"/><stop offset="1" stop-color="#fff" stop-opacity="0"/></linearGradient><linearGradient id="linear-gradient-2" x1="647.92" y1="4064.63" x2="647.92" y2="4320.9" xlink:href="#linear-gradient"/></defs><title>fellowship_line (fade)</title><path class="cls-1" d="M740.2,11.1S99.8,90.4,65.8,764.9c0,0-85,544.1,906.8,595.1,0,0,362.7,34,306,425.1s-538.4,436.4-725.4,481.7c0,0-413.7-39.7-527.1,351.4S360.5,3168,570.2,3224.6s436.4,209.7,464.7,430.7-85,413.7-396.7,549.8c0,0-62.3,34-73.7,130.4"/><rect class="cls-2" x="-2.37" y="-0.3" width="1301.98" height="217.06"/><rect class="cls-3" x="-3.08" y="4099.13" width="1301.98" height="217.06" transform="translate(1295.83 8415.31) rotate(180)"/></svg>