<svg xmlns="http://www.w3.org/2000/svg" viewBox="0 0 361.28 229.12"><defs><style>.cls-1{fill:#9ffcdc;}.cls-2{fill:#0ff8a8;}.cls-3{fill:#0b1d38;}.cls-10,.cls-4,.cls-8,.cls-9{fill:none;}.cls-10,.cls-4,.cls-7,.cls-9{stroke:#0b1d38;stroke-width:1.24px;}.cls-10,.cls-4,.cls-7,.cls-8{stroke-linecap:round;}.cls-4,.cls-8,.cls-9{stroke-miterlimit:10;}.cls-5,.cls-7{fill:#b385ff;}.cls-6{fill:#5772ff;}.cls-10,.cls-7{stroke-linejoin:round;}.cls-8{stroke:#0ff8a8;stroke-width:2.47px;}</style></defs><title>about the fellowship</title><g id="Layer_2" data-name="Layer 2"><g id="Layer_1-2" data-name="Layer 1"><circle class="cls-1" cx="148.91" cy="103.94" r="100"/><path class="cls-2" d="M249,105.24a35.4,35.4,0,0,1-9.9,1.24,35.81,35.81,0,0,1-8.66-1.24Q231,96,231.67,86.68a14.66,14.66,0,0,1,17.32,0Z"/><path class="cls-3" d="M249.84,85.88c.56.35-.07,2.43-.82,4.43l0,.08h1.24c-.22.34-4.45,6.61-11.14,6.19a9.83,9.83,0,0,1-7.42-3.72c-2.76-3.73-1.4-8.17-1.24-8.66,3.33,4.38,7.26,8,11.13,7.43C245.91,91,248.85,85.28,249.84,85.88Z"/><path class="cls-2" d="M346.73,203a28.52,28.52,0,0,1,5.41,3.37c2,1.61,2,2.06,3.64,3s2.75,1.17,4.18,2.58c.31.3,1.57,1.54,1.27,2.07s-1.74.16-2.46-.07c-1.08-.34-1.24-.72-2.5-1.2-1-.39-1.89-.72-2.2-.4s-.14.86,2.22,5.12a28.29,28.29,0,0,1,1.75,3.37c.54,1.38,1.26,3.77.72,4.06-.36.19-1.17-.63-1.59-1.07a11.81,11.81,0,0,1-2-3.06c-.76-1.4-1.36-2.5-2.12-3.73a7.8,7.8,0,0,0-1.2-1.7c-.11.06.53,1.28,1.24,3.5.43,1.34.35,1.37.7,2.35.58,1.61.95,2,1.53,3.34s1.41,3.82,1,4.08-2.17-1.48-3.18-3.46c-.56-1.11-.51-1.54-1.34-3.11-.56-1.07-.71-1.09-1.39-2.3-1.15-2-1.56-3.4-1.67-3.36a19.31,19.31,0,0,0,1,3.7,34.33,34.33,0,0,0,1.22,3.53,9.78,9.78,0,0,1,1.09,3c.1.64.2,1.26,0,1.36-.5.24-2.42-2.46-3.78-5a63.48,63.48,0,0,1-2.8-6.39c-.05,0,.17.67.37,1.9.06.35.13.82.21,1.69.25,2.53.38,3.8.16,3.86s-1.43-2.57-2.34-5.15a82.84,82.84,0,0,1-3.23-12.25,21.7,21.7,0,0,0,2.75-1.28A19.45,19.45,0,0,0,346.73,203Z"/><path class="cls-2" d="M144.78,204.22a38.54,38.54,0,0,0-4.17,2,58.33,58.33,0,0,0-5.55,3.75,14.38,14.38,0,0,0-3.24,2.81c-.2.25-2,2.53-1.44,3.17s2.15,0,3.31-.93c.82-.63.8-1,1.8-1.81.28-.22,1.92-1.54,2.45-1.15s-.32,2.42-.64,3.17a20.47,20.47,0,0,1-2.07,3.52c-1.39,2.13-3.26,5.74-2.55,6.36.41.34,1.64-.28,2.38-1s.52-1.39,1.59-3.32a38.25,38.25,0,0,1,2.16-3.17c.55-.77.83-1.13.94-1.08s.16.14-.51,2.09-1.38,3.5-1.53,3.84a41.78,41.78,0,0,0-1.93,4.09c-.38,1.08-.76,2.21-.36,2.52s1.26-.21,1.8-.65c1.28-1,1.11-2.16,2.38-5,.52-1.15.42-.77,1.59-3.17,1.24-2.55,1.57-3.44,1.73-3.39s-.12,2.31-.72,4.4c-.57,1.93-1.43,3-2,5.62-.28,1.22-.29,1.77-.07,1.87s1.06-.73,1.29-1a11.75,11.75,0,0,0,1.66-3.1c.88-1.89,1.32-2.84,1.59-3.46,1.11-2.57,1.55-3.88,1.68-3.84s0,.32-.39,2.55a13.69,13.69,0,0,1-.5,2.37c-.32.93-.53.91-.79,1.73-.32,1-.48,2.34-.08,2.53s.65-.24.87-.44a4.41,4.41,0,0,0,1.22-2.23c.33-1.08.69-2.16,1-3.24.43-1.47.79-2.25,1-3,1.06-3.64,2.11-8.77,2.29-9.65a20.23,20.23,0,0,1-2.75-1.27A20.51,20.51,0,0,1,144.78,204.22Z"/><ellipse class="cls-2" cx="239.71" cy="52.03" rx="29.08" ry="42.07"/><circle class="cls-3" cx="226.1" cy="48.94" r="1.86"/><circle class="cls-3" cx="250.84" cy="48.94" r="1.86"/><path class="cls-3" d="M239.09,78a9.16,9.16,0,0,0,6.18-2.48,10.55,10.55,0,0,1-4.12,1.24,11.57,11.57,0,0,1-2.06,0A11,11,0,0,1,235,75.54a15.31,15.31,0,0,1-2.07-1.23A8.65,8.65,0,0,0,239.09,78Z"/><path class="cls-4" d="M237.85,68.12s3.71,1.24,2.48-3.71-1.24-18.56,2.47-21"/><path class="cls-5" d="M245.89,41.52c-.22-.35.92-1.66,2.27-2.45a8.15,8.15,0,0,1,5.78-.65c3.66.73,6.21,3.18,6.05,3.45s-3.06-2.32-7.29-2.21C248.89,39.76,246.22,42,245.89,41.52Z"/><path class="cls-5" d="M232.75,41.52c.22-.35-.92-1.66-2.26-2.45a8.15,8.15,0,0,0-5.78-.65c-3.66.73-6.21,3.18-6.06,3.45s3.07-2.32,7.29-2.21C229.76,39.76,232.43,42,232.75,41.52Z"/><path class="cls-5" d="M239.09,24.81c.8,1.2,6.31,9.09,16.08,9.9a20.52,20.52,0,0,0,10.48-2s2.84,8,3,14.91A46.56,46.56,0,0,0,270,21.1c-1.26-5-2.91-11.39-8.66-16.08-9.7-7.91-23-4.23-24.74-3.72-3.46-.37-12.43-.82-19.8,5-10.32,8.08-10,22.44-9.9,26,.07,3,.48,4.35,3.71,19.79h0q.62-6.18,1.24-12.37A54.79,54.79,0,0,0,223,36,55.72,55.72,0,0,0,239.09,24.81Z"/><ellipse class="cls-2" cx="270.02" cy="56.98" rx="9.9" ry="6.19" transform="translate(164.69 312.06) rotate(-79.48)"/><ellipse class="cls-2" cx="208.16" cy="58.22" rx="6.19" ry="9.9" transform="translate(-7.6 45.26) rotate(-12.19)"/><path class="cls-6" d="M347.61,203.39a5.3,5.3,0,0,1-2.31,3.7,6,6,0,0,1-4.67.46c-21.1-17-34.31-32.45-42.63-43.76-4.65-6.32-14.59-20.63-18.08-19-1.12.54-1.2,2.55-1.24,3.71-.45,15.92,1.63,38.58,1.24,53.21-.16,6.09-.24,9.14-1.24,11.13-9.39,18.82-61.4,20-73,0-1.15-2-1.76-3.95-2.47-8.66-4.93-32.62,6.31-58.16,2.47-59.95-2.68-1.24-10.29,10.31-17.49,20.28a367.86,367.86,0,0,1-37.38,44,7.09,7.09,0,0,1-3.6-1.16,7.21,7.21,0,0,1-2.61-3.15c.48-1.62,1.16-3.85,2.06-6.48a181.45,181.45,0,0,1,7-16.86,261.87,261.87,0,0,1,15.83-28.51,264.81,264.81,0,0,1,23.81-32.34c7.12-8.24,10.6-11.19,14.85-13.61a47,47,0,0,1,22.59-6,10.59,10.59,0,0,0,10.81,4.71c5.12-1,7.24-5.75,7.43-6.19a76.83,76.83,0,0,1,22.1,6c11.42,5.1,22.83,13.69,44.48,45A490.61,490.61,0,0,1,347.61,203.39Z"/><path class="cls-6" d="M278.68,140.46v3.26l-1.15-1.2C277.94,141.84,278.32,141.16,278.68,140.46Z"/><path class="cls-5" d="M57.21,81.73l1.85,11.13a14.82,14.82,0,0,0,15.47.62V82.35a25.18,25.18,0,0,1-17.32-.62Z"/><path class="cls-3" d="M70.07,74.31H63.35a7.89,7.89,0,0,0-7.89,7.89c1.33.09,2.93.3,3,.77v0c.24.3,3.58,4.26,8.66,3.69a9.84,9.84,0,0,0,6.19-3.34V83h0L77,78a8.76,8.76,0,0,0-1.35-1.4A10.28,10.28,0,0,0,70.07,74.31Z"/><path class="cls-5" d="M149.39,108.33a47.78,47.78,0,0,0,5.92-8.52,7.93,7.93,0,0,1,3.1-3.43c1.05-.59,2.53-1,2.85-.57s-.64,1.73-1.06,2.28c-.87,1.15-1.34,1.21-2,2.12s-1.22,2.52-.81,2.86c.59.49,2.48-2.23,6.68-3.84a16.7,16.7,0,0,1,5.55-1.06c1.41,0,3.46,0,3.5.41,0,.08,0,.3-2.85,1.23-2.07.68-2.61.75-3.6,1.1-2.69.92-4.73,2.45-4.63,2.65s2.24-.92,6.27-2a17.8,17.8,0,0,1,4.57-.57c.67,0,2.46,0,2.53.41s-1.81,1.12-3.1,1.46a34.49,34.49,0,0,0-3.67.82,14,14,0,0,0-1.88.9,33.86,33.86,0,0,0-4.4,2.44c.09.19,4.65-2.53,10.36-2.44.35,0,2.86,0,2.93.57s-1.72,1.08-2.12,1.22a26.39,26.39,0,0,1-3.15.68,16.2,16.2,0,0,0-2.92,1.11c-1.79.8-4,2-3.9,2.24s1.3-.19,3.77-.87a9.83,9.83,0,0,1,3.91-.5c.7.07,1.12.12,1.16.31.17.73-5.13,2.57-10.35,4.38-1.32.45-2,.68-2.62.88-2.54.77-3.27.76-4.48,1.38a9,9,0,0,0-2.73,2.18,9.76,9.76,0,0,0-2.87-9.87Z"/><path class="cls-6" d="M25.29,173.52c-1.05,2.94-2.47,7.09-4,12.14-1.78,6-2.67,9-2.48,9.9,2,10.16,36.12,10,61.87,9.9,11-.05,20.65-.54,23.5-6.19,1.21-2.38.67-4.64-1.23-11.13-4.69-16-9.15-28.51-11.14-42.07-.4-2.73-1.36-9.48,0-9.9,1.18-.36,3,4.35,6.19,8.66,4.4,5.91,13.76,14.14,23.51,13.61s16.31-10.05,22.27-18.56c3-4.32,4.57-7.83,6.87-13.06,2.66-6,3.19-8.83,3-11.68-.14-2.26-.4-6.7-2.48-7.43-3.53-1.23-8.32,9.7-22.27,21-6.4,5.2-8,5.05-8.66,4.95-6.22-1.06-5.59-13.92-17.32-28.46-3.7-4.58-5.81-6.63-9.33-8.31C85,92.8,77,96.5,77,92.86c0-4.5-.81-6.25-1.58-6.51s-1.57,1-2.13,1.57c-1.7,1.72-5.61,2.74-15.46-.62a5.62,5.62,0,0,0-1.24,1.23c-1.73,2.34-.85,4.82-1.24,6.19-1.17,4.09-15.12.26-24.14,4.56-6.91,3.29-14.21,9.51-20.4,21.42-4,7.66-15.93,26.51-8.34,38.88,1.73,2.82,4.78,4.63,10.81,8.14,3.1,1.8,32.8,18.85,39.6,11.14.85-1,1.69-2.74,1.23-6.19-17-5.33-28.51-15-28.45-24.75,0-5.88,4.29-12.15,5.56-11.75,1.42.45-.09,9.41-1.85,17.94"/><path class="cls-5" d="M52.54,173.27l5.49-.8c1.84-.27,3.71-.46,5.54-.79a11.27,11.27,0,0,1,3.57-.4c1.88.21,3.71,1.13,3.63,1.66,0,.38-1.12.54-1.45.59a5.62,5.62,0,0,1-1.85-.07c-1.84-.19-3.94,1.59-3.76,2.18s3.09-.4,7.64.15c3.87.47,7.71,2,7.61,2.74-.06.44-1.39.64-2,.68-1.3.09-1.81-.36-3.56-.79a18.46,18.46,0,0,0-4-.47c-1.15,0-3.14,0-3.17.2s.7.29,2.84.86,1.63.48,3.37.93c3.26.84,3.74.82,4.43,1.45,1,1,1.56,2.48,1.18,2.84s-1.21-.4-3-1.12a23.93,23.93,0,0,0-4.5-1.13c-2.64-.51-6-1-6.07-.72s2.83,1.2,5.74,1.85c2.43.54,3.83.61,5.16,1.85.81.75,1.53,1.88,1.25,2.24s-1.58-.4-4.41-1.3a38.93,38.93,0,0,0-5.43-1.27,18.08,18.08,0,0,0-4.09-.47,17.69,17.69,0,0,0,3.3,1.06c2.56.74,2.91.78,3.56,1.19,1.56,1,2.67,2.6,2.38,3s-1.58-.36-2.84-.92c-3.44-1.54-4.79-1.37-9.84-2.65a86.72,86.72,0,0,1-10.12-3.24,6,6,0,0,0,3.72-2.48A6.18,6.18,0,0,0,52.54,173.27Z"/><ellipse class="cls-5" cx="66.49" cy="50.18" rx="30.31" ry="34.03"/><circle class="cls-3" cx="57.83" cy="50.18" r="1.86"/><circle class="cls-3" cx="81.95" cy="52.03" r="1.86"/><path class="cls-3" d="M75.15,66.26A6.83,6.83,0,1,1,61.54,65a13.17,13.17,0,0,0,13.61,1.23Z"/><path class="cls-7" d="M66.49,60.08H69s-2.47-7.43,0-13.61"/><path class="cls-8" d="M51.64,40.28s3.71-2.47,7.42-2.47"/><path class="cls-8" d="M78.78,38.08S83.24,38,86.36,40"/><ellipse class="cls-9" cx="55.35" cy="56.36" rx="8.66" ry="6.19"/><ellipse class="cls-9" cx="80.1" cy="57.6" rx="8.66" ry="6.19"/><path class="cls-10" d="M64,54.89s3.77-3.47,7.49.24"/><path class="cls-2" d="M68.34,21.1a70.46,70.46,0,0,1-9.45,10.21,71.17,71.17,0,0,1-21.28,13q-.09,3.26-.2,6.52l-1.24-1.24-1.23-1.24c-.66-.65-3.42-3-4.95-2.47s-2.09,4.51-1.24,7.42c1.69,5.83,8.61,7.8,9.48,8C39.38,65,42.6,73.46,51,79.25A30.77,30.77,0,0,0,58.45,83c0,.6.08,1.2.13,1.79.06.94.13,1.88.2,2.82a2.33,2.33,0,0,0-1.57.32c-1.16.75-1.36,2.68-1.24,3.71,0,.26.07.89.08,1.77a3.26,3.26,0,0,1-.08.7,6.4,6.4,0,0,1-1.24,2.48c-1.58,2-19.14,8.6-30.93,0-13.56-9.9-10.1-33.07-8.66-42.07A95.26,95.26,0,0,1,29.31,22.29a29,29,0,0,1,4.39-4.9C36.49,14.83,45.4,6.93,58.44,6.25A35.28,35.28,0,0,1,69.58,7.49c16.19.49,23,7.8,24.75,9.9,8.06,9.61,7,24.69,6.18,35.88-.62,8.69-2.17,10-1.23,16.09,1.59,10.33,7.21,14.51,4.94,21a12.23,12.23,0,0,1-7.42,7.42c-1.81.59-2.14-.2-11.14-1.23C80.52,96,78,95.34,77,94.1c-1.75-2.2-.72-5.52-2.47-6.18a1.92,1.92,0,0,0-1.24,0V83.34A33.14,33.14,0,0,0,90.61,70.59a32.34,32.34,0,0,0,5-12.37A35.13,35.13,0,0,0,91.85,36a54.32,54.32,0,0,1-11.13-5A54.77,54.77,0,0,1,68.34,21.1Z"/><path class="cls-5" d="M37.41,50.8a9.83,9.83,0,0,0,0,5c.46,1.63.72,3.33,1.24,5a1.68,1.68,0,0,1,0,1.23,1.54,1.54,0,0,1-.62.62c-1,.56-6.9-1.75-9-7-1.63-4.07-.9-9.7,1.48-10.41C32.38,44.61,35.18,47.09,37.41,50.8Z"/></g></g></svg>