<svg xmlns="http://www.w3.org/2000/svg" viewBox="0 0 340.61 248.65"><defs><style>.cls-1{fill:#d1b6ff;}.cls-2{fill:#0ff8a8;}.cls-3{fill:#b385ff;}.cls-4{fill:#5772ff;}.cls-5{fill:#0b1d38;}.cls-6,.cls-7{fill:none;stroke-linecap:round;stroke-linejoin:round;}.cls-6{stroke:#0c1d37;stroke-width:1.18px;}.cls-7{stroke:#0b1d38;stroke-width:0.72px;}</style></defs><title>community_2</title><g id="Layer_2" data-name="Layer 2"><g id="Layer_1-2" data-name="Layer 1"><circle class="cls-1" cx="168.01" cy="100" r="100"/><path class="cls-2" d="M8.89,207.06c-.68.65-1.42,2.11-2.89,5.05a74.74,74.74,0,0,0-3.75,9c-1.4,4-2.07,6-2.2,7.55-.46,5.66,2.29,10.47,2.68,10.37A15.65,15.65,0,0,1,2.58,237a9.64,9.64,0,0,1,.54-2.52c.63-2.09.19-2.37.72-5A22,22,0,0,1,5,225.56a28.41,28.41,0,0,0-2.09,7,20,20,0,0,0-.41,3.86c.09,5.14,3.39,10.11,4.62,9.77,1-.28-.08-4,1.09-11.79.62-4.2,1.42-6.29,1.26-6.33s-2.1,5.3-2.84,11.34a9,9,0,0,0,.23,4.19c.95,3,3.69,5.44,4.72,4.94,1.32-.64-1.43-5.52.23-12.7a26.42,26.42,0,0,1,1.44-4.32,21.36,21.36,0,0,0-1.76,6.38c-.39,3.22.19,4.53.53,5.17.66,1.2,2,2.61,2.85,2.32s.62-2.15,1.26-6.67a35,35,0,0,1,1.44-6.48c.6-1.73,2-5.27,2.86-5.1s.77,3.9.74,5.82c-.05,4.12-.72,6.14,0,6.48s2.72-2,2.88-2.16a10.13,10.13,0,0,0,1.85-3.64c1.12-4.27,1-9.41,1-12.21.19-8.32,2.59-9,1.2-11.73C25.34,204.3,13.54,202.63,8.89,207.06Z"/><path class="cls-2" d="M332.36,204.9a52.7,52.7,0,0,1,5.05,9.37,37.25,37.25,0,0,1,3,10.34c.66,5.59-.34,10.55-.82,10.55-.33,0-.35-2.31-1.44-7.2a25.38,25.38,0,0,0-1.44-5.05c-.09,0,2.71,6,.72,11.53-.6,1.67-1.77,3.73-2.16,3.6s-.09-1,0-2.16a27,27,0,0,0-.72-7.92,18.52,18.52,0,0,0-1.46-4.56,21.32,21.32,0,0,1,1.46,8.88c-.27,3.44-1.59,6.57-2.17,6.48s-.19-2.38-.72-6.48c-.65-5.08-2-8.68-2.16-8.65a27.67,27.67,0,0,1,.72,7.21c-.14,2.66-.8,5.77-1.44,5.76-.37,0-.63-1.08-1.44-5-1.57-7.69-1.9-9.94-2.88-10.09s-2.06,1.95-2.16,2.16c-.68,1.36-.41,2.21-.72,4.33,0,.26-.65,4.27-1.47,4.3s-1.61-3.32-1.89-6.2a55.6,55.6,0,0,1,.48-8.19c.2-2.22.45-4.61.72-7.2.11-1.13.21-2.07.28-2.69a10.18,10.18,0,0,0,6,1A10.38,10.38,0,0,0,332.36,204.9Z"/><path class="cls-3" d="M294.9,96.11l-64.12-2.88c.77-2.64,1.86-6.61,2.88-11.52.74-3.55,1.13-6,1.44-7.93,2-12.13,2.94-18.25,4.33-20.17,8.38-11.6,36.43-9,43.22,2.16a35.57,35.57,0,0,1,2.89,7.2c2.19,6.86,2.13,11.21,2.88,15.85A48.91,48.91,0,0,0,294.9,96.11Z"/><path class="cls-4" d="M332.36,208.5c-2.45,3.55-8.45,5-12.24,2.89-3.21-1.76-4-5.53-5.05-10.09-2.43-10.44-6.29-20.52-8.64-31-3.73-16.6-4.61-20.24-5-20.17-.86.12.91,14.34.72,35.3-.16,17.47-1.48,19.94-2.89,21.61-5.87,7-17,6.31-37.46,5.05-15-.93-22.62-1.48-26.66-5.77-6.37-6.78-2.7-15.61-2.88-36.74-.18-22.3-.27-33.45-5.69-40.83-12.81-17.49-50.28-22.65-63.77-24.45-2.31-.31-10.44-1.3-15.95-7.44-.5-.57-6.23-7.09-4.25-11.69,2.67-6.19,17.69-5.12,29.76-4.26a162.27,162.27,0,0,1,34,6.38c7.45,2.13,14.28,4.57,22.32,7.44,7,2.51,12.84,4.74,17,6.38h37.2a49.24,49.24,0,0,1,11.62,1.4c2.22.55,9.45,2.43,14.95,7.1,4.44,3.77,6.84,8.58,10,19.63,6.07,21.56,3.38,26.18,8.64,46.82,1.57,6.17,2.23,12.53,3.6,18.74C333.33,202.43,334.33,205.66,332.36,208.5Z"/><path class="cls-4" d="M207.4,88.38c1.94,4.55-.48,10.37-3.19,13.81-10,12.72-29.94-.33-53.14,9.57-16.06,6.85-29.51,22.89-32.68,39.11-.77,3.95-.51,12.72,0,30.26.64,21.65,1.54,22.73,0,25.93-10,20.81-70,20.15-77.8,2.16-.76-1.73-.52-7.9,0-20.17.63-15.21,1.37-22.23.72-22.33-.91-.14-4.14,13-6.49,25.21C31.49,209.3,32,214,27.62,217.15c-5.88,4.2-16.51,2.72-20.9-2.88-3.45-4.41-1.49-9.38,1.45-23.78,6.54-32.13,2.35-33.53,10-53.22,5.55-14.22,9.26-23.74,18.78-28.19,4.53-2.11,11.7-2.67,25.86-3.7,7.44-.54,13.62-.76,17.9-.87,5.33-1.85,13.1-4.52,22.49-7.63,26.5-8.77,39.75-13.16,50-14.88C156.82,81.39,201.36,74.17,207.4,88.38Z"/><path class="cls-4" d="M236.1,118.14c-2.58,1.39-12.75,6.88-17.57,17.6-3,6.66-2.33,11.82-1.44,23.77,2,26.37,3,39.55-.72,44.67-7.23,10-24,9.42-44.66,8.65-18.91-.71-29.35-1.11-35.31-8.65s-1.19-14.62-3.4-44.59c-1-13.53-1.57-20.39-4.63-25.45-10.13-16.74-34-19.82-38.17-20.36-10.19-1.32-22.37-.3-24.35-.13-13.66,1.18-19.4,3.82-23.2.24-4-3.79-4-12.77,0-18.07,3.52-4.67,9-5,34-5.32,35.49-.4,39.42.18,43.58,1.06,4.5,1,12.21,3.12,27.64,7.44,6.22,1.75,11.36,3.23,14.88,4.26h17c5.77-1.14,14.73-3.11,25.52-6.38,15.08-4.57,15.81-6.25,25.51-8.5,12-2.8,20.72-2.6,37.2-2.13,23.16.67,26.91,3.91,28.7,6.38,3,4.16,3.88,10.81,1.06,13.82-3.44,3.67-9.48-1.21-22.32,0-1.74.16-2.31.31-19.13,5.31C243.38,115.6,243.83,114,236.1,118.14Z"/><rect class="cls-2" x="65.75" y="83.18" width="19.49" height="30.71" rx="9.74"/><path class="cls-5" d="M75.17,104.76a11.9,11.9,0,0,1-6.49-2.16,12.79,12.79,0,0,1-2.93-2.73c0-1.25,0-2.5,0-3.76H85.25c0,1.26,0,2.51,0,3.76a13.47,13.47,0,0,1-4.3,3.45A11.88,11.88,0,0,1,75.17,104.76Z"/><path class="cls-2" d="M260.55,108.57a7.46,7.46,0,0,1-7.44-7.44V88.38H268v12.75A7.46,7.46,0,0,1,260.55,108.57Z"/><path class="cls-5" d="M260.32,94.67a10.14,10.14,0,0,1-7.21-3.62V79H268V91.55A10.18,10.18,0,0,1,260.32,94.67Z"/><rect class="cls-3" x="162.76" y="86.25" width="17.01" height="27.64" rx="8.5"/><path class="cls-5" d="M174.59,100.44a11,11,0,0,1-7.93-.72,12.08,12.08,0,0,1-3.9-2.94V94l17,.07v2.68A10.62,10.62,0,0,1,174.59,100.44Z"/><ellipse class="cls-2" cx="75.49" cy="66.71" rx="27.16" ry="35.43"/><ellipse class="cls-2" cx="104.23" cy="65.06" rx="8.74" ry="6.7" transform="translate(4.58 136.93) rotate(-67.77)"/><ellipse class="cls-2" cx="46.36" cy="65.06" rx="6.7" ry="8.74" transform="translate(-21.16 22.37) rotate(-22.23)"/><path class="cls-3" d="M57.47,103.78a46.66,46.66,0,0,1-3.9,15.43,23,23,0,0,1-4,6.66c-.41.47-3.09,3.56-4.12,3-.69-.38-.38-2.27-.26-3a12.22,12.22,0,0,1,1.27-3.45c.9-2,2-4.43,1.5-4.86-.75-.63-5.6,2.59-9.18,7.3-1.76,2.32-2.28,3.77-4.46,5.13-2.5,1.56-5.61,2-6,1.23S30,129.45,32.07,126c1.48-2.44,1-2.77,2.21-4.76a18,18,0,0,1,6.82-6.21A26.11,26.11,0,0,0,34.17,122c-1.19,1.79-2.51,3.49-3.75,5.24a6.63,6.63,0,0,1-2.58,2.51c-1.35.65-3.27.85-3.67.15s1.15-2,2.92-4.64c2-3,2-4.43,3.26-6.78a19.08,19.08,0,0,1,7.76-7.52,20.42,20.42,0,0,0-7.76,7.52c-1.19,2.1-2,4.53-4.68,6.55-1.59,1.19-3.54,2-3.9,1.57s1.53-2.13,3-5.35c1.11-2.38,1-3.54,1.61-5.58,1.38-4.83,4.63-8,9.26-12.39,1.38-1.33,2.88-2.52,5.88-4.91,5.33-4.24,6.57-4.67,7.81-4.8a8.07,8.07,0,0,1,7.1,2.79C57,97,57.84,98.39,57.47,103.78Z"/><path class="cls-2" d="M149.23,89.78a14.33,14.33,0,0,1-2,8,11.36,11.36,0,0,1-3,4c-2.61,2.08-6.14,2.61-6.47,2-.23-.44,1.09-1.62,1.49-2,1-.91,1.48-.89,2-1.49,1.11-1.25,1.17-3.61.47-4-1-.5-4.33,2.15-5,5.4-.24,1.22,0,1.93-.51,3.55-.39,1.18-1.31,3.09-2,3-.9-.15-1.12-3.89-1-6.46a25.7,25.7,0,0,1,1.49-7.46s-.4,1.24-1,4c-1.51,6.89-1.35,10.39-2,10.44s-1.66-3.38-1.87-6.84a25.26,25.26,0,0,1,.87-8.08,35.25,35.25,0,0,0-1,5.47c-.51,4.45-.16,6.92-.5,7s-1.31-3.13-1.49-6.46c-.08-1.57,0-3,0-3s.22,6.87-.49,7-2.45-4-1.5-8c.86-3.58,3.67-5.71,6-7.45a21.26,21.26,0,0,1,7-3.48c3.52-1.1,6.45-2,8.45-.5C148.91,85.58,149.09,87.92,149.23,89.78Z"/><path class="cls-3" d="M282.65,106.2c.09,5.29.24,10.16,3.61,13,1.5,1.26,3.63,2.07,4.32,1.44s-.89-2.8-.72-6.48c.06-1.34.42-4.13,1.44-4.33,1.25-.23,3.45,3.47,4.32,7.21,1.48,6.31-1.25,10.91,0,11.52,1,.51,3.74-2.1,5-5s1-5.53.73-7.92c-.6-5.22-2.59-8.43-2.17-8.65s2.46,2,3.61,5,1,6,.72,9.37c-.42,5.41-1.52,7.47-.72,7.93,1.06.6,4.41-2.24,5.76-5.77a12,12,0,0,0,.72-3.6,24.36,24.36,0,0,0-.72-7.2c-.47-2.36-.89-3.55-.72-3.61s1.39,2,2.16,4.33c1.51,4.59.65,7.75,1.44,7.92s2.35-2.46,2.9-5.26a14.13,14.13,0,0,0-.74-7.71c-.1,0,1.14,8.67,2.16,8.65.67,0,1.82-3.74.72-7.21-.72-2.28-2-3.06-5-6.48-4.13-4.63-3.27-4.83-5.76-7.21-2.24-2.13-5.7-5.42-10.81-5.76-1-.07-6.65-.32-10.08,3.6C282.49,96.61,282.55,99.81,282.65,106.2Z"/><ellipse class="cls-2" cx="261.08" cy="58.61" rx="22.85" ry="34.01"/><ellipse class="cls-2" cx="283.44" cy="60.6" rx="8.73" ry="5.86" transform="translate(126.76 304.44) rotate(-69.35)"/><ellipse class="cls-2" cx="238.82" cy="60.6" rx="5.86" ry="8.73" transform="translate(-7.46 67.78) rotate(-15.91)"/><ellipse class="cls-3" cx="171.26" cy="66.05" rx="27.64" ry="31.89"/><path class="cls-3" d="M101.82,65.86c-.38,0,0-3.06-1.44-7.93-.7-2.39-1.12-2.78-2.16-5.76-1.77-5.09-1.35-6.24-2.16-7.93-2.62-5.43-12.87-5.63-19.45-5.76C72.75,38.4,57.07,38.1,55,44.24c-.74,2.21.68,4-.72,7.93-.89,2.48-1.77,2.62-2.88,5C49,62.38,50.62,67.14,50,67.3c-.44.1-1.54-1.9-4.32-10.81-.25-1.88-1.57-13.35,6.48-22.33,6-6.75,13.78-8.06,17.29-8.65,1.33-.22,19.76-3.08,28.82,8.65,3.66,4.73,4.42,10,5,14.41C104.59,57.8,102.44,65.89,101.82,65.86Z"/><path class="cls-3" d="M285.54,52.89C284.29,60.67,283.89,63,283.37,63s-.6-2.83-2.16-7.92c-.93-3.07-1.4-4.6-2.16-5.76-2.84-4.37-9.31-3.9-15.85-5a47.09,47.09,0,0,1-18.73-7.92c-.44,1.78-1.16,4.54-2.16,7.92-1.14,3.83-1.57,4.8-2.16,7.21-1.54,6.24-1,9.33-1.44,9.36-1.2.09-8.25-26.4,1.44-33.14a9,9,0,0,1,3.6-1.44,19.93,19.93,0,0,1,5.76-5c10.55-6,27.3-1.89,33.86,8.64a27,27,0,0,1,3.61,13C287,43.68,286.94,44.17,285.54,52.89Z"/><ellipse class="cls-3" cx="198.01" cy="66.78" rx="9.55" ry="8.28" transform="translate(71.54 233.13) rotate(-71.39)"/><ellipse class="cls-3" cx="144.7" cy="66.78" rx="8.28" ry="9.55" transform="translate(-14.67 66.78) rotate(-24.77)"/><path class="cls-2" d="M209.89,80.27a3.64,3.64,0,0,1,2.88,2.88,7.43,7.43,0,0,1,7.45,3.69c.24.14,3,1.88,2.64,3.51-.21,1-1.47,1.5-3.61,2.16-4.22,1.32-10.38,3.24-10.8,2.16s5.5-4.64,5.76-4.32a49.1,49.1,0,0,1-4.32,4.32c-2.57,2.48-3.25,3.09-3.6,2.89-.65-.38.34-3.23.72-4.33,1.05-3,2.36-4.9,2.16-5s-1.41,1.77-3.6,3.6c-2,1.68-5.11,3.53-5.77,2.88-1.11-1.08,5.19-8.61,4.33-9.36-.55-.47-3.47,2-3.61,2.16-3.25,2.82-4.08,5.37-4.85,5.15s-.89-3.25-.19-5.87c.32-1.19,1.81-6.76,5.76-7.21,2.41-.27,4.38,1.51,5,2.17A3.62,3.62,0,0,1,209.89,80.27Z"/><circle class="cls-5" cx="68.59" cy="60.74" r="1.18"/><circle class="cls-5" cx="86.31" cy="60.74" r="1.18"/><circle class="cls-5" cx="160.55" cy="62.9" r="1.18"/><circle class="cls-5" cx="181.15" cy="62.9" r="1.18"/><circle class="cls-5" cx="250.61" cy="54.26" r="1.18"/><circle class="cls-5" cx="265.7" cy="54.26" r="1.18"/><path class="cls-5" d="M67.87,81.6c.11-.23,1.4,1.12,4.38,2.36a11.56,11.56,0,0,0,4.39,1.18A12.72,12.72,0,0,0,81.9,84c1.87-.74,2.55-1.35,2.63-1.18.17.41-3.38,5.82-7.89,5.9C71.53,88.78,67.65,82,67.87,81.6Z"/><path class="cls-5" d="M162,80.32c.15-.28,3.36,2.46,8.64,2.88s9.2-1.85,9.37-1.44-3.37,3.28-7.9,3.38C166.23,85.27,161.8,80.66,162,80.32Z"/><path class="cls-5" d="M254.4,76.82c.15-.2,1.31,1.09,3.6,1.45,3.19.5,5.36-1.3,5.76-.73s-1.08,3-3.21,3.44C257.32,81.61,254.13,77.18,254.4,76.82Z"/><path class="cls-5" d="M73,52.89c.93.84,2,2.38,1.55,3s-2.75-.25-7.29-.94c-2.17-.34-4.77-.73-7.19.49s-3.27,3.28-3.48,3.13.74-3.25,3.34-5.29c3.14-2.47,6.91-2.16,8.52-2A7.21,7.21,0,0,1,73,52.89Z"/><path class="cls-5" d="M82.37,53.61c-.9.85-1.88,2.38-1.42,3,.56.82,2.76-.25,7.29-.94,2.16-.33,4.77-.73,7.18.49s3.28,3.28,3.49,3.13-.74-3.25-3.34-5.29c-3.06-2.41-6.72-2.16-8.52-2A7,7,0,0,0,82.37,53.61Z"/><path class="cls-6" d="M78,59.82s-1.18,8.27,0,11.81-2.36,4.72-2.36,4.72"/><path class="cls-7" d="M165.94,73.78A6.58,6.58,0,0,0,171,75.94c.3,0,3.28-.21,4.32-2.16,1.55-2.92-3.18-6.19-2.88-11.53a11,11,0,0,1,2.88-6.48"/><path class="cls-5" d="M176.75,52.17c-.1-.26,1.08-1,2.16-1.44a10.47,10.47,0,0,1,7.2,0c1.46.46,3,1.21,2.89,1.44s-2.76-.87-6.49-.72C179.19,51.58,176.88,52.52,176.75,52.17Z"/><path class="cls-5" d="M165.94,52.17c.1-.28-1.13-1-2.16-1.44a11.19,11.19,0,0,0-7.92,0c-1.48.48-3,1.22-2.88,1.44s2.16-.55,5-.72C162.53,51.17,165.79,52.61,165.94,52.17Z"/><path class="cls-7" d="M257.34,55.17s.72,10.81-1.44,13,2.16,4.32,2.88,4.32"/><path class="cls-2" d="M198.36,64.42c-1.75,0-3.12-16.65-5-16.57-1.11,0-1.3,5.64-2.88,5.76-.87.06-1.33-2-3.61-5.76-1.65-2.78-2.69-4.47-3.6-4.33-1.73.27-1.24,6.88-2.88,7.21-2.24.45-4.88-11.58-8.64-11.53S166.05,51,163.06,50.73c-2.17-.21-2.8-6.57-4.32-6.49-1.88.1-2.07,9.84-4.33,10.09-1.91.21-3.38-6.66-5-6.48-2.68.28-1.71,17.81-3.6,18-1.44.15-5.48-9.68-3.6-20.18.65-3.64,2.07-11.6,9.36-16.57,7.79-5.3,16.5-3.26,18-2.88a26.64,26.64,0,0,1,18.74,1.44c1.6.78,9.65,4.68,12.24,13,1,3.27.68,6.74,0,13.69C200.27,56.86,199.54,64.39,198.36,64.42Z"/><path class="cls-3" d="M243.75,49.29a44.54,44.54,0,0,1,5-.72c3-.17,5,.17,5.05,0a6.8,6.8,0,0,0-2.89-.72C247,47.46,243.7,49.1,243.75,49.29Z"/><path class="cls-3" d="M263.2,48.57c0,.17,2-.11,4.32,0A27.55,27.55,0,0,1,274.73,50c.07-.21-3.94-2.66-8.65-2.16A7.32,7.32,0,0,0,263.2,48.57Z"/></g></g></svg>