<svg xmlns="http://www.w3.org/2000/svg" viewBox="0 0 210.04 269.64"><defs><style>.cls-1{fill:#d1b6ff;}.cls-2{fill:#b385ff;}.cls-3{fill:#0b1d38;}.cls-4{fill:#0ff8a8;}.cls-5{fill:#5772ff;}.cls-6{fill:none;stroke:#0b1d38;stroke-linecap:round;stroke-miterlimit:10;stroke-width:0.84px;}</style></defs><title>find an internship</title><g id="Layer_2" data-name="Layer 2"><g id="Layer_1-2" data-name="Layer 1"><circle class="cls-1" cx="100" cy="150.95" r="100"/><path class="cls-2" d="M137.32,129.63q-3.58,25.4-7.18,50.79,13.05-14,26.11-27.94-3.23-8.62-6.44-17.26Z"/><rect class="cls-2" x="49.15" y="98.72" width="20.18" height="27.71" rx="7.06"/><path class="cls-3" d="M52.75,115.31a8.15,8.15,0,0,1-3.6-4.45v-3.6l20.18-.11v3.39a24.64,24.64,0,0,1-7.77,4.24C58.41,115.8,55.47,116.76,52.75,115.31Z"/><ellipse class="cls-4" cx="164.1" cy="105.08" rx="37" ry="37.25"/><ellipse class="cls-2" cx="56.7" cy="68.56" rx="29.12" ry="43.14"/><ellipse class="cls-2" cx="86.7" cy="75.47" rx="9.38" ry="6.31" transform="translate(-24.71 103.77) rotate(-55.29)"/><path class="cls-5" d="M194.21,231.88c-2.91,5.44-8.09,8.39-12,10,.39,3.34.9,8.32,1.2,14.42.23,4.54.34,6.83,0,7.61-5,11.55-60.49,5-68.6-14.32-.31-.73-.6-1.6-.64-1.72-3.93-11.81.57-23.08,2.38-27.42,3.31-8,2.88-7.9,4.29-12.88,4.76-16.89.66-23.11,5.29-42.42.75-3.13,2.78-10.57,8.66-16.48,1.24-1.24,3.79-3.8,7.69-4.25a12.77,12.77,0,0,1,8.43,2.39l6.5,5.15a11.41,11.41,0,0,1,1.68,1.65,59.58,59.58,0,0,1,11-2.44,52.88,52.88,0,0,1,16.6,17.74c5.28,9.39,2,12,6.32,36.87C195.52,220.05,197.64,225.46,194.21,231.88Z"/><path class="cls-5" d="M109,185.48c-3.29,8-5,5.38-8.71,14-6.63,15.61-.4,23.68-6.08,30.36-4.91,5.77-14.93,4.83-35.71,2.35-15.32-1.82-31.08-3.7-34.14-12.56-.9-2.6-.56-6.18.12-13.34a94.84,94.84,0,0,1,2-12.23,7.49,7.49,0,0,1-5-1.79c-3.91-3.52-3-12,1.51-15.15a8.24,8.24,0,0,1,4.33-1.46,73.71,73.71,0,0,1-.62-11.26c.05-2.29.28-8,4.74-25,3.43-13.1,4.82-15.5,7.3-17.44a17.57,17.57,0,0,1,10.48-3.41,7.6,7.6,0,0,0,2.57,5c3.63,2.9,11.09,1.51,17.61-4.62h.07c14,1.05,33.21,7.76,38.1,19.43a27.16,27.16,0,0,1,.76,2.65C110.82,150.87,115.65,169.32,109,185.48Z"/><circle class="cls-3" cx="44.4" cy="66.85" r="1.5"/><circle class="cls-3" cx="67.08" cy="66.85" r="1.5"/><circle class="cls-3" cx="143.34" cy="101.25" r="1.5"/><circle class="cls-3" cx="130.45" cy="98.34" r="1.5"/><path class="cls-6" d="M138.83,97.06s-1.27,12.87-7.2,15c-.38.14-1.63.59-1.64,1.22,0,1,2.92,1.83,5.53,2.42"/><path class="cls-2" d="M142.89,91.42c0-.25,3.76-.85,7.3.86,4,1.93,5.81,5.87,5.61,6s-2-3-6.14-5C146,91.48,142.86,91.66,142.89,91.42Z"/><path class="cls-2" d="M131.93,88.92A3.27,3.27,0,0,1,134.59,90c.36.38.66.86.59.93s-.4-.3-1-.61a5.76,5.76,0,0,0-1.64-.66c-1.26-.21-2.17.52-2.25.37S130.93,89.08,131.93,88.92Z"/><path class="cls-3" d="M131.67,119.54c.4-.46,1.57.77,3.92.65s3.18-1.43,4.16-.89,1.38,2.74.46,4.1c-1.28,1.92-4.34,1.14-4.51,1.09C132.76,123.69,131.1,120.21,131.67,119.54Z"/><path class="cls-2" d="M128.56,92.09c2.77,0,3.26-7.3,8-10.57,3.75-2.6,10.77-3,24.89,5a14.26,14.26,0,0,0-.6,4.78,15,15,0,0,0,1.49,5.67c2.95,6.69-9.59,20.3-9.59,20.3-15.5,16.83-12,81.22,13.61,93,13.24,6.07,35.22-3.32,41.88-17.44,7.12-15.12-8.76-24.07-7.89-54.06.67-23.11,9.59-29.71,4.55-45.14C200,78.74,184.41,72.4,180.72,70.82A49.19,49.19,0,0,0,152.05,68c-2,.42-26.54,5.66-27.4,16.31C124.36,87.83,126.73,92.09,128.56,92.09Z"/><path class="cls-6" d="M53.84,66.29c-1.72,7.89-.72,12.38.59,15,.45.92,1.66,3.09.78,4.42-.68,1-2.39,1.16-3.71,1.09"/><path class="cls-3" d="M56.84,61.05c-.19-.43,2.16-2.54,5.19-2.93A9.38,9.38,0,0,1,68.57,60c.84.58,2,1.58,1.84,1.86S67.54,60.32,63.8,60C59.76,59.69,57,61.49,56.84,61.05Z"/><path class="cls-3" d="M49.12,60.59c.17-.43-2.28-2.43-5.32-2.69a9.46,9.46,0,0,0-6.45,2.18c-.81.62-1.93,1.68-1.75,2s2.8-1.67,6.52-2.14C46.14,59.37,48.94,61.05,49.12,60.59Z"/><path class="cls-3" d="M44.2,92.16c.19-.58,3,.43,9.35.72,6.67.3,9.83-.54,10,.09.19.78-4.43,3.49-9.62,3.33C48.52,96.13,44,92.93,44.2,92.16Z"/><path class="cls-4" d="M41.34,40.84c-.88,1.75-2.11,4.23-3.57,7.2-5.45,11.06-6.25,13.06-6.9,15.28-.88,3-.56,3.24-1.64,12.29C28,85.88,27,94.19,26.08,94.18c-1.07,0-2.6-11.54-1.95-24,.74-14.09,1.52-28.91,12.44-39.1A33,33,0,0,1,54.1,22.57c1-.15,16-2.07,27,8.62,6.71,6.53,8.35,14.25,9.56,19.92a51.58,51.58,0,0,1-1.44,25.66C85.05,89.94,76.05,100.55,74,99.56c-2.51-1.24,9.73-18.81,3.86-38.41-1.13-3.75-4-12.7-12.78-18C54.77,36.92,43.54,40.15,41.34,40.84Z"/><rect class="cls-4" x="162.84" y="88.43" width="18.19" height="4.22" rx="2.11"/><circle class="cls-4" cx="56.09" cy="15.39" r="15.39"/><path class="cls-4" d="M29.56,202.51a2.6,2.6,0,0,1-.69,1.44,2.68,2.68,0,0,1-1.86.81l-19.2.08A2.77,2.77,0,0,1,6,203.9a2.74,2.74,0,0,1-.63-1.62L1.62,162.83l32.22.37Q31.71,182.87,29.56,202.51Z"/><rect class="cls-4" x="0.34" y="162.11" width="34.79" height="3.76" rx="1.42"/><path class="cls-4" d="M33,164H2.47l1.14-5.6a.86.86,0,0,1,.39-.51.89.89,0,0,1,.45-.1c.45,0,11.21,0,26.07,0a.78.78,0,0,1,.6.17.76.76,0,0,1,.19.28C31.87,160.14,32.44,162.06,33,164Z"/><path class="cls-3" d="M2.65,173.49a106.77,106.77,0,0,0,30,.89l-2,18.4a61,61,0,0,1-13.11,1,61.79,61.79,0,0,1-13.08-1.76Q3.53,182.78,2.65,173.49Z"/><path class="cls-2" d="M40.56,183.62a32.26,32.26,0,0,1-6.2-3.68c-3.32-2.51-4.24-4.25-7.66-5.9-.62-.3-1.87-.71-4.37-1.54-5.79-1.89-7.14-1.87-8.1-1.75-2.45.33-4.71,1.64-4.59,2.19.08.38,1.26.34,2.62.44A24.1,24.1,0,0,1,21.89,176c0,.07-1.91-.59-5-1.09-3.86-.62-6.68-1-9.19.44-1.23.72-2.7,2.07-2.41,2.84.35.95,3.14.16,7.07.43a22.15,22.15,0,0,1,10.21,3.07,58.91,58.91,0,0,0-6.12-1.31c-3.83-.54-5.4-.2-6.13,0C8.26,181,6,182.25,6.14,183s2.69.38,7.22.87c5.34.58,8.56,1.79,8.53,2s-6.55-2-10.72,1.09c-.86.64-1.91,1.71-1.66,2.26.38.84,3.39-.4,7.13-.29s5.22,1.52,9.62,3.07a41.39,41.39,0,0,0,11.48,2.21,31.12,31.12,0,0,1,.71-4.54A29.92,29.92,0,0,1,40.56,183.62Z"/><path class="cls-2" d="M123.79,238.17a2.61,2.61,0,0,1-.69,1.43,2.76,2.76,0,0,1-1.86.82l-19.2.07a2.67,2.67,0,0,1-2.4-2.55l-3.79-39.46,32.22.38Q125.94,218.51,123.79,238.17Z"/><rect class="cls-2" x="94.57" y="197.76" width="34.79" height="3.76" rx="1.42"/><path class="cls-2" d="M127.23,199.63H96.7l1.14-5.6a.86.86,0,0,1,.39-.51.75.75,0,0,1,.45-.09c.45,0,11.21,0,26.07,0a.82.82,0,0,1,.6.17.76.76,0,0,1,.19.28Q126.38,196.75,127.23,199.63Z"/><path class="cls-3" d="M96.87,209.15a107.25,107.25,0,0,0,30,.88l-2,18.41a61.78,61.78,0,0,1-26.19-.73Q97.76,218.43,96.87,209.15Z"/><path class="cls-4" d="M134.79,219.27a32.32,32.32,0,0,1-6.2-3.67c-3.32-2.52-4.24-4.26-7.66-5.91-.62-.3-1.87-.71-4.38-1.53-5.78-1.9-7.13-1.88-8.09-1.75-2.45.32-4.71,1.63-4.59,2.19.08.37,1.25.34,2.62.43a23.83,23.83,0,0,1,9.63,2.63c0,.07-1.91-.59-5-1.1-3.86-.61-6.68-1-9.19.44-1.23.72-2.7,2.07-2.41,2.85.35,1,3.14.16,7.07.43a22.15,22.15,0,0,1,10.21,3.07,57.77,57.77,0,0,0-6.12-1.32c-3.84-.53-5.4-.2-6.13,0-2,.57-4.33,1.87-4.16,2.63s2.69.39,7.22.87c5.34.58,8.57,1.8,8.54,2s-6.55-2-10.72,1.1c-.86.63-1.91,1.7-1.66,2.25.38.84,3.39-.4,7.13-.28s5.22,1.52,9.62,3.06A41.25,41.25,0,0,0,132,229.85a30.71,30.71,0,0,1,.71-4.54A29.81,29.81,0,0,1,134.79,219.27Z"/></g></g></svg>