<svg width="232" height="163" viewBox="0 0 232 163" fill="none" xmlns="http://www.w3.org/2000/svg">
<g clip-path="url(#clip0)">
<path d="M152.287 74.1705C153.505 68.6269 152.425 63.671 149.874 63.1013C147.324 62.5317 144.269 66.5638 143.05 72.1074C141.832 77.651 142.912 82.6068 145.463 83.1765C148.013 83.7462 151.068 79.7141 152.287 74.1705Z" fill="#0FF8A8"/>
<path d="M96.2523 83.166C98.8028 82.5963 99.8828 77.6404 98.6646 72.0968C97.4464 66.5532 94.3913 62.5211 91.8408 63.0908C89.2903 63.6605 88.2102 68.6163 89.4284 74.1599C90.6466 79.7035 93.7018 83.7357 96.2523 83.166Z" fill="#0FF8A8"/>
<path d="M129.286 106.592V131.654H113.008V106.592C113.008 102.306 116.455 98.8308 120.706 98.8308H121.587C125.839 98.8308 129.286 102.306 129.286 106.592Z" fill="#0FF8A8"/>
<path d="M148.398 162.546H93.8958C91.7605 162.546 90.0273 160.798 90.0273 158.645V140.159C90.0369 138.411 90.2572 129.607 97.2663 122.54C103.5 116.256 111.026 115.455 113.008 115.3C115.565 120.426 118.112 125.552 120.668 130.688C123.541 125.562 126.414 120.436 129.286 115.3C131.268 115.445 138.794 116.246 145.028 122.54C152.037 129.607 152.257 138.411 152.267 140.159V158.645C152.267 160.798 150.534 162.546 148.398 162.546Z" fill="#5772FF"/>
<path d="M121.147 110.415C135.161 110.415 146.522 90.5332 146.522 66.0077C146.522 41.4822 135.161 21.6003 121.147 21.6003C107.133 21.6003 95.7725 41.4822 95.7725 66.0077C95.7725 90.5332 107.133 110.415 121.147 110.415Z" fill="#0FF8A8"/>
<path d="M109.178 68.904C110.235 68.904 111.093 68.0396 111.093 66.9732C111.093 65.9069 110.235 65.0425 109.178 65.0425C108.12 65.0425 107.263 65.9069 107.263 66.9732C107.263 68.0396 108.12 68.904 109.178 68.904Z" fill="#0B1D38"/>
<path d="M130.243 68.904C131.301 68.904 132.158 68.0396 132.158 66.9732C132.158 65.9069 131.301 65.0425 130.243 65.0425C129.186 65.0425 128.328 65.9069 128.328 66.9732C128.328 68.0396 129.186 68.904 130.243 68.904Z" fill="#0B1D38"/>
<path d="M113.965 91.1078C113.764 91.3588 116.665 95.9347 120.668 95.9347C124.67 95.9347 127.571 91.3588 127.37 91.1078C127.255 90.963 126.039 92.3338 123.54 93.0385C122.899 93.222 120.543 93.8108 117.795 93.0385C115.296 92.3338 114.08 90.963 113.965 91.1078Z" fill="#0B1D38"/>
<path d="M117.795 81.4539C118.647 82.8633 119.815 83.626 120.668 83.3846C121.539 83.1336 121.874 81.8979 122.104 80.9712C122.86 77.9785 122.152 75.3527 122.104 75.1789C121.453 72.7462 121.405 68.5371 124.019 60.6982" stroke="#0C1D37" stroke-miterlimit="10" stroke-linecap="round" stroke-linejoin="round"/>
<path d="M105.635 58.6522C105.635 58.6522 111.275 56.2291 113.525 58.8645" stroke="#0C1D37" stroke-miterlimit="10" stroke-linecap="round" stroke-linejoin="round"/>
<path d="M135.557 58.6522C135.557 58.6522 129.917 56.2291 127.667 58.8645" stroke="#0C1D37" stroke-miterlimit="10" stroke-linecap="round" stroke-linejoin="round"/>
<path d="M110.135 77.5925C114.63 77.5925 118.274 75.4314 118.274 72.7656C118.274 70.0998 114.63 67.9387 110.135 67.9387C105.64 67.9387 101.996 70.0998 101.996 72.7656C101.996 75.4314 105.64 77.5925 110.135 77.5925Z" fill="#B385FF"/>
<path d="M132.159 77.5925C136.654 77.5925 140.298 75.4314 140.298 72.7656C140.298 70.0998 136.654 67.9387 132.159 67.9387C127.663 67.9387 124.02 70.0998 124.02 72.7656C124.02 75.4314 127.663 77.5925 132.159 77.5925Z" fill="#B385FF"/>
<path d="M117.316 72.1187H124.977" stroke="#B385FF" stroke-width="0.7559" stroke-miterlimit="10"/>
<path d="M123.579 101.727H118.724C118.015 101.785 116.177 102.055 114.683 103.532C114.473 103.744 112.491 105.83 113.008 107.886C113.831 111.12 120.141 111.371 120.744 111.39C123.473 111.467 128.567 110.753 129.286 107.886C129.803 105.839 127.84 103.764 127.61 103.532C126.03 101.901 124.048 101.746 123.579 101.727Z" fill="#B385FF"/>
<path d="M202.698 82.9596V97.865H185.941V82.9596C185.941 79.4649 188.757 76.6267 192.223 76.6267H196.417C199.893 76.6267 202.698 79.4649 202.698 82.9596Z" fill="#B385FF"/>
<path d="M196.925 77.5921H191.726C190.96 77.6597 189.073 77.93 187.407 79.3974C186.593 80.1118 186.086 80.8841 185.779 81.4537C185.837 82.3225 185.894 83.1913 185.952 84.0505C186.488 84.5236 187.273 85.1414 188.307 85.7013C188.815 85.9716 191.036 87.1397 193.899 87.2556C198.524 87.439 201.875 84.7553 202.718 84.0505C202.728 83.7513 202.747 83.452 202.756 83.1527C202.747 82.699 202.651 80.9034 201.263 79.3877C199.549 77.5632 197.279 77.5825 196.925 77.5921Z" fill="#0B1D38"/>
<path d="M231.659 51.5986C232.734 46.7109 231.164 42.2035 228.154 41.5312C225.144 40.8589 221.833 44.2761 220.759 49.1639C219.685 54.0516 221.255 58.5589 224.265 59.2313C227.275 59.9036 230.585 56.4864 231.659 51.5986Z" fill="#B385FF"/>
<path d="M163.992 59.2144C167.002 58.5421 168.571 54.0347 167.497 49.147C166.423 44.2593 163.112 40.842 160.102 41.5143C157.092 42.1867 155.523 46.694 156.597 51.5817C157.671 56.4695 160.982 59.8867 163.992 59.2144Z" fill="#B385FF"/>
<path d="M194.32 85.3152C211.507 85.3152 225.44 67.3783 225.44 45.2521C225.44 23.1258 211.507 5.18896 194.32 5.18896C177.133 5.18896 163.2 23.1258 163.2 45.2521C163.2 67.3783 177.133 85.3152 194.32 85.3152Z" fill="#B385FF"/>
<path d="M224.272 138.411H164.369C162.138 138.411 160.328 136.587 160.328 134.337V117.154C160.328 115.406 160.51 106.187 167.893 98.7341C175.179 91.3876 184.171 91.127 185.942 91.1077C186.325 91.5421 189.887 95.4808 195.355 94.9692C199.596 94.5734 202.143 91.7545 202.708 91.1077C204.48 91.127 213.471 91.3876 220.758 98.7341C228.14 106.177 228.322 115.406 228.322 117.154V134.337C228.313 136.587 226.503 138.411 224.272 138.411Z" fill="#5772FF"/>
<path d="M180.437 46.7001C181.494 46.7001 182.352 45.8357 182.352 44.7694C182.352 43.703 181.494 42.8386 180.437 42.8386C179.379 42.8386 178.521 43.703 178.521 44.7694C178.521 45.8357 179.379 46.7001 180.437 46.7001Z" fill="#0B1D38"/>
<path d="M206.289 46.7001C207.347 46.7001 208.204 45.8357 208.204 44.7694C208.204 43.703 207.347 42.8386 206.289 42.8386C205.231 42.8386 204.374 43.703 204.374 44.7694C204.374 45.8357 205.231 46.7001 206.289 46.7001Z" fill="#0B1D38"/>
<path d="M182.361 67.9382C182.112 68.5561 186.852 72.3307 192.894 72.7651C200.305 73.2961 206.539 68.5754 206.299 67.9382C206.098 67.3976 201.406 70.0138 193.851 69.869C186.909 69.7338 182.581 67.3686 182.361 67.9382Z" fill="white"/>
<path d="M191.927 62.1461C193.133 61.7985 194.742 61.1324 195.278 59.7326C196.015 57.8115 194.244 55.7553 193.373 53.9597C192.137 51.4207 191.572 47.1055 195.278 39.4597" stroke="#0C1D37" stroke-miterlimit="10" stroke-linecap="round" stroke-linejoin="round"/>
<path d="M211.585 37.4129C211.68 37.075 208.951 35.4049 205.792 35.598C203.111 35.7621 200.908 37.2102 201.004 37.5288C201.09 37.8087 202.967 37.0943 206.29 37.0461C209.67 36.9978 211.508 37.6832 211.585 37.4129Z" fill="#0FF8A8"/>
<path d="M175.151 37.4129C175.055 37.075 177.784 35.4049 180.944 35.598C183.625 35.7621 185.827 37.2102 185.732 37.5288C185.645 37.8087 183.769 37.0943 180.446 37.0461C177.066 36.9978 175.227 37.6832 175.151 37.4129Z" fill="#0FF8A8"/>
<path d="M163.057 42.1821C163.851 42.3172 165.154 38.4943 167.768 30.8582C169.625 25.4231 170.956 20.8665 171.828 17.7387C177.496 18.3855 183.921 18.8006 190.978 18.7041C199.223 18.5883 206.624 17.8063 213.001 16.7733C214.036 19.5054 215.635 23.5406 217.789 28.3579C221.495 36.6601 224.109 42.5103 225.382 42.1724C226.914 41.7669 226.072 32.5862 224.492 25.4617C222.864 18.1249 221.935 13.9158 218.747 10.0157C211.68 1.36594 199.366 1.33698 193.851 1.32733C189.255 1.31768 174.825 1.28871 167.998 10.9811C166.121 13.6455 165.47 16.3003 164.167 21.6002C161.697 31.6401 161.726 41.9504 163.057 42.1821Z" fill="#0FF8A8"/>
<path d="M10.1494 66.22L13.6252 104.854L36.2708 87.2941L68.4917 97.8264L72.8485 78.5092L70.2344 58.3135L44.113 70.6124L24.0815 58.3135L11.0112 50.4167L10.1494 66.22Z" fill="#B385FF"/>
<path d="M51.5151 77.6498V90.8079H34.0977V77.6498C34.0977 74.2517 36.8362 71.4907 40.2067 71.4907H45.4061C48.7766 71.4907 51.5151 74.242 51.5151 77.6498Z" fill="#0FF8A8"/>
<path d="M45.4061 72.3599H40.2067C36.8362 72.3599 34.0977 75.1208 34.0977 78.519C34.8254 79.214 37.7746 81.8688 42.3707 82.0233C47.5127 82.197 50.8832 79.1175 51.5151 78.519C51.5151 75.1208 48.7766 72.3599 45.4061 72.3599Z" fill="#0B1D38"/>
<path d="M81.1044 45.233C82.2734 39.9132 80.5633 35.007 77.2848 34.2747C74.0064 33.5424 70.401 37.2613 69.2319 42.5811C68.0629 47.9008 69.773 52.807 73.0514 53.5393C76.3299 54.2716 79.9353 50.5527 81.1044 45.233Z" fill="#B385FF"/>
<path d="M13.4543 55.7524C16.4334 55.0869 17.986 50.6232 16.9222 45.7823C15.8584 40.9414 12.581 37.5565 9.60201 38.2219C6.62299 38.8873 5.07038 43.3511 6.13416 48.192C7.19795 53.0329 10.4753 56.4178 13.4543 55.7524Z" fill="#0FF8A8"/>
<path d="M42.8015 79.3881C59.8774 79.3881 73.7201 63.0764 73.7201 42.9548C73.7201 22.8332 59.8774 6.52148 42.8015 6.52148C25.7256 6.52148 11.8828 22.8332 11.8828 42.9548C11.8828 63.0764 25.7256 79.3881 42.8015 79.3881Z" fill="#0FF8A8"/>
<path d="M76.7932 133.584H8.81817C5.90728 133.584 3.55176 131.209 3.55176 128.275V120.252C4.51886 109.401 8.8086 100.829 13.4239 96.2337C15.789 93.8782 20.5383 90.2774 23.9663 89.1768C24.9238 88.8679 25.8814 88.5204 26.8389 88.2114C30.2764 87.1013 30.985 87.053 31.6265 86.2807C32.8139 84.8519 31.6648 83.5004 32.5841 82.4192C34.1353 80.585 37.9654 83.79 44.0744 83.3846C48.6131 83.0853 51.3995 80.9904 52.6922 82.4192C53.6019 83.4232 52.5486 84.8133 53.6497 86.2807C54.5019 87.4102 55.7084 87.3716 58.4374 88.2114C58.4374 88.2114 59.979 88.6941 63.225 90.1422C63.225 90.1422 67.9457 92.2564 72.2067 96.2337C76.8603 100.568 81.0159 109.286 82.0788 120.252V128.275C82.0597 131.209 79.7041 133.584 76.7932 133.584Z" fill="#5772FF"/>
<path d="M29.7408 45.1461C30.7032 45.1461 31.4835 44.3594 31.4835 43.3891C31.4835 42.4187 30.7032 41.6321 29.7408 41.6321C28.7783 41.6321 27.998 42.4187 27.998 43.3891C27.998 44.3594 28.7783 45.1461 29.7408 45.1461Z" fill="#0B1D38"/>
<path d="M55.8628 45.1461C56.8253 45.1461 57.6055 44.3594 57.6055 43.3891C57.6055 42.4187 56.8253 41.6321 55.8628 41.6321C54.9004 41.6321 54.1201 42.4187 54.1201 43.3891C54.1201 44.3594 54.9004 45.1461 55.8628 45.1461Z" fill="#0B1D38"/>
<path d="M40.6279 54.8094L43.242 55.6879C43.0505 52.6373 43.0792 48.911 43.6729 44.7116C44.0942 41.7286 44.7357 39.0738 45.4156 36.8052" stroke="#0C1D37" stroke-width="0.9095" stroke-miterlimit="10" stroke-linecap="round" stroke-linejoin="round"/>
<path d="M64.5951 34.4975C64.71 33.8411 59.2616 31.4373 53.9665 32.7405C53.7845 32.7888 51.4577 33.368 51.5056 33.8507C51.5631 34.401 54.7995 34.5072 58.0455 34.6037C62.3736 34.7485 64.5472 34.8161 64.5951 34.4975Z" fill="#0B1D38"/>
<path d="M21.8983 34.4975C21.7834 33.8411 27.2317 31.4373 32.5269 32.7405C32.7088 32.7888 35.0356 33.368 34.9877 33.8507C34.9303 34.401 31.6938 34.5072 28.4478 34.6037C24.1197 34.7485 21.9461 34.8161 21.8983 34.4975Z" fill="#0B1D38"/>
<path d="M35.3994 62.7061C35.2175 63.044 37.889 65.9015 41.4989 66.22C45.8843 66.6062 49.5134 63.0633 49.341 62.7061C49.1878 62.3875 46.0663 64.7623 41.4989 64.4631C37.8411 64.2217 35.5622 62.4068 35.3994 62.7061Z" fill="#0B1D38"/>
<path d="M30.1717 11.782C34.0401 10.7297 40.5609 9.65817 46.7178 12.6605C54.1865 16.3 56.8293 23.8492 61.5212 37.2486C66.2036 50.6288 68.0899 57.2319 66.7493 65.3411C65.0066 75.8734 62.3926 81.1443 67.6207 82.0228C68.8559 82.2352 68.741 82.5152 68.808 82.5731C70.1869 83.8474 64.1832 89.7072 64.1353 96.069C64.097 101.35 68.1473 106.804 71.0965 106.582C72.7243 106.456 74.1893 104.748 75.4629 101.34C80.691 87.2938 85.0382 71.4905 80.691 70.6121C76.3342 69.7336 81.5623 64.4626 82.4337 58.3228C83.9945 47.2789 82.4816 36.3412 79.8196 29.3519C78.1248 24.9111 74.4383 15.5663 65.0162 8.27769C61.2723 5.38156 55.0387 0.554673 45.856 0.371251C37.2957 0.197483 30.9952 4.16518 28.5152 5.92217C25.5468 6.5207 20.9219 7.95911 17.1206 11.782C12.6106 16.3193 11.586 21.8992 10.1497 30.2207C8.28255 41.0812 10.1785 41.6315 8.40703 50.4164C6.10895 61.7789 -4.64411 65.3508 2.30756 69.7336C9.27838 74.126 9.27838 84.6583 5.79297 90.8077C1.45536 98.4632 3.13104 104.738 5.69722 106.592C7.71761 108.04 11.4711 106.437 13.6256 104.854C20.2708 99.9692 19.8878 89.2631 19.725 84.6583C19.2654 71.9925 14.5927 71.8381 14.4969 62.7056C14.3724 50.5322 22.6455 47.2113 27.5576 29.3422C29.5684 22.0633 30.0568 15.8173 30.1717 11.782Z" fill="#B385FF"/>
</g>
<defs>
<clipPath id="clip0">
<rect width="232" height="162.183" fill="white" transform="translate(0 0.362305)"/>
</clipPath>
</defs>
</svg>
