<svg xmlns="http://www.w3.org/2000/svg" viewBox="0 0 230.11 267.94"><defs><style>.cls-1{fill:#d1b6ff;}.cls-2{fill:#b385ff;}.cls-3{fill:#0b1d38;}.cls-4,.cls-7,.cls-8{fill:none;}.cls-4{stroke:#0b1d38;stroke-width:0.7px;}.cls-4,.cls-8{stroke-linecap:round;stroke-linejoin:round;}.cls-5{fill:#5772ff;}.cls-6{fill:#0ff8a8;}.cls-7,.cls-8{stroke:#0ff8a8;stroke-width:0.43px;}.cls-7{stroke-miterlimit:10;}</style></defs><title>the summit</title><g id="Layer_2" data-name="Layer 2"><g id="Layer_1-2" data-name="Layer 1"><circle class="cls-1" cx="115.05" cy="147.35" r="100"/><rect class="cls-2" x="108.19" y="70.77" width="13.3" height="18.44" rx="5.62"/><path class="cls-3" d="M108.19,77.1V74.51l13.3.22v2.35a10.91,10.91,0,0,1-13.3,0Z"/><ellipse class="cls-2" cx="114.84" cy="47.7" rx="25.09" ry="30.11"/><ellipse class="cls-2" cx="141.72" cy="49.41" rx="7.81" ry="4.79" transform="translate(49.62 167.92) rotate(-71.37)"/><ellipse class="cls-2" cx="88.53" cy="49.41" rx="4.79" ry="7.81" transform="translate(-11.15 30.87) rotate(-18.63)"/><circle class="cls-3" cx="105.33" cy="45.14" r="1.27"/><circle class="cls-3" cx="124.35" cy="45.14" r="1.27"/><path class="cls-3" d="M109.41,64.18c.93-2.41,9.69-2.41,10.62,0,.61,1.57-1.67,5.31-5.31,5.31S108.8,65.75,109.41,64.18Z"/><path class="cls-4" d="M116.66,42.64a12.76,12.76,0,0,0-2,10,16.41,16.41,0,0,1,.53,2.58,2.93,2.93,0,0,1-.84,2.4,3,3,0,0,1-3.24.12"/><path class="cls-3" d="M121.17,37.64c-.21-.26.84-1.9,2.53-2.69a6.41,6.41,0,0,1,5.3.26c1.65.81,2.88,2.25,2.68,2.53s-3-2.25-6.47-1.78C122.84,36.29,121.4,37.92,121.17,37.64Z"/><path class="cls-3" d="M106.9,33.89c2.37.66,4,2.72,3.87,3s-1.4-.75-3.44-1.29c-4.23-1.11-7.6.77-7.72.43S103.22,32.85,106.9,33.89Z"/><path class="cls-5" d="M82.88,110.28A28,28,0,0,1,108.2,82.5l6.18,6.5,7.11-6.56a28,28,0,0,1,25.73,27.84Z"/><path class="cls-6" d="M115.48,27c3.22-3.72,6-4.21,7.3-4.29,7-.42,13.72,9.16,15.34,17.37.88,4.47.27,8.72.95,8.8s1.66-3.47,2.15-6C144.1,28,135,14.58,133.5,12.44,129.69,7,124.27,1.67,122.78,2.57c-1.22.74.27,5.52,0,5.58s-2-8.22-3.44-8.15-2,7.35-2.57,7.29S117.05,1,115.48.43c-1.84-.61-5.93,7.15-6.43,6.86C108.7,7.1,111,3.59,110.34,3c-1.18-1.09-16.14,7.11-21,21.88-3.94,11.9.15,23.62,1.29,23.59.94,0-.37-8.17,4.71-16.73,1.25-2.09,6.3-10.59,12.87-9.86C111.93,22.29,114.45,25.51,115.48,27Z"/><circle class="cls-7" cx="105.4" cy="46.54" r="7.29"/><circle class="cls-7" cx="125.56" cy="47.83" r="7.29"/><path class="cls-8" d="M112.7,46.54a1.52,1.52,0,0,0,1.71-1.72h2.15a1.51,1.51,0,0,0,1.71,1.72"/><path class="cls-6" d="M64,108.14H166.1a6.22,6.22,0,0,1,6.22,6.22v0a13.2,13.2,0,0,1-13.2,13.2H71a13.2,13.2,0,0,1-13.2-13.2v0A6.22,6.22,0,0,1,64,108.14Z"/><path class="cls-6" d="M92.67,120.88h44.77a7.66,7.66,0,0,1,7.66,7.66v32a9.34,9.34,0,0,1-9.34,9.34H94.34A9.34,9.34,0,0,1,85,160.57v-32A7.66,7.66,0,0,1,92.67,120.88Z"/><circle class="cls-6" cx="151.38" cy="89.97" r="6.41"/><path class="cls-6" d="M151.66,93.59a25.87,25.87,0,0,1,4.45,7.24A27,27,0,0,1,157.23,117l3.9-.55A29.42,29.42,0,0,0,155,91.91Z"/><path class="cls-6" d="M101.09,217.91h22.59a7,7,0,0,1,7,7v.8a7,7,0,0,1-7,7H101.09a0,0,0,0,1,0,0V217.91A0,0,0,0,1,101.09,217.91Z" transform="translate(-109.42 341.19) rotate(-90)"/><path class="cls-5" d="M91.43,267.94h53.91a3.67,3.67,0,0,0,3.82-3.51V247.77A22.07,22.07,0,0,0,142,231.88a26.09,26.09,0,0,0-15.57-6.52,13.48,13.48,0,0,1-9.57,2.71,12.79,12.79,0,0,1-6.53-2.71,26.09,26.09,0,0,0-15.56,6.52,22,22,0,0,0-7.16,15.89v16.66A3.67,3.67,0,0,0,91.43,267.94Z"/><ellipse class="cls-6" cx="86.19" cy="187.35" rx="5.17" ry="9.38" transform="translate(-51.59 33.9) rotate(-17.21)"/><ellipse class="cls-6" cx="144.75" cy="187.35" rx="9.38" ry="5.17" transform="translate(-77.05 270.17) rotate(-72.79)"/><ellipse class="cls-6" cx="115.57" cy="180.93" rx="28.1" ry="40.03"/><path class="cls-2" d="M188.22,217H201a5.42,5.42,0,0,1,5.42,5.42V226a5.42,5.42,0,0,1-5.42,5.42H188.22a0,0,0,0,1,0,0V217A0,0,0,0,1,188.22,217Z" transform="translate(-26.89 421.49) rotate(-90)"/><ellipse class="cls-2" cx="169.81" cy="192.66" rx="4.81" ry="7.75" transform="translate(-37.65 41.29) rotate(-12.49)"/><ellipse class="cls-2" cx="225.12" cy="192.66" rx="7.75" ry="4.81" transform="translate(-11.67 370.78) rotate(-77.51)"/><ellipse class="cls-2" cx="197.3" cy="188.28" rx="26.83" ry="34.26"/><path class="cls-5" d="M167.9,267.94h57.33a3.7,3.7,0,0,0,3.87-3.48v-14.7A21.52,21.52,0,0,0,221.86,234a26.93,26.93,0,0,0-17.28-6.53,11.72,11.72,0,0,1-9,3.3,11.17,11.17,0,0,1-7-3.3A26.92,26.92,0,0,0,171.27,234,21.48,21.48,0,0,0,164,249.76v14.7A3.69,3.69,0,0,0,167.9,267.94Z"/><path class="cls-6" d="M224.25,185.65c-2.26,13.83-12.4,35.44-27.57,35.18-14.58-.25-24.67-20.57-26.16-35.19-.41-4-2.11-21.14,9.49-29,6.6-4.44,14.24-3.68,17.42-3.16,2.31-.48,12.88-2.42,20.58,3.95C227.54,165.36,225.21,179.8,224.25,185.65Z"/><path class="cls-6" d="M212.47,186c2.39,9.26-2.5,19.65-11.88,39.58-1.3,2.77-3.2,6.63-3.16,11.88,0,5.65,2.33,10.78,1.58,11.08-.56.23-2-2.54-2.37-2.37-.71.35,4.84,12.19,4,12.67s-5.61-7.54-6.33-7.13,2.28,5.93,1.58,6.33c-.41.24-2-1.39-3.16-3.16-4-5.91-3.32-12.66-4-12.67s-.69,6.23-1.59,6.33c-1.2.14-3.83-11-5.54-23.75-2.67-20-3.89-30.16,1.59-40.38,1.42-2.65,6.83-12.74,14.64-12.66C204.31,171.79,210.63,178.83,212.47,186Z"/><path class="cls-2" d="M192.68,174.89c-1.35.64-5.65,2.68-7.92.79-2.55-2.12-1.65-8.48,1.58-10.29,1.65-.92,3.56-.47,5.54,0a15.78,15.78,0,0,1,6.34,3.17,18.24,18.24,0,0,1,5.54-2.38c2.35-.56,5.06-1.21,7.13,0,3.79,2.25,4.18,10.12,1.58,11.88-2.43,1.64-8.19-1.59-14.25-7.92A14.25,14.25,0,0,1,192.68,174.89Z"/><path class="cls-6" d="M27,211.93H38.83a5.55,5.55,0,0,1,5.55,5.55v4.72a5.55,5.55,0,0,1-5.55,5.55H27a0,0,0,0,1,0,0V211.93a0,0,0,0,1,0,0Z" transform="translate(-184.17 255.52) rotate(-90)"/><ellipse class="cls-6" cx="35.68" cy="185.42" rx="28.1" ry="32.84"/><path class="cls-5" d="M4.79,267.11H66.56a4.78,4.78,0,0,0,4.79-4.79v-7.23c-.88-9.78-4.78-17.51-9-21.65-2.15-2.13-6.47-5.37-9.59-6.36-.87-.28-1.73-.59-2.61-.87-3.12-1-3.76-1.05-4.35-1.74-1.08-1.28,0-2.5-.87-3.48-1.41-1.65-4.89,1.24-10.44.87-4.12-.27-6.66-2.16-7.83-.87-.82.9.13,2.15-.87,3.48-.77,1-1.87,1-4.35,1.74A43.26,43.26,0,0,0,17.13,228,33.73,33.73,0,0,0,9,233.44c-4.23,3.91-8,11.76-9,21.65v7.23A4.78,4.78,0,0,0,4.79,267.11Z"/><ellipse class="cls-6" cx="7.75" cy="190.69" rx="5.17" ry="9.38" transform="translate(-56.09 10.84) rotate(-17.21)"/><ellipse class="cls-6" cx="62.83" cy="190.69" rx="9.38" ry="5.17" transform="translate(-137.91 194.27) rotate(-72.79)"/><path class="cls-2" d="M8.13,190.73C6.05,179.59,9.35,165.87,19,158.18a26.85,26.85,0,0,1,10-5c10.57-2.65,19.3,2.4,20.86,3.34,13.21,8,14.11,23.91,14.19,25.87.5,12.49-6.45,21-8.35,23.37-3.3,4.06-8.26,8.22-9.18,7.51-.52-.41.4-2.31,0-2.51-.74-.36-4.08,6.37-5.84,5.85-1.09-.33-.88-3.25-1.67-3.34-1-.12-1.79,4.94-3.33,5-1.71.07-3-6-4.18-5.85-.92.15-.6,3.92-1.67,4.18-1.62.38-4.73-7.87-5.84-7.51-.61.2.14,2.79-.83,3.33-1.25.7-4.34-2.61-5-3.33A41.26,41.26,0,0,1,8.13,190.73Z"/><path class="cls-2" d="M102.43,144.83C94.49,150,91.76,158.39,89.91,164a51.94,51.94,0,0,0-2.5,13.35c-1.14,20.53-2.82,51,17.52,72.61,5,5.34,16,17,25,14.18,9.29-2.93,10.64-26.43,13.35-73.43.75-13,1.07-24.37-5.84-35-1.78-2.75-9.47-14.63-21.7-15A23,23,0,0,0,102.43,144.83Z"/></g></g></svg>