<svg xmlns="http://www.w3.org/2000/svg" viewBox="0 0 200 263.66"><defs><style>.cls-1{fill:#9ffcdc;}.cls-2{fill:#b385ff;}.cls-3{fill:#0b1d38;}.cls-4{fill:#0ff8a8;}.cls-5,.cls-7{fill:none;}.cls-5{stroke:#0c1d37;stroke-linecap:round;stroke-linejoin:round;stroke-width:0.88px;}.cls-6{fill:#5772ff;}</style></defs><title>What is Impact Labs v2</title><g id="Layer_2" data-name="Layer 2"><g id="Layer_1-2" data-name="Layer 1"><circle class="cls-1" cx="100" cy="113.09" r="100"/><path class="cls-2" d="M156.27,218.58a30.4,30.4,0,0,0-2.52,13.64c.17,2.83.67,4.65.42,8.5a26.27,26.27,0,0,1-1.78,8.71c-2.52,5.9-7.81,9.26-8.14,9-.17-.15.9-1.19,2.44-4.08a19.07,19.07,0,0,0,2.44-6.51,9.86,9.86,0,0,0,0-4.08c-.2,0-.16,3.55-1.63,8.15a21.89,21.89,0,0,1-1.62,4.07c-2.93,5.32-9.08,8.13-9.78,7.33s3.34-3.38,5.7-9.77a22.85,22.85,0,0,0,1.52-9.59,57,57,0,0,1-3.15,12.85,10.35,10.35,0,0,1-2.44,4.07c-2.62,2.56-6.72,3.4-7.33,2.44s2.79-2.9,5.7-8.14a24.57,24.57,0,0,0,3.26-10.59c-.1,0-1.08,2.94-3.26,8.14-1,2.36-1.67,3.84-3.26,4.89-1.39.92-3.47,1.53-4.07.82s1-2.92,2.44-5.71c3.44-6.88,3.11-15,1.63-15.47-.94-.31-2.69,2.38-3.26,3.26-1.07,1.65-1.11,2.48-2.44,4.88-1.13,2.05-1.87,3.37-2.44,3.26-1-.18-1.31-4.19-.75-7.79.72-4.72,2.8-7.39,4.82-10.94a55,55,0,0,0,5.56-14.19,18.17,18.17,0,0,0,7.52,4.52A19.39,19.39,0,0,0,156.27,218.58Z"/><path class="cls-2" d="M67.68,106.87l.81-17.08,26.88-4.91V106Z"/><path class="cls-3" d="M84,97.91c-3,1.22-6,2.4-9.78,1.63a13.44,13.44,0,0,1-6-3q.15-8.28.32-16.57L79.1,71.85h5.66A10.64,10.64,0,0,1,95.37,82.46v7.61A32.65,32.65,0,0,1,84,97.91Z"/><ellipse class="cls-2" cx="80.37" cy="53.7" rx="41.44" ry="32.04" transform="translate(14.85 124.77) rotate(-81.08)"/><path class="cls-3" d="M58.71,99.54a20.74,20.74,0,0,0-7.33,9,14.08,14.08,0,0,0-4.07-7.33c-3-2.72-5.91-2.8-6.52-4.89s1.39-2.69,2.45-6.51c1.21-4.38-1-4.86,0-10.59a30.77,30.77,0,0,0,.42-4.11c.06-2.11,0-2.67.23-3a.9.9,0,0,1,.16-.21c1.19-1.39,3.79-1,4.89-.82.71.11,1.46.3,1.76.38l1.5.44a24.34,24.34,0,0,0,4.89.81c2.61.18,4.57-.17,8.14-.81,1.9-.34,2-.44,4.07-.82,2.39-.42,4.37-.67,5.71-.81h0a27,27,0,0,1,8.14,0c.64.11,1.43.28,1.63.81.36.93-1.24,2.47-2.44,3.26a7.69,7.69,0,0,1-1.63.82,38.27,38.27,0,0,1-7.33,1.62c-2.68.39-6.52,1-6.52,1.63,0,.46,1.67.41,2.44,1.63a3.83,3.83,0,0,1,0,3.26,3.77,3.77,0,0,1,.82,1.63,4.13,4.13,0,0,1-.82,3.26,4.64,4.64,0,0,1-.81,6.52,7.31,7.31,0,0,1-3.26,1.62A27.75,27.75,0,0,0,58.71,99.54Z"/><ellipse class="cls-2" cx="109.94" cy="67.61" rx="9.58" ry="7.57" transform="translate(-10.23 114.69) rotate(-52.98)"/><circle class="cls-3" cx="68.9" cy="33.15" r="2.04"/><circle class="cls-3" cx="90.89" cy="45.37" r="2.04"/><circle class="cls-4" cx="108.76" cy="73.74" r="1.22"/><path class="cls-3" d="M90.08,37.05c0-.53,5-1.67,9.17.66a12.4,12.4,0,0,1,4.36,4.37c2.6,3.92,3.09,8.2,2.69,8.35s-1.16-3.08-4.43-6.84A19,19,0,0,0,98,40.05C93.89,37.26,90,37.52,90.08,37.05Z"/><path class="cls-3" d="M80.68,32.86c.44-.29-.88-5.17-4.93-7.77a12.39,12.39,0,0,0-5.91-1.77c-4.68-.43-8.69,1.17-8.63,1.59s3.26-.44,8.12.66a18.88,18.88,0,0,1,4.93,1.7C78.69,29.6,80.28,33.11,80.68,32.86Z"/><path class="cls-5" d="M80.44,35.36c-.09,2.49-.57,6.24-2.85,9-3.52,4.29-10.08,2.84-11.26,6.11-.38,1-.31,2.7,1.75,5.41"/><ellipse class="cls-3" cx="63.31" cy="65.99" rx="4.65" ry="4.89" transform="translate(-21.07 101.24) rotate(-68.86)"/><path class="cls-4" d="M100.26,20.53a22,22,0,0,0-.82,12.22c1.85,7.6,7.44,9.75,9.78,15.47,1.88,4.6,1.87,12-6.52,24.44C118.92,68.28,130.6,55.8,132,41.71c.7-7-.81-17.27-8.15-25.25a31.54,31.54,0,0,0-12.22-8.15,8.08,8.08,0,0,1,3.26-2.44c4.39-1.75,8.63,1.37,9,1.63a9.59,9.59,0,0,0-17.1-2.45A38.84,38.84,0,0,0,91.3.16C87-.23,71.91-.84,61.16,10.75,51.47,21.2,52,34.27,52.2,36.82a44.87,44.87,0,0,1,48.06-16.29Z"/><path class="cls-2" d="M58.54,98.83c-6.16,4.52-6.81,11.2-9.1,10.76-1.72-.33-.85-4-4.14-7.45-2.94-3.09-5.93-2.58-6.62-5-.59-2,1.4-2.73,2.48-6.62,1.23-4.44-1-4.94,0-10.76.44-2.64,1.19-4.35.83-7.45A8.54,8.54,0,0,0,41.16,69c-2.08-3.85-7.5-3.75-7.45-5,0-.9,3.07-1.78,5.79-1.65.57,0,5.8.36,8.28,4.14,1.32,2,.83,3.44,2.48,5a6.92,6.92,0,0,0,4.14,1.66,50.38,50.38,0,0,0,10.76-.83c2.55-.48,4.11-1,8.28-1.65a36.2,36.2,0,0,1,8.28,0c1.19.11,2.32.26,2.48.82.25.88-2,2.21-2.48,2.49-3,1.79-5.15,1.48-9.94,2.48-3.61.76-6.69,1.83-6.62,2.48s2.61.29,3.31,1.66c.48.94-.12,2.24-.82,3.31a2.54,2.54,0,0,1,1.65,1.65,2.4,2.4,0,0,1-.83,2.49,6.32,6.32,0,0,1,.83,4.14C68.67,95.65,63.48,95.2,58.54,98.83Z"/><path class="cls-6" d="M158.09,207.07c-.55,15.12-1.62,18.17-4.07,20.36-5,4.5-15.21,4.8-20.36,0-6.19-5.75-.79-14.8-2.45-37.47-1.06-14.49-4.5-27.82-5.7-27.69-.68.07-.61,4.46-.81,11.4-.55,18.62-.82,27.94-3.26,32.58-9.84,18.75-69.52,16-77.39-4.07-2.57-6.56-.25-16.62,3.26-31.77,2-8.74,4.62-16.47,3.26-17.1-1.63-.76-5.44,10.17-17.11,17.1-3,1.77-7.59,4.38-13.85,4.07-.49,0-7.69-.46-12.21-4.88C1,163.31.81,149.8,9,137.83l26.41-41A5.76,5.76,0,0,1,43,93.93l12.58,5.56a8.19,8.19,0,0,1,2.9,2.86c3.1,5.43-2,13.46-9.55,25.7-15.49,25.06-15.77,26.3-16.29,26.07-2-.87,1.93-27.34,18.73-40.73a40.72,40.72,0,0,1,14.67-7.33V102.8a3,3,0,0,1,.81-1.63,4.18,4.18,0,0,1,3.26-.81c11.59.91,17.39,1.36,21.18.81,1.79-.26,4.93-.9,6.51.82a3.39,3.39,0,0,1,.82,1.63v4.07a189.45,189.45,0,0,1,25.25,8.14c9.53,3.84,12.14,5.82,13,6.52,7.23,5.68,9.86,12.94,13.85,24.44A143.92,143.92,0,0,1,158.09,181C158.78,188.47,158.55,194.67,158.09,207.07Z"/><line class="cls-7" x1="136.1" y1="198.11" x2="136.91" y2="198.11"/></g></g></svg>