<svg xmlns="http://www.w3.org/2000/svg" viewBox="0 0 264.08 203.24"><defs><style>.cls-1{fill:#d1b6ff;}.cls-2{fill:none;stroke:#5772ff;stroke-linecap:round;stroke-linejoin:round;stroke-width:8px;}.cls-3{fill:#5772ff;}</style></defs><title>impact labs interview</title><g id="Layer_2" data-name="Layer 2"><g id="Layer_1-2" data-name="Layer 1"><circle class="cls-1" cx="132.44" cy="103.24" r="100"/><circle class="cls-2" cx="219.29" cy="90.94" r="28.19"/><path class="cls-2" d="M205.57,130.32h44.87a9.63,9.63,0,0,1,9.63,9.63v28.23a21,21,0,0,1-21,21h0A43.18,43.18,0,0,1,195.94,146v-6A9.63,9.63,0,0,1,205.57,130.32Z" transform="translate(456.01 319.47) rotate(-180)"/><circle class="cls-2" cx="44.79" cy="90.94" r="28.19"/><path class="cls-2" d="M47.18,130.32h0a21,21,0,0,1,21,21v28.23a9.63,9.63,0,0,1-9.63,9.63H13.63A9.63,9.63,0,0,1,4,179.52v-6A43.18,43.18,0,0,1,47.18,130.32Z"/><path class="cls-2" d="M89.28,29.49A25.56,25.56,0,0,0,114.77,55h33.71l25.41,21.72a1.85,1.85,0,0,0,3-1.74L173.09,54.4a25.74,25.74,0,0,0,12.77-6.9,25.5,25.5,0,0,0-18-43.5H114.77A25.56,25.56,0,0,0,89.28,29.49Z"/><rect class="cls-3" x="108.99" y="17.7" width="62.89" height="8.47" rx="4.23" transform="translate(280.86 43.87) rotate(180)"/><rect class="cls-3" x="125.11" y="29.98" width="46.76" height="8.47" rx="4.23" transform="translate(296.99 68.42) rotate(180)"/><rect class="cls-3" x="113.88" y="127.32" width="46.76" height="8.47" rx="4.23" transform="translate(274.51 263.11) rotate(-180)"/><rect class="cls-3" x="106.49" y="84.18" width="8.55" height="8.47" rx="4.23" transform="translate(221.54 176.82) rotate(-180)"/><rect class="cls-3" x="121.52" y="84.18" width="8.55" height="8.47" rx="4.23" transform="translate(251.58 176.82) rotate(-180)"/><rect class="cls-3" x="136.52" y="84.18" width="8.55" height="8.47" rx="4.23" transform="translate(281.58 176.82) rotate(-180)"/><rect class="cls-3" x="151.51" y="84.18" width="8.55" height="8.47" rx="4.23" transform="translate(311.58 176.82) rotate(-180)"/><path class="cls-2" d="M82.6,115.54l17,16.29a25,25,0,0,0,25,24.69H146a25,25,0,0,0,0-49.93H124.56a25,25,0,0,0-19.74,9.72Z"/></g></g></svg>