<svg width="84" height="159" viewBox="0 0 84 159" fill="none" xmlns="http://www.w3.org/2000/svg">
<path d="M82.7513 62.479C81.4606 60.9224 79.4249 60.212 77.4417 60.6298L39.3403 68.6323L46.203 6.00182C46.5073 3.25422 44.7549 0.788701 42.0476 0.151426C39.3403 -0.485849 36.675 0.934959 35.7096 3.53629L0.336582 98.532C-0.345485 100.381 0.021776 102.45 1.32295 103.944C2.61363 105.438 4.61787 106.106 6.55913 105.699L43.7056 97.9052L35.972 152.836C35.5837 155.563 37.2417 158.07 39.907 158.802C40.4002 158.937 40.9038 159 41.3865 159C43.5167 159 45.4789 157.746 46.3499 155.688L83.5803 68.0264C84.3568 66.1564 84.042 64.0356 82.7513 62.479Z" fill="#5772FF"/>
</svg>
