<svg width="134" height="135" viewBox="0 0 134 135" fill="none" xmlns="http://www.w3.org/2000/svg">
<path d="M88.0768 124.924V88.7085H124.087C129.259 88.7085 133.45 84.4935 133.458 79.2836L133.459 55.7389C133.459 50.5378 129.267 46.3227 124.087 46.314L88.0682 46.3228L88.0682 10.1068C88.0682 4.90568 83.8771 0.690669 78.6968 0.681942L55.2858 0.681939C50.1142 0.681939 45.9231 4.89695 45.9145 10.1068L45.9144 46.3227L9.90416 46.3228C4.73255 46.3228 0.541474 50.5378 0.532798 55.7476L0.532805 79.2923C0.532806 84.4935 4.72389 88.7085 9.90416 88.7172H45.9145L45.9144 124.933C45.9144 130.134 50.1055 134.349 55.2858 134.358H78.6968C83.8771 134.349 88.0768 130.126 88.0768 124.924Z" fill="#5772FF"/>
</svg>
