<svg xmlns="http://www.w3.org/2000/svg" viewBox="0 0 60 51.64"><defs><style>.cls-1{fill:#2ffc8d;}.cls-2{fill:#03e370;}.cls-3{fill:#10c767;}.cls-4{fill:#00ab6c;}</style></defs><title>Medium</title><g id="Layer_2" data-name="Layer 2"><g id="primary_Logo" data-name="primary Logo"><path class="cls-1" d="M40.56.06A.36.36,0,0,0,40,.41V42.28l18.35,9.17a1.05,1.05,0,0,0,1.65-1V10.11a.5.5,0,0,0-.29-.48Z"/><path class="cls-2" d="M20,32.29,39.67.32a.68.68,0,0,1,.89-.24l19,9.49a.45.45,0,0,1,.18.64L40,42.28Z"/><path class="cls-3" d="M2.21.9C1,.28.58.74,1.3,1.91L20,32.29l20,10L20.12,10a.93.93,0,0,0-.35-.33Z"/><path class="cls-4" d="M20,50.44a1.06,1.06,0,0,1-1.65,1L1.11,42.84A2.21,2.21,0,0,1,0,41.05V1A.71.71,0,0,1,1.11.34L19.75,9.67a.47.47,0,0,1,.25.4V50.44Z"/></g></g></svg>