<svg xmlns="http://www.w3.org/2000/svg" viewBox="0 0 207.84 245.41"><defs><style>.cls-1{fill:#d1b6ff;}.cls-2,.cls-3,.cls-4{fill:none;stroke:#5772ff;stroke-miterlimit:10;}.cls-2,.cls-3{stroke-width:8px;}.cls-3{stroke-linecap:round;}.cls-4{stroke-width:5px;}.cls-5{fill:#5772ff;}</style></defs><title>submit an app</title><g id="Layer_2" data-name="Layer 2"><g id="Layer_1-2" data-name="Layer 1"><circle class="cls-1" cx="107.84" cy="120.86" r="100"/><path class="cls-2" d="M194.57,156.94l-11.12,5.24c-9.66-20.11-21.31-42.05-26.07-40.46-.85.28-1.77,1.41-2.2,7.32-1.19,16.23,4,31,9.56,42L81.21,210.31a9.81,9.81,0,0,1-13.08-4.71L4.94,71.38A9.82,9.82,0,0,1,9.65,58.31L123,4.94a9.81,9.81,0,0,1,13.07,4.71l63.19,134.22A9.81,9.81,0,0,1,194.57,156.94Z"/><path class="cls-3" d="M104.28,201.41a70.43,70.43,0,0,0,24.59,40"/><path class="cls-3" d="M197.64,198.58s-6.33-17.87-14.19-36.4"/><circle class="cls-4" cx="45.56" cy="97.66" r="6.59"/><path class="cls-4" d="M67.77,152.87,67,161.68a3,3,0,0,0,4.3,3l8-3.75a3,3,0,0,0,.44-5.22l-7.25-5A3,3,0,0,0,67.77,152.87Z"/><rect class="cls-4" x="99.35" y="63.08" width="13.28" height="14.01" rx="3.66" transform="translate(-19.73 51.61) rotate(-25.12)"/><rect class="cls-5" x="54.81" y="80.09" width="36.66" height="8.2" rx="4.1" transform="translate(-29.31 40.13) rotate(-25.75)"/><rect class="cls-5" x="87.93" y="33.92" width="36.66" height="8.2" rx="4.1" transform="translate(-5.96 49.93) rotate(-25.75)"/><rect class="cls-5" x="23.63" y="56.25" width="57.18" height="14.02" rx="7.01" transform="translate(-22.29 28.96) rotate(-25.75)"/><rect class="cls-5" x="60.05" y="91.26" width="36.66" height="8.2" rx="4.1" transform="translate(-33.64 43.52) rotate(-25.75)"/><rect class="cls-5" x="65.32" y="102.48" width="36.66" height="8.2" rx="4.1" transform="translate(-37.99 46.92) rotate(-25.75)"/><rect class="cls-5" x="70.58" y="113.66" width="36.66" height="8.2" rx="4.1" transform="translate(-42.32 50.31) rotate(-25.75)"/><rect class="cls-5" x="81.89" y="137.25" width="40.59" height="8.2" rx="4.1" transform="translate(-51.25 58.42) rotate(-25.75)"/><rect class="cls-5" x="87.12" y="148.38" width="40.59" height="8.2" rx="4.1" transform="translate(-55.57 61.8) rotate(-25.75)"/><rect class="cls-5" x="92.37" y="159.53" width="40.59" height="8.2" rx="4.1" transform="translate(-59.89 65.19) rotate(-25.75)"/><rect class="cls-5" x="114.83" y="54.26" width="24.48" height="8.2" rx="4.1" transform="translate(-12.73 60.99) rotate(-25.75)"/><rect class="cls-5" x="120.09" y="65.4" width="24.48" height="8.2" rx="4.1" transform="translate(-17.05 64.38) rotate(-25.75)"/><rect class="cls-5" x="133.84" y="94.69" width="24.48" height="8.2" rx="4.1" transform="translate(-28.41 73.26) rotate(-25.75)"/><rect class="cls-5" x="139" y="105.66" width="24.48" height="8.2" rx="4.1" transform="translate(-32.66 76.59) rotate(-25.75)"/><rect class="cls-5" x="128.68" y="83.68" width="24.48" height="8.2" rx="4.1" transform="translate(-24.14 69.93) rotate(-25.75)"/></g></g></svg>